<ttFont>
    <TTGlyph name="A" xMin="-67" yMin="0" xMax="1150" yMax="1456">
      <contour>
        <pt x="832" y="314" on="1"/>
        <pt x="376" y="314" on="1"/>
        <pt x="222" y="0" on="1"/>
        <pt x="-67" y="0" on="1"/>
        <pt x="687" y="1456" on="1"/>
        <pt x="981" y="1456" on="1"/>
        <pt x="1150" y="0" on="1"/>
        <pt x="860" y="0" on="1"/>
      </contour>
      <contour>
        <pt x="488" y="543" on="1"/>
        <pt x="811" y="543" on="1"/>
        <pt x="762" y="1089" on="1"/>
        <pt x="756" y="1090" on="1"/>
      </contour>
    </TTGlyph>
    <TTGlyph name="A.smcp" xMin="-70" yMin="0" xMax="1078" yMax="1165">
      <contour>
        <pt x="746" y="207" on="1"/>
        <pt x="344" y="207" on="1"/>
        <pt x="235" y="0" on="1"/>
        <pt x="-70" y="0" on="1"/>
        <pt x="581" y="1165" on="1"/>
        <pt x="894" y="1165" on="1"/>
        <pt x="1078" y="0" on="1"/>
        <pt x="774" y="0" on="1"/>
      </contour>
      <contour>
        <pt x="463" y="431" on="1"/>
        <pt x="716" y="431" on="1"/>
        <pt x="667" y="803" on="1"/>
        <pt x="661" y="804" on="1"/>
      </contour>
    </TTGlyph>
    <TTGlyph name="AE" xMin="-81" yMin="0" xMax="1895" yMax="1456">
      <contour>
        <pt x="1661" y="0" on="1"/>
        <pt x="816" y="0" on="1"/>
        <pt x="870" y="335" on="1"/>
        <pt x="477" y="335" on="1"/>
        <pt x="257" y="0" on="1"/>
        <pt x="-81" y="0" on="1"/>
        <pt x="933" y="1456" on="1"/>
        <pt x="1895" y="1456" on="1"/>
        <pt x="1850" y="1228" on="1"/>
        <pt x="1301" y="1228" on="1"/>
        <pt x="1242" y="862" on="1"/>
        <pt x="1700" y="862" on="1"/>
        <pt x="1655" y="635" on="1"/>
        <pt x="1206" y="635" on="1"/>
        <pt x="1140" y="227" on="1"/>
        <pt x="1706" y="227" on="1"/>
      </contour>
      <contour>
        <pt x="908" y="575" on="1"/>
        <pt x="994" y="1108" on="1"/>
        <pt x="988" y="1110" on="1"/>
        <pt x="635" y="575" on="1"/>
      </contour>
    </TTGlyph>
    <TTGlyph name="AEacute" xMin="-81" yMin="0" xMax="1895" yMax="1826">
      <component glyphName="AE" x="0" y="0" flags="0x204"/>
      <component glyphName="acute" x="727" y="348" flags="0x4"/>
    </TTGlyph>
    <TTGlyph name="Aacute" xMin="-67" yMin="0" xMax="1247" yMax="1826">
      <component glyphName="A" x="0" y="0" flags="0x204"/>
      <component glyphName="acute" x="488" y="348" flags="0x4"/>
    </TTGlyph>
    <TTGlyph name="Aacute.smcp" xMin="-70" yMin="0" xMax="1134" yMax="1503">
      <component glyphName="A.smcp" x="0" y="0" flags="0x204"/>
      <component glyphName="acute" x="375" y="25" flags="0x4"/>
    </TTGlyph>
    <TTGlyph name="Abreve" xMin="-67" yMin="0" xMax="1236" yMax="1896">
      <component glyphName="A" x="0" y="0" flags="0x204"/>
      <component glyphName="breve" x="324" y="440" flags="0x4"/>
    </TTGlyph>
    <TTGlyph name="Abreve.smcp" xMin="-70" yMin="0" xMax="1123" yMax="1573">
      <component glyphName="A.smcp" x="0" y="0" flags="0x204"/>
      <component glyphName="breve" x="211" y="117" flags="0x4"/>
    </TTGlyph>
    <TTGlyph name="Acircumflex" xMin="-67" yMin="0" xMax="1224" yMax="1858">
      <component glyphName="A" x="0" y="0" flags="0x204"/>
      <component glyphName="circumflex" x="220" y="340" flags="0x4"/>
    </TTGlyph>
    <TTGlyph name="Acircumflex.smcp" xMin="-70" yMin="0" xMax="1111" yMax="1535">
      <component glyphName="A.smcp" x="0" y="0" flags="0x204"/>
      <component glyphName="circumflex" x="107" y="17" flags="0x4"/>
    </TTGlyph>
    <TTGlyph name="Adieresis" xMin="-67" yMin="0" xMax="1261" yMax="1805">
      <component glyphName="A" x="0" y="0" flags="0x204"/>
      <component glyphName="dieresis" x="224" y="349" flags="0x4"/>
    </TTGlyph>
    <TTGlyph name="Adieresis.smcp" xMin="-70" yMin="0" xMax="1148" yMax="1482">
      <component glyphName="A.smcp" x="0" y="0" flags="0x204"/>
      <component glyphName="dieresis" x="111" y="26" flags="0x4"/>
    </TTGlyph>
    <TTGlyph name="Agrave" xMin="-67" yMin="0" xMax="1150" yMax="1826">
      <component glyphName="A" x="0" y="0" flags="0x204"/>
      <component glyphName="grave" x="320" y="348" flags="0x4"/>
    </TTGlyph>
    <TTGlyph name="Agrave.smcp" xMin="-70" yMin="0" xMax="1078" yMax="1503">
      <component glyphName="A.smcp" x="0" y="0" flags="0x204"/>
      <component glyphName="grave" x="207" y="25" flags="0x4"/>
    </TTGlyph>
    <TTGlyph name="Alpha" xMin="-67" yMin="0" xMax="1150" yMax="1456">
      <component glyphName="A" x="0" y="0" flags="0x204"/>
    </TTGlyph>
    <TTGlyph name="Alphatonos" xMin="-67" yMin="0" xMax="1150" yMax="1634">
      <component glyphName="A" x="0" y="0" flags="0x204"/>
      <component glyphName="tonos" x="-129" y="0" flags="0x4"/>
    </TTGlyph>
    <TTGlyph name="Amacron" xMin="-67" yMin="0" xMax="1241" yMax="1778">
      <component glyphName="A" x="0" y="0" flags="0x204"/>
      <component glyphName="macron" x="244" y="321" flags="0x4"/>
    </TTGlyph>
    <TTGlyph name="Amacron.smcp" xMin="-70" yMin="0" xMax="1128" yMax="1457">
      <component glyphName="A.smcp" x="0" y="0" flags="0x204"/>
      <component glyphName="macron" x="131" y="0" flags="0x4"/>
    </TTGlyph>
    <TTGlyph name="Aogonek" xMin="-67" yMin="-424" xMax="1150" yMax="1456">
      <component glyphName="A" x="0" y="0" flags="0x204"/>
      <component glyphName="ogonek" x="764" y="0" flags="0x4"/>
    </TTGlyph>
    <TTGlyph name="Aogonek.smcp" xMin="-70" yMin="-424" xMax="1078" yMax="1165">
      <component glyphName="A.smcp" x="0" y="0" flags="0x204"/>
      <component glyphName="ogonek" x="690" y="0" flags="0x4"/>
    </TTGlyph>
    <TTGlyph name="Aring" xMin="-67" yMin="0" xMax="1150" yMax="1935">
      <component glyphName="A" x="0" y="0" flags="0x204"/>
      <component glyphName="ring" x="398" y="441" flags="0x4"/>
    </TTGlyph>
    <TTGlyph name="Aring.smcp" xMin="-70" yMin="0" xMax="1078" yMax="1612">
      <component glyphName="A.smcp" x="0" y="0" flags="0x204"/>
      <component glyphName="ring" x="285" y="118" flags="0x4"/>
    </TTGlyph>
    <TTGlyph name="Aringacute" xMin="-67" yMin="0" xMax="1318" yMax="2140">
      <component glyphName="A" x="0" y="0" flags="0x204"/>
      <component glyphName="ringacute" x="385" y="406" flags="0x4"/>
    </TTGlyph>
    <TTGlyph name="Aringacute.smcp" xMin="-70" yMin="0" xMax="1205" yMax="1817">
      <component glyphName="A.smcp" x="0" y="0" flags="0x204"/>
      <component glyphName="ringacute" x="272" y="83" flags="0x4"/>
    </TTGlyph>
    <TTGlyph name="Atilde" xMin="-67" yMin="0" xMax="1261" yMax="1901">
      <component glyphName="A" x="0" y="0" flags="0x204"/>
      <component glyphName="tilde" x="271" y="372" flags="0x4"/>
    </TTGlyph>
    <TTGlyph name="Atilde.smcp" xMin="-70" yMin="0" xMax="1148" yMax="1578">
      <component glyphName="A.smcp" x="0" y="0" flags="0x204"/>
      <component glyphName="tilde" x="158" y="49" flags="0x4"/>
    </TTGlyph>
    <TTGlyph name="B" xMin="42" yMin="0" xMax="1269" yMax="1456">
      <contour>
        <pt x="42" y="0" on="1"/>
        <pt x="333" y="1456" on="1"/>
        <pt x="798" y="1456" on="1"/>
        <pt x="1025" y="1456" on="0"/>
        <pt x="1269" y="1252" on="0"/>
        <pt x="1230" y="1057" on="1"/>
        <pt x="1208" y="950" on="0"/>
        <pt x="1080" y="795" on="0"/>
        <pt x="976" y="757" on="1"/>
        <pt x="1092" y="728" on="0"/>
        <pt x="1175" y="545" on="0"/>
        <pt x="1152" y="424" on="1"/>
        <pt x="1107" y="202" on="0"/>
        <pt x="814" y="0" on="0"/>
        <pt x="570" y="0" on="1"/>
      </contour>
      <contour>
        <pt x="459" y="644" on="1"/>
        <pt x="375" y="224" on="1"/>
        <pt x="615" y="224" on="1"/>
        <pt x="712" y="224" on="0"/>
        <pt x="845" y="327" on="0"/>
        <pt x="865" y="424" on="1"/>
        <pt x="887" y="538" on="0"/>
        <pt x="821" y="644" on="0"/>
        <pt x="720" y="644" on="1"/>
      </contour>
      <contour>
        <pt x="499" y="846" on="1"/>
        <pt x="694" y="846" on="1"/>
        <pt x="787" y="848" on="0"/>
        <pt x="919" y="946" on="0"/>
        <pt x="938" y="1034" on="1"/>
        <pt x="959" y="1142" on="0"/>
        <pt x="867" y="1231" on="0"/>
        <pt x="753" y="1231" on="1"/>
        <pt x="576" y="1231" on="1"/>
      </contour>
    </TTGlyph>
    <TTGlyph name="B.smcp" xMin="36" yMin="0" xMax="1104" yMax="1165">
      <contour>
        <pt x="36" y="0" on="1"/>
        <pt x="269" y="1165" on="1"/>
        <pt x="710" y="1165" on="1"/>
        <pt x="899" y="1165" on="0"/>
        <pt x="1104" y="1000" on="0"/>
        <pt x="1074" y="843" on="1"/>
        <pt x="1056" y="755" on="0"/>
        <pt x="935" y="628" on="0"/>
        <pt x="838" y="596" on="1"/>
        <pt x="951" y="570" on="0"/>
        <pt x="1041" y="427" on="0"/>
        <pt x="1023" y="330" on="1"/>
        <pt x="987" y="156" on="0"/>
        <pt x="748" y="0" on="0"/>
        <pt x="541" y="0" on="1"/>
      </contour>
      <contour>
        <pt x="424" y="495" on="1"/>
        <pt x="369" y="222" on="1"/>
        <pt x="585" y="222" on="1"/>
        <pt x="651" y="222" on="0"/>
        <pt x="726" y="286" on="0"/>
        <pt x="740" y="350" on="1"/>
        <pt x="754" y="425" on="0"/>
        <pt x="714" y="493" on="0"/>
        <pt x="647" y="495" on="1"/>
        <pt x="640" y="495" on="1"/>
      </contour>
      <contour>
        <pt x="461" y="681" on="1"/>
        <pt x="613" y="681" on="1"/>
        <pt x="678" y="681" on="0"/>
        <pt x="767" y="745" on="0"/>
        <pt x="779" y="804" on="1"/>
        <pt x="793" y="878" on="0"/>
        <pt x="738" y="934" on="0"/>
        <pt x="664" y="934" on="1"/>
        <pt x="512" y="934" on="1"/>
      </contour>
    </TTGlyph>
    <TTGlyph name="Beta" xMin="42" yMin="0" xMax="1269" yMax="1456">
      <component glyphName="B" x="0" y="0" flags="0x204"/>
    </TTGlyph>
    <TTGlyph name="C" xMin="68" yMin="-21" xMax="1298" yMax="1477">
      <contour>
        <pt x="1169" y="488" on="1"/>
        <pt x="1171" y="482" on="1"/>
        <pt x="1110" y="239" on="0"/>
        <pt x="823" y="-21" on="0"/>
        <pt x="584" y="-21" on="1"/>
        <pt x="351" y="-21" on="0"/>
        <pt x="68" y="328" on="0"/>
        <pt x="120" y="586" on="1"/>
        <pt x="178" y="876" on="1"/>
        <pt x="235" y="1163" on="0"/>
        <pt x="559" y="1477" on="0"/>
        <pt x="799" y="1477" on="1"/>
        <pt x="1036" y="1477" on="0"/>
        <pt x="1298" y="1193" on="0"/>
        <pt x="1267" y="957" on="1"/>
        <pt x="1265" y="952" on="1"/>
        <pt x="983" y="952" on="1"/>
        <pt x="1003" y="1097" on="0"/>
        <pt x="903" y="1252" on="0"/>
        <pt x="772" y="1252" on="1"/>
        <pt x="665" y="1252" on="0"/>
        <pt x="498" y="1043" on="0"/>
        <pt x="466" y="878" on="1"/>
        <pt x="407" y="586" on="1"/>
        <pt x="371" y="410" on="0"/>
        <pt x="478" y="203" on="0"/>
        <pt x="604" y="203" on="1"/>
        <pt x="716" y="203" on="0"/>
        <pt x="851" y="342" on="0"/>
        <pt x="890" y="488" on="1"/>
      </contour>
    </TTGlyph>
    <TTGlyph name="C.smcp" xMin="55" yMin="-17" xMax="1125" yMax="1181">
      <contour>
        <pt x="1002" y="397" on="1"/>
        <pt x="1004" y="391" on="1"/>
        <pt x="965" y="176" on="0"/>
        <pt x="697" y="-17" on="0"/>
        <pt x="474" y="-17" on="1"/>
        <pt x="277" y="-17" on="0"/>
        <pt x="55" y="252" on="0"/>
        <pt x="97" y="461" on="1"/>
        <pt x="146" y="704" on="1"/>
        <pt x="190" y="930" on="0"/>
        <pt x="498" y="1181" on="0"/>
        <pt x="713" y="1181" on="1"/>
        <pt x="919" y="1181" on="0"/>
        <pt x="1125" y="970" on="0"/>
        <pt x="1082" y="774" on="1"/>
        <pt x="1080" y="769" on="1"/>
        <pt x="800" y="769" on="1"/>
        <pt x="821" y="877" on="0"/>
        <pt x="764" y="958" on="0"/>
        <pt x="669" y="958" on="1"/>
        <pt x="586" y="958" on="0"/>
        <pt x="455" y="816" on="0"/>
        <pt x="434" y="705" on="1"/>
        <pt x="385" y="461" on="1"/>
        <pt x="360" y="340" on="0"/>
        <pt x="428" y="205" on="0"/>
        <pt x="518" y="205" on="1"/>
        <pt x="603" y="205" on="0"/>
        <pt x="703" y="297" on="0"/>
        <pt x="723" y="397" on="1"/>
      </contour>
    </TTGlyph>
    <TTGlyph name="Cacute" xMin="68" yMin="-21" xMax="1298" yMax="1847">
      <component glyphName="C" x="0" y="0" flags="0x204"/>
      <component glyphName="acute" x="492" y="369" flags="0x4"/>
    </TTGlyph>
    <TTGlyph name="Cacute.smcp" xMin="55" yMin="-17" xMax="1125" yMax="1519">
      <component glyphName="C.smcp" x="0" y="0" flags="0x204"/>
      <component glyphName="acute" x="347" y="41" flags="0x4"/>
    </TTGlyph>
    <TTGlyph name="Ccaron" xMin="68" yMin="-21" xMax="1298" yMax="1894">
      <component glyphName="C" x="0" y="0" flags="0x204"/>
      <component glyphName="caron" x="247" y="370" flags="0x4"/>
    </TTGlyph>
    <TTGlyph name="Ccaron.smcp" xMin="55" yMin="-17" xMax="1142" yMax="1566">
      <component glyphName="C.smcp" x="0" y="0" flags="0x204"/>
      <component glyphName="caron" x="102" y="42" flags="0x4"/>
    </TTGlyph>
    <TTGlyph name="Ccedilla" xMin="68" yMin="-458" xMax="1298" yMax="1477">
      <component glyphName="C" x="0" y="0" flags="0x204"/>
      <component glyphName="cedilla" x="392" y="-1" flags="0x4"/>
    </TTGlyph>
    <TTGlyph name="Ccedilla.smcp" xMin="55" yMin="-457" xMax="1125" yMax="1181">
      <component glyphName="C.smcp" x="0" y="0" flags="0x204"/>
      <component glyphName="cedilla" x="315" y="0" flags="0x4"/>
    </TTGlyph>
    <TTGlyph name="Ccircumflex" xMin="68" yMin="-21" xMax="1298" yMax="1879">
      <component glyphName="C" x="0" y="0" flags="0x204"/>
      <component glyphName="circumflex" x="224" y="361" flags="0x4"/>
    </TTGlyph>
    <TTGlyph name="Ccircumflex.smcp" xMin="55" yMin="-17" xMax="1125" yMax="1551">
      <component glyphName="C.smcp" x="0" y="0" flags="0x204"/>
      <component glyphName="circumflex" x="79" y="33" flags="0x4"/>
    </TTGlyph>
    <TTGlyph name="Chi" xMin="-38" yMin="0" xMax="1350" yMax="1456">
      <component glyphName="X" x="0" y="0" flags="0x204"/>
    </TTGlyph>
    <TTGlyph name="D" xMin="42" yMin="0" xMax="1304" yMax="1456">
      <contour>
        <pt x="42" y="0" on="1"/>
        <pt x="333" y="1456" on="1"/>
        <pt x="768" y="1456" on="1"/>
        <pt x="1004" y="1456" on="0"/>
        <pt x="1304" y="1098" on="0"/>
        <pt x="1253" y="838" on="1"/>
        <pt x="1204" y="597" on="1"/>
        <pt x="1146" y="309" on="0"/>
        <pt x="802" y="0" on="0"/>
        <pt x="551" y="0" on="1"/>
      </contour>
      <contour>
        <pt x="576" y="1231" on="1"/>
        <pt x="375" y="224" on="1"/>
        <pt x="581" y="224" on="1"/>
        <pt x="710" y="224" on="0"/>
        <pt x="880" y="424" on="0"/>
        <pt x="915" y="597" on="1"/>
        <pt x="964" y="840" on="1"/>
        <pt x="999" y="1017" on="0"/>
        <pt x="855" y="1231" on="0"/>
        <pt x="708" y="1231" on="1"/>
      </contour>
    </TTGlyph>
    <TTGlyph name="D.smcp" xMin="36" yMin="0" xMax="1134" yMax="1165">
      <contour>
        <pt x="702" y="1165" on="1"/>
        <pt x="899" y="1165" on="0"/>
        <pt x="1134" y="893" on="0"/>
        <pt x="1093" y="687" on="1"/>
        <pt x="1051" y="477" on="1"/>
        <pt x="1006" y="252" on="0"/>
        <pt x="685" y="0" on="0"/>
        <pt x="469" y="0" on="1"/>
        <pt x="36" y="0" on="1"/>
        <pt x="269" y="1165" on="1"/>
      </contour>
      <contour>
        <pt x="513" y="942" on="1"/>
        <pt x="369" y="222" on="1"/>
        <pt x="513" y="222" on="1"/>
        <pt x="596" y="222" on="0"/>
        <pt x="741" y="367" on="0"/>
        <pt x="763" y="477" on="1"/>
        <pt x="806" y="688" on="1"/>
        <pt x="829" y="806" on="0"/>
        <pt x="747" y="942" on="0"/>
        <pt x="657" y="942" on="1"/>
      </contour>
    </TTGlyph>
    <TTGlyph name="Dcaron" xMin="42" yMin="0" xMax="1304" yMax="1873">
      <component glyphName="D" x="0" y="0" flags="0x204"/>
      <component glyphName="caron" x="168" y="349" flags="0x4"/>
    </TTGlyph>
    <TTGlyph name="Dcaron.smcp" xMin="36" yMin="0" xMax="1134" yMax="1550">
      <component glyphName="D.smcp" x="0" y="0" flags="0x204"/>
      <component glyphName="caron" x="28" y="26" flags="0x4"/>
    </TTGlyph>
    <TTGlyph name="Dcroat" xMin="72" yMin="0" xMax="1334" yMax="1456">
      <contour>
        <pt x="72" y="0" on="1"/>
        <pt x="202" y="652" on="1"/>
        <pt x="77" y="652" on="1"/>
        <pt x="113" y="833" on="1"/>
        <pt x="238" y="833" on="1"/>
        <pt x="363" y="1456" on="1"/>
        <pt x="798" y="1456" on="1"/>
        <pt x="1034" y="1456" on="0"/>
        <pt x="1334" y="1098" on="0"/>
        <pt x="1283" y="838" on="1"/>
        <pt x="1234" y="597" on="1"/>
        <pt x="1176" y="309" on="0"/>
        <pt x="832" y="0" on="0"/>
        <pt x="581" y="0" on="1"/>
      </contour>
      <contour>
        <pt x="707" y="652" on="1"/>
        <pt x="490" y="652" on="1"/>
        <pt x="405" y="224" on="1"/>
        <pt x="611" y="224" on="1"/>
        <pt x="740" y="224" on="0"/>
        <pt x="910" y="424" on="0"/>
        <pt x="945" y="597" on="1"/>
        <pt x="994" y="840" on="1"/>
        <pt x="1029" y="1017" on="0"/>
        <pt x="885" y="1231" on="0"/>
        <pt x="738" y="1231" on="1"/>
        <pt x="606" y="1231" on="1"/>
        <pt x="526" y="833" on="1"/>
        <pt x="743" y="833" on="1"/>
      </contour>
    </TTGlyph>
    <TTGlyph name="Dcroat.smcp" xMin="-11" yMin="0" xMax="1134" yMax="1165">
      <component glyphName="D.smcp" x="0" y="0" flags="0x204"/>
      <component glyphName="crossbar" x="-209" y="-142" flags="0x4"/>
    </TTGlyph>
    <TTGlyph name="Delta" xMin="-62" yMin="0" xMax="1302" yMax="1456">
      <contour>
        <pt x="1064" y="1456" on="1"/>
        <pt x="1302" y="0" on="1"/>
        <pt x="-62" y="0" on="1"/>
        <pt x="769" y="1456" on="1"/>
      </contour>
      <contour>
        <pt x="363" y="224" on="1"/>
        <pt x="968" y="224" on="1"/>
        <pt x="843" y="1083" on="1"/>
        <pt x="837" y="1084" on="1"/>
      </contour>
    </TTGlyph>
    <TTGlyph name="E" xMin="42" yMin="0" xMax="1266" yMax="1456">
      <contour>
        <pt x="1010" y="640" on="1"/>
        <pt x="458" y="640" on="1"/>
        <pt x="375" y="224" on="1"/>
        <pt x="1022" y="224" on="1"/>
        <pt x="977" y="0" on="1"/>
        <pt x="42" y="0" on="1"/>
        <pt x="333" y="1456" on="1"/>
        <pt x="1266" y="1456" on="1"/>
        <pt x="1221" y="1231" on="1"/>
        <pt x="576" y="1231" on="1"/>
        <pt x="503" y="865" on="1"/>
        <pt x="1055" y="865" on="1"/>
      </contour>
    </TTGlyph>
    <TTGlyph name="E.smcp" xMin="36" yMin="0" xMax="1067" yMax="1165">
      <contour>
        <pt x="853" y="492" on="1"/>
        <pt x="423" y="492" on="1"/>
        <pt x="369" y="222" on="1"/>
        <pt x="878" y="222" on="1"/>
        <pt x="834" y="0" on="1"/>
        <pt x="36" y="0" on="1"/>
        <pt x="269" y="1165" on="1"/>
        <pt x="1067" y="1165" on="1"/>
        <pt x="1022" y="942" on="1"/>
        <pt x="513" y="942" on="1"/>
        <pt x="468" y="716" on="1"/>
        <pt x="898" y="716" on="1"/>
      </contour>
    </TTGlyph>
    <TTGlyph name="Eacute" xMin="42" yMin="0" xMax="1266" yMax="1826">
      <component glyphName="E" x="0" y="0" flags="0x204"/>
      <component glyphName="acute" x="422" y="348" flags="0x4"/>
    </TTGlyph>
    <TTGlyph name="Eacute.smcp" xMin="36" yMin="0" xMax="1067" yMax="1503">
      <component glyphName="E.smcp" x="0" y="0" flags="0x204"/>
      <component glyphName="acute" x="302" y="25" flags="0x4"/>
    </TTGlyph>
    <TTGlyph name="Ebreve" xMin="42" yMin="0" xMax="1266" yMax="1896">
      <component glyphName="E" x="0" y="0" flags="0x204"/>
      <component glyphName="breve" x="258" y="440" flags="0x4"/>
    </TTGlyph>
    <TTGlyph name="Ebreve.smcp" xMin="36" yMin="0" xMax="1067" yMax="1573">
      <component glyphName="E.smcp" x="0" y="0" flags="0x204"/>
      <component glyphName="breve" x="138" y="117" flags="0x4"/>
    </TTGlyph>
    <TTGlyph name="Ecaron" xMin="42" yMin="0" xMax="1266" yMax="1873">
      <component glyphName="E" x="0" y="0" flags="0x204"/>
      <component glyphName="caron" x="177" y="349" flags="0x4"/>
    </TTGlyph>
    <TTGlyph name="Ecaron.smcp" xMin="36" yMin="0" xMax="1097" yMax="1550">
      <component glyphName="E.smcp" x="0" y="0" flags="0x204"/>
      <component glyphName="caron" x="57" y="26" flags="0x4"/>
    </TTGlyph>
    <TTGlyph name="Ecircumflex" xMin="42" yMin="0" xMax="1266" yMax="1858">
      <component glyphName="E" x="0" y="0" flags="0x204"/>
      <component glyphName="circumflex" x="154" y="340" flags="0x4"/>
    </TTGlyph>
    <TTGlyph name="Ecircumflex.smcp" xMin="36" yMin="0" xMax="1067" yMax="1535">
      <component glyphName="E.smcp" x="0" y="0" flags="0x204"/>
      <component glyphName="circumflex" x="34" y="17" flags="0x4"/>
    </TTGlyph>
    <TTGlyph name="Edieresis" xMin="42" yMin="0" xMax="1266" yMax="1805">
      <component glyphName="E" x="0" y="0" flags="0x204"/>
      <component glyphName="dieresis" x="158" y="349" flags="0x4"/>
    </TTGlyph>
    <TTGlyph name="Edieresis.smcp" xMin="36" yMin="0" xMax="1075" yMax="1482">
      <component glyphName="E.smcp" x="0" y="0" flags="0x204"/>
      <component glyphName="dieresis" x="38" y="26" flags="0x4"/>
    </TTGlyph>
    <TTGlyph name="Edotaccent" xMin="42" yMin="0" xMax="1266" yMax="1842">
      <component glyphName="E" x="0" y="0" flags="0x204"/>
      <component glyphName="dotaccent" x="348" y="374" flags="0x4"/>
    </TTGlyph>
    <TTGlyph name="Edotaccent.smcp" xMin="36" yMin="0" xMax="1067" yMax="1519">
      <component glyphName="E.smcp" x="0" y="0" flags="0x204"/>
      <component glyphName="dotaccent" x="228" y="51" flags="0x4"/>
    </TTGlyph>
    <TTGlyph name="Egrave" xMin="42" yMin="0" xMax="1266" yMax="1826">
      <component glyphName="E" x="0" y="0" flags="0x204"/>
      <component glyphName="grave" x="254" y="348" flags="0x4"/>
    </TTGlyph>
    <TTGlyph name="Egrave.smcp" xMin="36" yMin="0" xMax="1067" yMax="1503">
      <component glyphName="E.smcp" x="0" y="0" flags="0x204"/>
      <component glyphName="grave" x="134" y="25" flags="0x4"/>
    </TTGlyph>
    <TTGlyph name="Emacron" xMin="42" yMin="0" xMax="1266" yMax="1778">
      <component glyphName="E" x="0" y="0" flags="0x204"/>
      <component glyphName="macron" x="178" y="321" flags="0x4"/>
    </TTGlyph>
    <TTGlyph name="Emacron.smcp" xMin="36" yMin="0" xMax="1067" yMax="1457">
      <component glyphName="E.smcp" x="0" y="0" flags="0x204"/>
      <component glyphName="macron" x="58" y="0" flags="0x4"/>
    </TTGlyph>
    <TTGlyph name="Eng" xMin="37" yMin="-437" xMax="1432" yMax="1456">
      <contour>
        <pt x="1432" y="1456" on="1"/>
        <pt x="1133" y="-40" on="1"/>
        <pt x="1092" y="-243" on="0"/>
        <pt x="866" y="-437" on="0"/>
        <pt x="692" y="-437" on="1"/>
        <pt x="655" y="-437" on="0"/>
        <pt x="590" y="-429" on="0"/>
        <pt x="558" y="-420" on="1"/>
        <pt x="615" y="-199" on="1"/>
        <pt x="636" y="-205" on="0"/>
        <pt x="682" y="-212" on="0"/>
        <pt x="706" y="-212" on="1"/>
        <pt x="752" y="-212" on="0"/>
        <pt x="828" y="-121" on="0"/>
        <pt x="845" y="-40" on="1"/>
        <pt x="853" y="0" on="1"/>
        <pt x="523" y="954" on="1"/>
        <pt x="517" y="954" on="1"/>
        <pt x="326" y="0" on="1"/>
        <pt x="37" y="0" on="1"/>
        <pt x="328" y="1456" on="1"/>
        <pt x="617" y="1456" on="1"/>
        <pt x="947" y="503" on="1"/>
        <pt x="953" y="503" on="1"/>
        <pt x="1144" y="1456" on="1"/>
      </contour>
    </TTGlyph>
    <TTGlyph name="Eogonek" xMin="42" yMin="-424" xMax="1266" yMax="1456">
      <component glyphName="E" x="0" y="0" flags="0x204"/>
      <component glyphName="ogonek" x="422" y="0" flags="0x4"/>
    </TTGlyph>
    <TTGlyph name="Eogonek.smcp" xMin="36" yMin="-424" xMax="1067" yMax="1165">
      <component glyphName="E.smcp" x="0" y="0" flags="0x204"/>
      <component glyphName="ogonek" x="386" y="0" flags="0x4"/>
    </TTGlyph>
    <TTGlyph name="Epsilon" xMin="42" yMin="0" xMax="1266" yMax="1456">
      <component glyphName="E" x="0" y="0" flags="0x204"/>
    </TTGlyph>
    <TTGlyph name="Epsilontonos" xMin="43" yMin="0" xMax="1366" yMax="1636">
      <component glyphName="E" x="100" y="0" flags="0x4"/>
      <component glyphName="tonos" x="-356" y="2" flags="0x4"/>
    </TTGlyph>
    <TTGlyph name="Eta" xMin="42" yMin="0" xMax="1437" yMax="1456">
      <component glyphName="H" x="0" y="0" flags="0x204"/>
    </TTGlyph>
    <TTGlyph name="Etatonos" xMin="83" yMin="0" xMax="1537" yMax="1634">
      <component glyphName="H" x="100" y="0" flags="0x4"/>
      <component glyphName="tonos" x="-316" y="0" flags="0x4"/>
    </TTGlyph>
    <TTGlyph name="Eth" xMin="72" yMin="0" xMax="1334" yMax="1456">
      <contour>
        <pt x="72" y="0" on="1"/>
        <pt x="202" y="652" on="1"/>
        <pt x="77" y="652" on="1"/>
        <pt x="113" y="833" on="1"/>
        <pt x="238" y="833" on="1"/>
        <pt x="363" y="1456" on="1"/>
        <pt x="798" y="1456" on="1"/>
        <pt x="1034" y="1456" on="0"/>
        <pt x="1334" y="1098" on="0"/>
        <pt x="1283" y="838" on="1"/>
        <pt x="1234" y="597" on="1"/>
        <pt x="1176" y="309" on="0"/>
        <pt x="832" y="0" on="0"/>
        <pt x="581" y="0" on="1"/>
      </contour>
      <contour>
        <pt x="707" y="652" on="1"/>
        <pt x="490" y="652" on="1"/>
        <pt x="405" y="224" on="1"/>
        <pt x="611" y="224" on="1"/>
        <pt x="740" y="224" on="0"/>
        <pt x="910" y="424" on="0"/>
        <pt x="945" y="597" on="1"/>
        <pt x="994" y="840" on="1"/>
        <pt x="1029" y="1017" on="0"/>
        <pt x="885" y="1231" on="0"/>
        <pt x="738" y="1231" on="1"/>
        <pt x="606" y="1231" on="1"/>
        <pt x="526" y="833" on="1"/>
        <pt x="743" y="833" on="1"/>
      </contour>
    </TTGlyph>
    <TTGlyph name="Eth.smcp" xMin="-11" yMin="0" xMax="1134" yMax="1165">
      <component glyphName="D.smcp" x="0" y="0" flags="0x204"/>
      <component glyphName="crossbar" x="-209" y="-142" flags="0x4"/>
    </TTGlyph>
    <TTGlyph name="Euro" xMin="77" yMin="-21" xMax="1147" yMax="1477">
      <contour>
        <pt x="885" y="455" on="1"/>
        <pt x="497" y="455" on="1"/>
        <pt x="496" y="447" on="1"/>
        <pt x="473" y="336" on="0"/>
        <pt x="564" y="203" on="0"/>
        <pt x="673" y="203" on="1"/>
        <pt x="723" y="203" on="0"/>
        <pt x="834" y="220" on="0"/>
        <pt x="884" y="237" on="1"/>
        <pt x="860" y="10" on="1"/>
        <pt x="802" y="-5" on="0"/>
        <pt x="686" y="-21" on="0"/>
        <pt x="628" y="-21" on="1"/>
        <pt x="413" y="-21" on="0"/>
        <pt x="168" y="253" on="0"/>
        <pt x="208" y="447" on="1"/>
        <pt x="209" y="455" on="1"/>
        <pt x="77" y="455" on="1"/>
        <pt x="116" y="655" on="1"/>
        <pt x="248" y="655" on="1"/>
        <pt x="271" y="771" on="1"/>
        <pt x="139" y="771" on="1"/>
        <pt x="180" y="971" on="1"/>
        <pt x="313" y="971" on="1"/>
        <pt x="316" y="984" on="1"/>
        <pt x="359" y="1207" on="0"/>
        <pt x="691" y="1477" on="0"/>
        <pt x="925" y="1477" on="1"/>
        <pt x="977" y="1477" on="0"/>
        <pt x="1088" y="1460" on="0"/>
        <pt x="1147" y="1446" on="1"/>
        <pt x="1080" y="1217" on="1"/>
        <pt x="1034" y="1233" on="0"/>
        <pt x="933" y="1252" on="0"/>
        <pt x="880" y="1252" on="1"/>
        <pt x="782" y="1252" on="0"/>
        <pt x="624" y="1091" on="0"/>
        <pt x="604" y="986" on="1"/>
        <pt x="601" y="971" on="1"/>
        <pt x="988" y="971" on="1"/>
        <pt x="947" y="771" on="1"/>
        <pt x="559" y="771" on="1"/>
        <pt x="536" y="655" on="1"/>
        <pt x="924" y="655" on="1"/>
      </contour>
    </TTGlyph>
    <TTGlyph name="F" xMin="42" yMin="0" xMax="1274" yMax="1456">
      <contour>
        <pt x="1009" y="605" on="1"/>
        <pt x="451" y="605" on="1"/>
        <pt x="330" y="0" on="1"/>
        <pt x="42" y="0" on="1"/>
        <pt x="333" y="1456" on="1"/>
        <pt x="1274" y="1456" on="1"/>
        <pt x="1229" y="1231" on="1"/>
        <pt x="576" y="1231" on="1"/>
        <pt x="496" y="830" on="1"/>
        <pt x="1054" y="830" on="1"/>
      </contour>
    </TTGlyph>
    <TTGlyph name="F.smcp" xMin="36" yMin="0" xMax="1090" yMax="1165">
      <contour>
        <pt x="868" y="462" on="1"/>
        <pt x="417" y="462" on="1"/>
        <pt x="325" y="0" on="1"/>
        <pt x="36" y="0" on="1"/>
        <pt x="269" y="1165" on="1"/>
        <pt x="1090" y="1165" on="1"/>
        <pt x="1045" y="942" on="1"/>
        <pt x="513" y="942" on="1"/>
        <pt x="462" y="686" on="1"/>
        <pt x="913" y="686" on="1"/>
      </contour>
    </TTGlyph>
    <TTGlyph name="G" xMin="70" yMin="-21" xMax="1305" yMax="1477">
      <contour>
        <pt x="1128" y="199" on="1"/>
        <pt x="1048" y="113" on="0"/>
        <pt x="766" y="-21" on="0"/>
        <pt x="569" y="-21" on="1"/>
        <pt x="336" y="-21" on="0"/>
        <pt x="70" y="316" on="0"/>
        <pt x="122" y="576" on="1"/>
        <pt x="183" y="880" on="1"/>
        <pt x="239" y="1161" on="0"/>
        <pt x="601" y="1477" on="0"/>
        <pt x="845" y="1477" on="1"/>
        <pt x="1081" y="1477" on="0"/>
        <pt x="1305" y="1218" on="0"/>
        <pt x="1283" y="1007" on="1"/>
        <pt x="1280" y="1001" on="1"/>
        <pt x="1008" y="1001" on="1"/>
        <pt x="1014" y="1121" on="0"/>
        <pt x="925" y="1252" on="0"/>
        <pt x="808" y="1252" on="1"/>
        <pt x="697" y="1252" on="0"/>
        <pt x="502" y="1041" on="0"/>
        <pt x="470" y="882" on="1"/>
        <pt x="409" y="576" on="1"/>
        <pt x="373" y="400" on="0"/>
        <pt x="484" y="203" on="0"/>
        <pt x="614" y="203" on="1"/>
        <pt x="698" y="203" on="0"/>
        <pt x="821" y="246" on="0"/>
        <pt x="855" y="276" on="1"/>
        <pt x="908" y="540" on="1"/>
        <pt x="681" y="540" on="1"/>
        <pt x="721" y="742" on="1"/>
        <pt x="1236" y="742" on="1"/>
      </contour>
    </TTGlyph>
    <TTGlyph name="G.smcp" xMin="55" yMin="-17" xMax="1160" yMax="1181">
      <contour>
        <pt x="1019" y="161" on="1"/>
        <pt x="940" y="86" on="0"/>
        <pt x="690" y="-17" on="0"/>
        <pt x="507" y="-17" on="1"/>
        <pt x="298" y="-17" on="0"/>
        <pt x="55" y="253" on="0"/>
        <pt x="97" y="461" on="1"/>
        <pt x="146" y="704" on="1"/>
        <pt x="190" y="928" on="0"/>
        <pt x="512" y="1181" on="0"/>
        <pt x="733" y="1181" on="1"/>
        <pt x="938" y="1181" on="0"/>
        <pt x="1160" y="981" on="0"/>
        <pt x="1120" y="806" on="1"/>
        <pt x="1118" y="800" on="1"/>
        <pt x="839" y="800" on="1"/>
        <pt x="856" y="882" on="0"/>
        <pt x="786" y="958" on="0"/>
        <pt x="689" y="958" on="1"/>
        <pt x="601" y="958" on="0"/>
        <pt x="455" y="814" on="0"/>
        <pt x="434" y="705" on="1"/>
        <pt x="385" y="461" on="1"/>
        <pt x="360" y="340" on="0"/>
        <pt x="447" y="205" on="0"/>
        <pt x="551" y="205" on="1"/>
        <pt x="621" y="205" on="0"/>
        <pt x="718" y="230" on="0"/>
        <pt x="750" y="250" on="1"/>
        <pt x="786" y="431" on="1"/>
        <pt x="590" y="431" on="1"/>
        <pt x="629" y="624" on="1"/>
        <pt x="1112" y="624" on="1"/>
      </contour>
    </TTGlyph>
    <TTGlyph name="Gamma" xMin="42" yMin="0" xMax="1222" yMax="1456">
      <contour>
        <pt x="1177" y="1231" on="1"/>
        <pt x="577" y="1231" on="1"/>
        <pt x="331" y="0" on="1"/>
        <pt x="42" y="0" on="1"/>
        <pt x="333" y="1456" on="1"/>
        <pt x="1222" y="1456" on="1"/>
      </contour>
    </TTGlyph>
    <TTGlyph name="Gbreve" xMin="70" yMin="-21" xMax="1305" yMax="1917">
      <component glyphName="G" x="0" y="0" flags="0x204"/>
      <component glyphName="breve" x="327" y="461" flags="0x4"/>
    </TTGlyph>
    <TTGlyph name="Gbreve.smcp" xMin="55" yMin="-17" xMax="1160" yMax="1589">
      <component glyphName="G.smcp" x="0" y="0" flags="0x204"/>
      <component glyphName="breve" x="206" y="133" flags="0x4"/>
    </TTGlyph>
    <TTGlyph name="Gcircumflex" xMin="70" yMin="-21" xMax="1305" yMax="1879">
      <component glyphName="G" x="0" y="0" flags="0x204"/>
      <component glyphName="circumflex" x="223" y="361" flags="0x4"/>
    </TTGlyph>
    <TTGlyph name="Gcircumflex.smcp" xMin="55" yMin="-17" xMax="1160" yMax="1551">
      <component glyphName="G.smcp" x="0" y="0" flags="0x204"/>
      <component glyphName="circumflex" x="102" y="33" flags="0x4"/>
    </TTGlyph>
    <TTGlyph name="Gcommaaccent" xMin="70" yMin="-501" xMax="1305" yMax="1477">
      <component glyphName="G" x="0" y="0" flags="0x204"/>
      <component glyphName="commaaccent" x="356" y="-377" flags="0x4"/>
    </TTGlyph>
    <TTGlyph name="Gcommaaccent.smcp" xMin="55" yMin="-500" xMax="1160" yMax="1181">
      <component glyphName="G.smcp" x="0" y="0" flags="0x204"/>
      <component glyphName="commaaccent" x="299" y="-376" flags="0x4"/>
    </TTGlyph>
    <TTGlyph name="H" xMin="42" yMin="0" xMax="1437" yMax="1456">
      <contour>
        <pt x="1146" y="0" on="1"/>
        <pt x="859" y="0" on="1"/>
        <pt x="980" y="605" on="1"/>
        <pt x="451" y="605" on="1"/>
        <pt x="330" y="0" on="1"/>
        <pt x="42" y="0" on="1"/>
        <pt x="333" y="1456" on="1"/>
        <pt x="621" y="1456" on="1"/>
        <pt x="496" y="830" on="1"/>
        <pt x="1025" y="830" on="1"/>
        <pt x="1150" y="1456" on="1"/>
        <pt x="1437" y="1456" on="1"/>
      </contour>
    </TTGlyph>
    <TTGlyph name="H.smcp" xMin="36" yMin="0" xMax="1259" yMax="1165">
      <contour>
        <pt x="1026" y="0" on="1"/>
        <pt x="738" y="0" on="1"/>
        <pt x="829" y="458" on="1"/>
        <pt x="416" y="458" on="1"/>
        <pt x="325" y="0" on="1"/>
        <pt x="36" y="0" on="1"/>
        <pt x="269" y="1165" on="1"/>
        <pt x="558" y="1165" on="1"/>
        <pt x="461" y="682" on="1"/>
        <pt x="874" y="682" on="1"/>
        <pt x="971" y="1165" on="1"/>
        <pt x="1259" y="1165" on="1"/>
      </contour>
    </TTGlyph>
    <TTGlyph name="Hbar" xMin="44" yMin="0" xMax="1503" yMax="1456">
      <contour>
        <pt x="1387" y="1199" on="1"/>
        <pt x="1503" y="1199" on="1"/>
        <pt x="1469" y="1028" on="1"/>
        <pt x="1353" y="1028" on="1"/>
        <pt x="1148" y="0" on="1"/>
        <pt x="861" y="0" on="1"/>
        <pt x="982" y="605" on="1"/>
        <pt x="453" y="605" on="1"/>
        <pt x="332" y="0" on="1"/>
        <pt x="44" y="0" on="1"/>
        <pt x="249" y="1028" on="1"/>
        <pt x="141" y="1028" on="1"/>
        <pt x="175" y="1199" on="1"/>
        <pt x="283" y="1199" on="1"/>
        <pt x="335" y="1456" on="1"/>
        <pt x="623" y="1456" on="1"/>
        <pt x="571" y="1199" on="1"/>
        <pt x="1100" y="1199" on="1"/>
        <pt x="1152" y="1456" on="1"/>
        <pt x="1439" y="1456" on="1"/>
      </contour>
      <contour>
        <pt x="498" y="830" on="1"/>
        <pt x="1027" y="830" on="1"/>
        <pt x="1066" y="1028" on="1"/>
        <pt x="537" y="1028" on="1"/>
      </contour>
    </TTGlyph>
    <TTGlyph name="Hcircumflex" xMin="42" yMin="0" xMax="1437" yMax="1858">
      <component glyphName="H" x="0" y="0" flags="0x204"/>
      <component glyphName="circumflex" x="265" y="340" flags="0x4"/>
    </TTGlyph>
    <TTGlyph name="Hcircumflex.smcp" xMin="36" yMin="0" xMax="1259" yMax="1535">
      <component glyphName="H.smcp" x="0" y="0" flags="0x204"/>
      <component glyphName="circumflex" x="126" y="17" flags="0x4"/>
    </TTGlyph>
    <TTGlyph name="I" xMin="57" yMin="0" xMax="636" yMax="1456">
      <contour>
        <pt x="345" y="0" on="1"/>
        <pt x="57" y="0" on="1"/>
        <pt x="348" y="1456" on="1"/>
        <pt x="636" y="1456" on="1"/>
      </contour>
    </TTGlyph>
    <TTGlyph name="I.smcp" xMin="36" yMin="0" xMax="558" yMax="1165">
      <contour>
        <pt x="325" y="0" on="1"/>
        <pt x="36" y="0" on="1"/>
        <pt x="269" y="1165" on="1"/>
        <pt x="558" y="1165" on="1"/>
      </contour>
    </TTGlyph>
    <TTGlyph name="IJ" xMin="57" yMin="-21" xMax="1757" yMax="1456">
      <component glyphName="I" x="0" y="0" flags="0x4"/>
      <component glyphName="J" x="574" y="0" flags="0x4"/>
    </TTGlyph>
    <TTGlyph name="Iacute" xMin="57" yMin="0" xMax="901" yMax="1826">
      <component glyphName="I" x="0" y="0" flags="0x204"/>
      <component glyphName="acute" x="142" y="348" flags="0x4"/>
    </TTGlyph>
    <TTGlyph name="Iacute.smcp" xMin="36" yMin="0" xMax="816" yMax="1503">
      <component glyphName="I.smcp" x="0" y="0" flags="0x204"/>
      <component glyphName="acute" x="57" y="25" flags="0x4"/>
    </TTGlyph>
    <TTGlyph name="Ibreve" xMin="57" yMin="0" xMax="892" yMax="1896">
      <component glyphName="I" x="0" y="0" flags="0x204"/>
      <component glyphName="breve" x="-20" y="440" flags="0x4"/>
    </TTGlyph>
    <TTGlyph name="Ibreve.smcp" xMin="36" yMin="0" xMax="807" yMax="1573">
      <component glyphName="I.smcp" x="0" y="0" flags="0x204"/>
      <component glyphName="breve" x="-105" y="117" flags="0x4"/>
    </TTGlyph>
    <TTGlyph name="Icircumflex" xMin="57" yMin="0" xMax="880" yMax="1858">
      <component glyphName="I" x="0" y="0" flags="0x204"/>
      <component glyphName="circumflex" x="-124" y="340" flags="0x4"/>
    </TTGlyph>
    <TTGlyph name="Icircumflex.smcp" xMin="36" yMin="0" xMax="795" yMax="1535">
      <component glyphName="I.smcp" x="0" y="0" flags="0x204"/>
      <component glyphName="circumflex" x="-209" y="17" flags="0x4"/>
    </TTGlyph>
    <TTGlyph name="Idieresis" xMin="57" yMin="0" xMax="917" yMax="1805">
      <component glyphName="I" x="0" y="0" flags="0x204"/>
      <component glyphName="dieresis" x="-120" y="349" flags="0x4"/>
    </TTGlyph>
    <TTGlyph name="Idieresis.smcp" xMin="36" yMin="0" xMax="832" yMax="1482">
      <component glyphName="I.smcp" x="0" y="0" flags="0x204"/>
      <component glyphName="dieresis" x="-205" y="26" flags="0x4"/>
    </TTGlyph>
    <TTGlyph name="Idotaccent" xMin="57" yMin="0" xMax="715" yMax="1842">
      <component glyphName="I" x="0" y="0" flags="0x204"/>
      <component glyphName="dotaccent" x="68" y="374" flags="0x4"/>
    </TTGlyph>
    <TTGlyph name="Idotaccent.smcp" xMin="36" yMin="0" xMax="632" yMax="1519">
      <component glyphName="I.smcp" x="0" y="0" flags="0x204"/>
      <component glyphName="dotaccent" x="-15" y="51" flags="0x4"/>
    </TTGlyph>
    <TTGlyph name="Igrave" xMin="57" yMin="0" xMax="661" yMax="1826">
      <component glyphName="I" x="0" y="0" flags="0x204"/>
      <component glyphName="grave" x="-24" y="348" flags="0x4"/>
    </TTGlyph>
    <TTGlyph name="Igrave.smcp" xMin="36" yMin="0" xMax="576" yMax="1503">
      <component glyphName="I.smcp" x="0" y="0" flags="0x204"/>
      <component glyphName="grave" x="-109" y="25" flags="0x4"/>
    </TTGlyph>
    <TTGlyph name="Imacron" xMin="57" yMin="0" xMax="897" yMax="1778">
      <component glyphName="I" x="0" y="0" flags="0x204"/>
      <component glyphName="macron" x="-100" y="321" flags="0x4"/>
    </TTGlyph>
    <TTGlyph name="Imacron.smcp" xMin="36" yMin="0" xMax="812" yMax="1457">
      <component glyphName="I.smcp" x="0" y="0" flags="0x204"/>
      <component glyphName="macron" x="-185" y="0" flags="0x4"/>
    </TTGlyph>
    <TTGlyph name="Iogonek" xMin="-106" yMin="-424" xMax="636" yMax="1456">
      <component glyphName="I" x="0" y="0" flags="0x204"/>
      <component glyphName="ogonek" x="-40" y="0" flags="0x4"/>
    </TTGlyph>
    <TTGlyph name="Iogonek.smcp" xMin="-126" yMin="-424" xMax="558" yMax="1165">
      <component glyphName="I.smcp" x="0" y="0" flags="0x204"/>
      <component glyphName="ogonek" x="-60" y="0" flags="0x4"/>
    </TTGlyph>
    <TTGlyph name="Iota" xMin="57" yMin="0" xMax="636" yMax="1456">
      <component glyphName="I" x="0" y="0" flags="0x204"/>
    </TTGlyph>
    <TTGlyph name="Iotadieresis" xMin="57" yMin="0" xMax="917" yMax="1805">
      <component glyphName="I" x="0" y="0" flags="0x204"/>
      <component glyphName="dieresis" x="-120" y="349" flags="0x4"/>
    </TTGlyph>
    <TTGlyph name="Iotatonos" xMin="90" yMin="0" xMax="736" yMax="1636">
      <component glyphName="I" x="100" y="0" flags="0x4"/>
      <component glyphName="tonos" x="-309" y="2" flags="0x4"/>
    </TTGlyph>
    <TTGlyph name="Itilde" xMin="57" yMin="0" xMax="917" yMax="1901">
      <component glyphName="I" x="0" y="0" flags="0x204"/>
      <component glyphName="tilde" x="-73" y="372" flags="0x4"/>
    </TTGlyph>
    <TTGlyph name="Itilde.smcp" xMin="36" yMin="0" xMax="832" yMax="1578">
      <component glyphName="I.smcp" x="0" y="0" flags="0x204"/>
      <component glyphName="tilde" x="-158" y="49" flags="0x4"/>
    </TTGlyph>
    <TTGlyph name="J" xMin="13" yMin="-21" xMax="1183" yMax="1456">
      <contour>
        <pt x="896" y="1456" on="1"/>
        <pt x="1183" y="1456" on="1"/>
        <pt x="979" y="437" on="1"/>
        <pt x="934" y="212" on="0"/>
        <pt x="634" y="-21" on="0"/>
        <pt x="432" y="-21" on="1"/>
        <pt x="231" y="-21" on="0"/>
        <pt x="13" y="205" on="0"/>
        <pt x="61" y="418" on="1"/>
        <pt x="63" y="423" on="1"/>
        <pt x="344" y="423" on="1"/>
        <pt x="319" y="300" on="0"/>
        <pt x="394" y="203" on="0"/>
        <pt x="477" y="203" on="1"/>
        <pt x="543" y="203" on="0"/>
        <pt x="670" y="330" on="0"/>
        <pt x="692" y="437" on="1"/>
      </contour>
    </TTGlyph>
    <TTGlyph name="J.smcp" xMin="-21" yMin="-19" xMax="1027" yMax="1165">
      <contour>
        <pt x="739" y="1165" on="1"/>
        <pt x="1027" y="1165" on="1"/>
        <pt x="871" y="383" on="1"/>
        <pt x="831" y="188" on="0"/>
        <pt x="559" y="-19" on="0"/>
        <pt x="371" y="-19" on="1"/>
        <pt x="184" y="-19" on="0"/>
        <pt x="-21" y="180" on="0"/>
        <pt x="19" y="362" on="1"/>
        <pt x="21" y="367" on="1"/>
        <pt x="303" y="367" on="1"/>
        <pt x="285" y="280" on="0"/>
        <pt x="352" y="204" on="0"/>
        <pt x="416" y="204" on="1"/>
        <pt x="469" y="204" on="0"/>
        <pt x="567" y="303" on="0"/>
        <pt x="583" y="383" on="1"/>
      </contour>
    </TTGlyph>
    <TTGlyph name="Jcircumflex" xMin="13" yMin="-21" xMax="1408" yMax="1854">
      <component glyphName="J" x="0" y="0" flags="0x204"/>
      <component glyphName="circumflex" x="404" y="336" flags="0x4"/>
    </TTGlyph>
    <TTGlyph name="Jcircumflex.smcp" xMin="-21" yMin="-19" xMax="1255" yMax="1535">
      <component glyphName="J.smcp" x="0" y="0" flags="0x204"/>
      <component glyphName="circumflex" x="251" y="17" flags="0x4"/>
    </TTGlyph>
    <TTGlyph name="K" xMin="36" yMin="0" xMax="1389" yMax="1456">
      <contour>
        <pt x="560" y="604" on="1"/>
        <pt x="446" y="604" on="1"/>
        <pt x="326" y="0" on="1"/>
        <pt x="36" y="0" on="1"/>
        <pt x="327" y="1456" on="1"/>
        <pt x="617" y="1456" on="1"/>
        <pt x="498" y="861" on="1"/>
        <pt x="613" y="861" on="1"/>
        <pt x="1013" y="1456" on="1"/>
        <pt x="1389" y="1456" on="1"/>
        <pt x="820" y="730" on="1"/>
        <pt x="1115" y="0" on="1"/>
        <pt x="784" y="0" on="1"/>
      </contour>
    </TTGlyph>
    <TTGlyph name="K.smcp" xMin="36" yMin="0" xMax="1206" yMax="1165">
      <contour>
        <pt x="509" y="446" on="1"/>
        <pt x="414" y="446" on="1"/>
        <pt x="325" y="0" on="1"/>
        <pt x="36" y="0" on="1"/>
        <pt x="269" y="1165" on="1"/>
        <pt x="558" y="1165" on="1"/>
        <pt x="466" y="707" on="1"/>
        <pt x="540" y="707" on="1"/>
        <pt x="846" y="1165" on="1"/>
        <pt x="1203" y="1165" on="1"/>
        <pt x="1206" y="1160" on="1"/>
        <pt x="775" y="635" on="1"/>
        <pt x="990" y="0" on="1"/>
        <pt x="621" y="0" on="1"/>
      </contour>
    </TTGlyph>
    <TTGlyph name="Kappa" xMin="36" yMin="0" xMax="1389" yMax="1456">
      <component glyphName="K" x="0" y="0" flags="0x4"/>
    </TTGlyph>
    <TTGlyph name="Kcommaaccent" xMin="36" yMin="-489" xMax="1389" yMax="1456">
      <component glyphName="K" x="0" y="0" flags="0x4"/>
      <component glyphName="commaaccent" x="322" y="-365" flags="0x4"/>
    </TTGlyph>
    <TTGlyph name="Kcommaaccent.smcp" xMin="36" yMin="-491" xMax="1206" yMax="1165">
      <component glyphName="K.smcp" x="0" y="0" flags="0x204"/>
      <component glyphName="commaaccent" x="233" y="-367" flags="0x4"/>
    </TTGlyph>
    <TTGlyph name="L" xMin="42" yMin="0" xMax="971" yMax="1456">
      <contour>
        <pt x="375" y="224" on="1"/>
        <pt x="971" y="224" on="1"/>
        <pt x="926" y="0" on="1"/>
        <pt x="42" y="0" on="1"/>
        <pt x="333" y="1456" on="1"/>
        <pt x="621" y="1456" on="1"/>
      </contour>
    </TTGlyph>
    <TTGlyph name="L.smcp" xMin="36" yMin="0" xMax="808" yMax="1165">
      <contour>
        <pt x="369" y="222" on="1"/>
        <pt x="808" y="222" on="1"/>
        <pt x="764" y="0" on="1"/>
        <pt x="36" y="0" on="1"/>
        <pt x="269" y="1165" on="1"/>
        <pt x="558" y="1165" on="1"/>
      </contour>
    </TTGlyph>
    <TTGlyph name="Lacute" xMin="42" yMin="0" xMax="971" yMax="1803">
      <component glyphName="L" x="0" y="0" flags="0x204"/>
      <component glyphName="acute" x="125" y="325" flags="0x4"/>
    </TTGlyph>
    <TTGlyph name="Lacute.smcp" xMin="36" yMin="0" xMax="808" yMax="1493">
      <component glyphName="L.smcp" x="0" y="0" flags="0x204"/>
      <component glyphName="acute" x="46" y="15" flags="0x4"/>
    </TTGlyph>
    <TTGlyph name="Lambda" xMin="-67" yMin="0" xMax="1141" yMax="1456">
      <contour>
        <pt x="765" y="1126" on="1"/>
        <pt x="759" y="1127" on="1"/>
        <pt x="235" y="0" on="1"/>
        <pt x="-67" y="0" on="1"/>
        <pt x="681" y="1456" on="1"/>
        <pt x="975" y="1456" on="1"/>
        <pt x="1141" y="0" on="1"/>
        <pt x="840" y="0" on="1"/>
      </contour>
    </TTGlyph>
    <TTGlyph name="Lcaron" xMin="42" yMin="0" xMax="1031" yMax="1458">
      <component glyphName="L" x="0" y="0" flags="0x204"/>
      <component glyphName="commaaccent" x="764" y="1186" flags="0x4"/>
    </TTGlyph>
    <TTGlyph name="Lcaron.smcp" xMin="36" yMin="0" xMax="905" yMax="1166">
      <component glyphName="L.smcp" x="0" y="0" flags="0x204"/>
      <component glyphName="commaaccent" x="638" y="894" flags="0x4"/>
    </TTGlyph>
    <TTGlyph name="Lcommaaccent" xMin="42" yMin="-488" xMax="971" yMax="1456">
      <component glyphName="L" x="0" y="0" flags="0x204"/>
      <component glyphName="commaaccent" x="284" y="-364" flags="0x4"/>
    </TTGlyph>
    <TTGlyph name="Lcommaaccent.smcp" xMin="36" yMin="-490" xMax="808" yMax="1165">
      <component glyphName="L.smcp" x="0" y="0" flags="0x204"/>
      <component glyphName="commaaccent" x="177" y="-366" flags="0x4"/>
    </TTGlyph>
    <TTGlyph name="Ldot" xMin="42" yMin="0" xMax="971" yMax="1456">
      <component glyphName="L" x="0" y="0" flags="0x204"/>
      <component glyphName="dotaccent" x="292" y="-546" flags="0x4"/>
    </TTGlyph>
    <TTGlyph name="Ldot.smcp" xMin="36" yMin="0" xMax="843" yMax="1165">
      <component glyphName="L.smcp" x="0" y="0" flags="0x204"/>
      <component glyphName="dotaccent" x="196" y="-713" flags="0x4"/>
    </TTGlyph>
    <TTGlyph name="Lslash" xMin="31" yMin="0" xMax="960" yMax="1456">
      <contour>
        <pt x="496" y="886" on="1"/>
        <pt x="731" y="954" on="1"/>
        <pt x="692" y="759" on="1"/>
        <pt x="457" y="691" on="1"/>
        <pt x="364" y="224" on="1"/>
        <pt x="960" y="224" on="1"/>
        <pt x="915" y="0" on="1"/>
        <pt x="31" y="0" on="1"/>
        <pt x="151" y="603" on="1"/>
        <pt x="45" y="572" on="1"/>
        <pt x="84" y="767" on="1"/>
        <pt x="190" y="798" on="1"/>
        <pt x="322" y="1456" on="1"/>
        <pt x="610" y="1456" on="1"/>
      </contour>
    </TTGlyph>
    <TTGlyph name="M" xMin="42" yMin="0" xMax="1752" yMax="1456">
      <contour>
        <pt x="709" y="1456" on="1"/>
        <pt x="824" y="384" on="1"/>
        <pt x="830" y="383" on="1"/>
        <pt x="1376" y="1456" on="1"/>
        <pt x="1752" y="1456" on="1"/>
        <pt x="1461" y="0" on="1"/>
        <pt x="1173" y="0" on="1"/>
        <pt x="1260" y="434" on="1"/>
        <pt x="1409" y="1046" on="1"/>
        <pt x="1404" y="1048" on="1"/>
        <pt x="847" y="0" on="1"/>
        <pt x="654" y="0" on="1"/>
        <pt x="518" y="1043" on="1"/>
        <pt x="512" y="1043" on="1"/>
        <pt x="417" y="434" on="1"/>
        <pt x="330" y="0" on="1"/>
        <pt x="42" y="0" on="1"/>
        <pt x="333" y="1456" on="1"/>
      </contour>
    </TTGlyph>
    <TTGlyph name="M.smcp" xMin="36" yMin="0" xMax="1478" yMax="1165">
      <contour>
        <pt x="1090" y="661" on="1"/>
        <pt x="1084" y="663" on="1"/>
        <pt x="734" y="0" on="1"/>
        <pt x="541" y="0" on="1"/>
        <pt x="458" y="640" on="1"/>
        <pt x="452" y="640" on="1"/>
        <pt x="325" y="0" on="1"/>
        <pt x="36" y="0" on="1"/>
        <pt x="269" y="1165" on="1"/>
        <pt x="626" y="1165" on="1"/>
        <pt x="702" y="343" on="1"/>
        <pt x="708" y="342" on="1"/>
        <pt x="1117" y="1165" on="1"/>
        <pt x="1478" y="1165" on="1"/>
        <pt x="1245" y="0" on="1"/>
        <pt x="958" y="0" on="1"/>
      </contour>
    </TTGlyph>
    <TTGlyph name="Mu" xMin="42" yMin="0" xMax="1752" yMax="1456">
      <component glyphName="M" x="0" y="0" flags="0x204"/>
    </TTGlyph>
    <TTGlyph name="N" xMin="42" yMin="0" xMax="1437" yMax="1456">
      <contour>
        <pt x="1146" y="0" on="1"/>
        <pt x="858" y="0" on="1"/>
        <pt x="529" y="968" on="1"/>
        <pt x="523" y="968" on="1"/>
        <pt x="330" y="0" on="1"/>
        <pt x="42" y="0" on="1"/>
        <pt x="333" y="1456" on="1"/>
        <pt x="621" y="1456" on="1"/>
        <pt x="949" y="489" on="1"/>
        <pt x="955" y="489" on="1"/>
        <pt x="1149" y="1456" on="1"/>
        <pt x="1437" y="1456" on="1"/>
      </contour>
    </TTGlyph>
    <TTGlyph name="N.smcp" xMin="36" yMin="0" xMax="1249" yMax="1165">
      <contour>
        <pt x="1016" y="0" on="1"/>
        <pt x="728" y="0" on="1"/>
        <pt x="468" y="688" on="1"/>
        <pt x="462" y="687" on="1"/>
        <pt x="325" y="0" on="1"/>
        <pt x="36" y="0" on="1"/>
        <pt x="269" y="1165" on="1"/>
        <pt x="558" y="1165" on="1"/>
        <pt x="817" y="478" on="1"/>
        <pt x="823" y="479" on="1"/>
        <pt x="961" y="1165" on="1"/>
        <pt x="1249" y="1165" on="1"/>
      </contour>
    </TTGlyph>
    <TTGlyph name="Nacute" xMin="42" yMin="0" xMax="1437" yMax="1826">
      <component glyphName="N" x="0" y="0" flags="0x204"/>
      <component glyphName="acute" x="534" y="348" flags="0x4"/>
    </TTGlyph>
    <TTGlyph name="Nacute.smcp" xMin="36" yMin="0" xMax="1249" yMax="1503">
      <component glyphName="N.smcp" x="0" y="0" flags="0x204"/>
      <component glyphName="acute" x="389" y="25" flags="0x4"/>
    </TTGlyph>
    <TTGlyph name="Ncaron" xMin="42" yMin="0" xMax="1437" yMax="1873">
      <component glyphName="N" x="0" y="0" flags="0x204"/>
      <component glyphName="caron" x="289" y="349" flags="0x4"/>
    </TTGlyph>
    <TTGlyph name="Ncaron.smcp" xMin="36" yMin="0" xMax="1249" yMax="1550">
      <component glyphName="N.smcp" x="0" y="0" flags="0x204"/>
      <component glyphName="caron" x="144" y="26" flags="0x4"/>
    </TTGlyph>
    <TTGlyph name="Ncommaaccent" xMin="42" yMin="-488" xMax="1437" yMax="1456">
      <component glyphName="N" x="0" y="0" flags="0x204"/>
      <component glyphName="commaaccent" x="393" y="-364" flags="0x4"/>
    </TTGlyph>
    <TTGlyph name="Ncommaaccent.smcp" xMin="36" yMin="-490" xMax="1249" yMax="1165">
      <component glyphName="N.smcp" x="0" y="0" flags="0x204"/>
      <component glyphName="commaaccent" x="312" y="-366" flags="0x4"/>
    </TTGlyph>
    <TTGlyph name="Ntilde" xMin="42" yMin="0" xMax="1437" yMax="1901">
      <component glyphName="N" x="0" y="0" flags="0x204"/>
      <component glyphName="tilde" x="317" y="372" flags="0x4"/>
    </TTGlyph>
    <TTGlyph name="Ntilde.smcp" xMin="36" yMin="0" xMax="1249" yMax="1578">
      <component glyphName="N.smcp" x="0" y="0" flags="0x204"/>
      <component glyphName="tilde" x="172" y="49" flags="0x4"/>
    </TTGlyph>
    <TTGlyph name="Nu" xMin="42" yMin="0" xMax="1437" yMax="1456">
      <component glyphName="N" x="0" y="0" flags="0x204"/>
    </TTGlyph>
    <TTGlyph name="O" xMin="71" yMin="-21" xMax="1363" yMax="1477">
      <contour>
        <pt x="1260" y="593" on="1"/>
        <pt x="1202" y="305" on="0"/>
        <pt x="847" y="-21" on="0"/>
        <pt x="592" y="-21" on="1"/>
        <pt x="355" y="-21" on="0"/>
        <pt x="71" y="340" on="0"/>
        <pt x="123" y="600" on="1"/>
        <pt x="175" y="862" on="1"/>
        <pt x="233" y="1150" on="0"/>
        <pt x="576" y="1477" on="0"/>
        <pt x="828" y="1477" on="1"/>
        <pt x="1068" y="1477" on="0"/>
        <pt x="1363" y="1113" on="0"/>
        <pt x="1312" y="855" on="1"/>
      </contour>
      <contour>
        <pt x="1024" y="857" on="1"/>
        <pt x="1059" y="1034" on="0"/>
        <pt x="922" y="1249" on="0"/>
        <pt x="783" y="1249" on="1"/>
        <pt x="663" y="1249" on="0"/>
        <pt x="497" y="1037" on="0"/>
        <pt x="463" y="864" on="1"/>
        <pt x="410" y="600" on="1"/>
        <pt x="374" y="421" on="0"/>
        <pt x="500" y="206" on="0"/>
        <pt x="637" y="206" on="1"/>
        <pt x="759" y="206" on="0"/>
        <pt x="937" y="421" on="0"/>
        <pt x="972" y="593" on="1"/>
      </contour>
    </TTGlyph>
    <TTGlyph name="O.smcp" xMin="51" yMin="-19" xMax="1159" yMax="1181">
      <contour>
        <pt x="1069" y="461" on="1"/>
        <pt x="1024" y="234" on="0"/>
        <pt x="706" y="-19" on="0"/>
        <pt x="486" y="-19" on="1"/>
        <pt x="284" y="-19" on="0"/>
        <pt x="51" y="252" on="0"/>
        <pt x="93" y="461" on="1"/>
        <pt x="142" y="704" on="1"/>
        <pt x="186" y="929" on="0"/>
        <pt x="504" y="1181" on="0"/>
        <pt x="725" y="1181" on="1"/>
        <pt x="927" y="1181" on="0"/>
        <pt x="1159" y="912" on="0"/>
        <pt x="1118" y="704" on="1"/>
      </contour>
      <contour>
        <pt x="831" y="705" on="1"/>
        <pt x="854" y="821" on="0"/>
        <pt x="775" y="958" on="0"/>
        <pt x="681" y="958" on="1"/>
        <pt x="592" y="958" on="0"/>
        <pt x="451" y="813" on="0"/>
        <pt x="430" y="705" on="1"/>
        <pt x="381" y="461" on="1"/>
        <pt x="357" y="342" on="0"/>
        <pt x="434" y="204" on="0"/>
        <pt x="531" y="204" on="1"/>
        <pt x="617" y="204" on="0"/>
        <pt x="760" y="352" on="0"/>
        <pt x="782" y="461" on="1"/>
      </contour>
    </TTGlyph>
    <TTGlyph name="OE" xMin="72" yMin="-21" xMax="1988" yMax="1477">
      <contour>
        <pt x="1699" y="0" on="1"/>
        <pt x="844" y="0" on="1"/>
        <pt x="757" y="-10" on="0"/>
        <pt x="636" y="-21" on="0"/>
        <pt x="575" y="-21" on="1"/>
        <pt x="337" y="-21" on="0"/>
        <pt x="72" y="316" on="0"/>
        <pt x="124" y="576" on="1"/>
        <pt x="185" y="880" on="1"/>
        <pt x="241" y="1162" on="0"/>
        <pt x="613" y="1477" on="0"/>
        <pt x="872" y="1477" on="1"/>
        <pt x="931" y="1477" on="0"/>
        <pt x="1067" y="1465" on="0"/>
        <pt x="1135" y="1456" on="1"/>
        <pt x="1988" y="1456" on="1"/>
        <pt x="1943" y="1231" on="1"/>
        <pt x="1298" y="1231" on="1"/>
        <pt x="1225" y="865" on="1"/>
        <pt x="1777" y="865" on="1"/>
        <pt x="1732" y="640" on="1"/>
        <pt x="1180" y="640" on="1"/>
        <pt x="1097" y="224" on="1"/>
        <pt x="1744" y="224" on="1"/>
      </contour>
      <contour>
        <pt x="620" y="204" on="1"/>
        <pt x="661" y="204" on="0"/>
        <pt x="756" y="211" on="0"/>
        <pt x="807" y="218" on="1"/>
        <pt x="1011" y="1237" on="1"/>
        <pt x="965" y="1244" on="0"/>
        <pt x="873" y="1252" on="0"/>
        <pt x="827" y="1252" on="1"/>
        <pt x="703" y="1252" on="0"/>
        <pt x="508" y="1060" on="0"/>
        <pt x="472" y="882" on="1"/>
        <pt x="411" y="576" on="1"/>
        <pt x="372" y="382" on="0"/>
        <pt x="484" y="204" on="0"/>
      </contour>
    </TTGlyph>
    <TTGlyph name="Oacute" xMin="71" yMin="-21" xMax="1363" yMax="1847">
      <component glyphName="O" x="0" y="0" flags="0x204"/>
      <component glyphName="acute" x="518" y="369" flags="0x4"/>
    </TTGlyph>
    <TTGlyph name="Oacute.smcp" xMin="51" yMin="-19" xMax="1159" yMax="1522">
      <component glyphName="O.smcp" x="0" y="0" flags="0x204"/>
      <component glyphName="acute" x="359" y="44" flags="0x4"/>
    </TTGlyph>
    <TTGlyph name="Obreve" xMin="71" yMin="-21" xMax="1363" yMax="1917">
      <component glyphName="O" x="0" y="0" flags="0x204"/>
      <component glyphName="breve" x="354" y="461" flags="0x4"/>
    </TTGlyph>
    <TTGlyph name="Obreve.smcp" xMin="51" yMin="-19" xMax="1159" yMax="1592">
      <component glyphName="O.smcp" x="0" y="0" flags="0x204"/>
      <component glyphName="breve" x="195" y="136" flags="0x4"/>
    </TTGlyph>
    <TTGlyph name="Ocircumflex" xMin="71" yMin="-21" xMax="1363" yMax="1879">
      <component glyphName="O" x="0" y="0" flags="0x204"/>
      <component glyphName="circumflex" x="250" y="361" flags="0x4"/>
    </TTGlyph>
    <TTGlyph name="Ocircumflex.smcp" xMin="51" yMin="-19" xMax="1159" yMax="1554">
      <component glyphName="O.smcp" x="0" y="0" flags="0x204"/>
      <component glyphName="circumflex" x="91" y="36" flags="0x4"/>
    </TTGlyph>
    <TTGlyph name="Odieresis" xMin="71" yMin="-21" xMax="1363" yMax="1826">
      <component glyphName="O" x="0" y="0" flags="0x204"/>
      <component glyphName="dieresis" x="254" y="370" flags="0x4"/>
    </TTGlyph>
    <TTGlyph name="Odieresis.smcp" xMin="51" yMin="-19" xMax="1159" yMax="1501">
      <component glyphName="O.smcp" x="0" y="0" flags="0x204"/>
      <component glyphName="dieresis" x="95" y="45" flags="0x4"/>
    </TTGlyph>
    <TTGlyph name="Ograve" xMin="71" yMin="-21" xMax="1363" yMax="1847">
      <component glyphName="O" x="0" y="0" flags="0x204"/>
      <component glyphName="grave" x="350" y="369" flags="0x4"/>
    </TTGlyph>
    <TTGlyph name="Ograve.smcp" xMin="51" yMin="-19" xMax="1159" yMax="1522">
      <component glyphName="O.smcp" x="0" y="0" flags="0x204"/>
      <component glyphName="grave" x="191" y="44" flags="0x4"/>
    </TTGlyph>
    <TTGlyph name="Ohorn" xMin="72" yMin="-21" xMax="1698" yMax="1617">
      <contour>
        <pt x="1262" y="597" on="1"/>
        <pt x="1205" y="312" on="0"/>
        <pt x="825" y="-21" on="0"/>
        <pt x="567" y="-21" on="1"/>
        <pt x="332" y="-21" on="0"/>
        <pt x="72" y="334" on="0"/>
        <pt x="124" y="597" on="1"/>
        <pt x="177" y="859" on="1"/>
        <pt x="233" y="1143" on="0"/>
        <pt x="608" y="1477" on="0"/>
        <pt x="865" y="1477" on="1"/>
        <pt x="979" y="1477" on="0"/>
        <pt x="1168" y="1385" on="0"/>
        <pt x="1231" y="1303" on="1"/>
        <pt x="1327" y="1332" on="0"/>
        <pt x="1461" y="1495" on="0"/>
        <pt x="1486" y="1617" on="1"/>
        <pt x="1698" y="1617" on="1"/>
        <pt x="1658" y="1415" on="0"/>
        <pt x="1464" y="1168" on="0"/>
        <pt x="1315" y="1119" on="1"/>
        <pt x="1327" y="1058" on="0"/>
        <pt x="1328" y="928" on="0"/>
        <pt x="1315" y="859" on="1"/>
      </contour>
      <contour>
        <pt x="1027" y="861" on="1"/>
        <pt x="1063" y="1042" on="0"/>
        <pt x="955" y="1249" on="0"/>
        <pt x="820" y="1249" on="1"/>
        <pt x="696" y="1249" on="0"/>
        <pt x="497" y="1028" on="0"/>
        <pt x="464" y="861" on="1"/>
        <pt x="411" y="597" on="1"/>
        <pt x="374" y="414" on="0"/>
        <pt x="478" y="206" on="0"/>
        <pt x="612" y="206" on="1"/>
        <pt x="736" y="206" on="0"/>
        <pt x="940" y="428" on="0"/>
        <pt x="974" y="597" on="1"/>
      </contour>
    </TTGlyph>
    <TTGlyph name="Ohungarumlaut" xMin="71" yMin="-21" xMax="1478" yMax="1888">
      <component glyphName="O" x="0" y="0" flags="0x204"/>
      <component glyphName="hungarumlaut" x="300" y="370" flags="0x4"/>
    </TTGlyph>
    <TTGlyph name="Ohungarumlaut.smcp" xMin="51" yMin="-19" xMax="1319" yMax="1563">
      <component glyphName="O.smcp" x="0" y="0" flags="0x204"/>
      <component glyphName="hungarumlaut" x="141" y="45" flags="0x4"/>
    </TTGlyph>
    <TTGlyph name="Omacron" xMin="71" yMin="-21" xMax="1363" yMax="1799">
      <component glyphName="O" x="0" y="0" flags="0x204"/>
      <component glyphName="macron" x="274" y="342" flags="0x4"/>
    </TTGlyph>
    <TTGlyph name="Omacron.smcp" xMin="51" yMin="-19" xMax="1159" yMax="1474">
      <component glyphName="O.smcp" x="0" y="0" flags="0x204"/>
      <component glyphName="macron" x="115" y="17" flags="0x4"/>
    </TTGlyph>
    <TTGlyph name="Omega" xMin="37" yMin="0" xMax="1317" yMax="1477">
      <contour>
        <pt x="625" y="116" on="1"/>
        <pt x="647" y="227" on="1"/>
        <pt x="648" y="231" on="1"/>
        <pt x="737" y="264" on="0"/>
        <pt x="880" y="525" on="0"/>
        <pt x="928" y="764" on="1"/>
        <pt x="947" y="858" on="1"/>
        <pt x="987" y="1061" on="0"/>
        <pt x="909" y="1249" on="0"/>
        <pt x="802" y="1249" on="1"/>
        <pt x="704" y="1249" on="0"/>
        <pt x="541" y="1045" on="0"/>
        <pt x="505" y="858" on="1"/>
        <pt x="486" y="764" on="1"/>
        <pt x="434" y="508" on="0"/>
        <pt x="475" y="264" on="0"/>
        <pt x="557" y="231" on="1"/>
        <pt x="556" y="227" on="1"/>
        <pt x="534" y="116" on="1"/>
        <pt x="511" y="0" on="1"/>
        <pt x="37" y="0" on="1"/>
        <pt x="82" y="227" on="1"/>
        <pt x="310" y="227" on="1"/>
        <pt x="215" y="318" on="0"/>
        <pt x="134" y="603" on="0"/>
        <pt x="167" y="764" on="1"/>
        <pt x="185" y="856" on="1"/>
        <pt x="243" y="1147" on="0"/>
        <pt x="603" y="1477" on="0"/>
        <pt x="847" y="1477" on="1"/>
        <pt x="1071" y="1477" on="0"/>
        <pt x="1317" y="1124" on="0"/>
        <pt x="1264" y="856" on="1"/>
        <pt x="1246" y="764" on="1"/>
        <pt x="1211" y="594" on="0"/>
        <pt x="1024" y="315" on="0"/>
        <pt x="897" y="227" on="1"/>
        <pt x="1121" y="227" on="1"/>
        <pt x="1076" y="0" on="1"/>
        <pt x="602" y="0" on="1"/>
      </contour>
    </TTGlyph>
    <TTGlyph name="Omegatonos" xMin="57" yMin="0" xMax="1337" yMax="1634">
      <component glyphName="Omega" x="20" y="0" flags="0x4"/>
      <component glyphName="tonos" x="-257" y="0" flags="0x4"/>
    </TTGlyph>
    <TTGlyph name="Omicron" xMin="71" yMin="-21" xMax="1363" yMax="1477">
      <component glyphName="O" x="0" y="0" flags="0x204"/>
    </TTGlyph>
    <TTGlyph name="Omicrontonos" xMin="91" yMin="-21" xMax="1383" yMax="1634">
      <component glyphName="O" x="20" y="0" flags="0x4"/>
      <component glyphName="tonos" x="-242" y="0" flags="0x4"/>
    </TTGlyph>
    <TTGlyph name="Oslash" xMin="78" yMin="-95" xMax="1409" yMax="1518">
      <contour>
        <pt x="1265" y="597" on="1"/>
        <pt x="1208" y="312" on="0"/>
        <pt x="828" y="-21" on="0"/>
        <pt x="570" y="-21" on="1"/>
        <pt x="500" y="-21" on="0"/>
        <pt x="375" y="14" on="0"/>
        <pt x="322" y="48" on="1"/>
        <pt x="216" y="-95" on="1"/>
        <pt x="78" y="-95" on="1"/>
        <pt x="236" y="119" on="1"/>
        <pt x="157" y="204" on="0"/>
        <pt x="98" y="452" on="0"/>
        <pt x="127" y="597" on="1"/>
        <pt x="180" y="859" on="1"/>
        <pt x="236" y="1143" on="0"/>
        <pt x="611" y="1477" on="0"/>
        <pt x="868" y="1477" on="1"/>
        <pt x="954" y="1477" on="0"/>
        <pt x="1105" y="1424" on="0"/>
        <pt x="1165" y="1375" on="1"/>
        <pt x="1271" y="1518" on="1"/>
        <pt x="1409" y="1518" on="1"/>
        <pt x="1242" y="1292" on="1"/>
        <pt x="1301" y="1207" on="0"/>
        <pt x="1342" y="985" on="0"/>
        <pt x="1318" y="859" on="1"/>
      </contour>
      <contour>
        <pt x="414" y="597" on="1"/>
        <pt x="399" y="524" on="0"/>
        <pt x="398" y="405" on="0"/>
        <pt x="412" y="366" on="1"/>
        <pt x="418" y="364" on="1"/>
        <pt x="1005" y="1158" on="1"/>
        <pt x="977" y="1202" on="0"/>
        <pt x="886" y="1249" on="0"/>
        <pt x="823" y="1249" on="1"/>
        <pt x="699" y="1249" on="0"/>
        <pt x="500" y="1028" on="0"/>
        <pt x="467" y="861" on="1"/>
      </contour>
      <contour>
        <pt x="1030" y="861" on="1"/>
        <pt x="1038" y="905" on="0"/>
        <pt x="1045" y="983" on="0"/>
        <pt x="1042" y="1012" on="1"/>
        <pt x="1037" y="1014" on="1"/>
        <pt x="473" y="253" on="1"/>
        <pt x="499" y="229" on="0"/>
        <pt x="570" y="206" on="0"/>
        <pt x="615" y="206" on="1"/>
        <pt x="739" y="206" on="0"/>
        <pt x="943" y="428" on="0"/>
        <pt x="977" y="597" on="1"/>
      </contour>
    </TTGlyph>
    <TTGlyph name="Oslashacute" xMin="78" yMin="-95" xMax="1409" yMax="1888">
      <component glyphName="Oslash" x="0" y="0" flags="0x204"/>
      <component glyphName="acute" x="537" y="410" flags="0x4"/>
    </TTGlyph>
    <TTGlyph name="Otilde" xMin="71" yMin="-21" xMax="1363" yMax="1922">
      <component glyphName="O" x="0" y="0" flags="0x204"/>
      <component glyphName="tilde" x="301" y="393" flags="0x4"/>
    </TTGlyph>
    <TTGlyph name="Otilde.smcp" xMin="51" yMin="-19" xMax="1159" yMax="1597">
      <component glyphName="O.smcp" x="0" y="0" flags="0x204"/>
      <component glyphName="tilde" x="142" y="68" flags="0x4"/>
    </TTGlyph>
    <TTGlyph name="P" xMin="42" yMin="0" xMax="1335" yMax="1456">
      <contour>
        <pt x="435" y="528" on="1"/>
        <pt x="330" y="0" on="1"/>
        <pt x="42" y="0" on="1"/>
        <pt x="333" y="1456" on="1"/>
        <pt x="881" y="1456" on="1"/>
        <pt x="1100" y="1456" on="0"/>
        <pt x="1335" y="1195" on="0"/>
        <pt x="1294" y="991" on="1"/>
        <pt x="1249" y="769" on="0"/>
        <pt x="935" y="528" on="0"/>
        <pt x="696" y="528" on="1"/>
      </contour>
      <contour>
        <pt x="480" y="753" on="1"/>
        <pt x="741" y="753" on="1"/>
        <pt x="842" y="753" on="0"/>
        <pt x="986" y="889" on="0"/>
        <pt x="1007" y="989" on="1"/>
        <pt x="1029" y="1100" on="0"/>
        <pt x="946" y="1231" on="0"/>
        <pt x="836" y="1231" on="1"/>
        <pt x="576" y="1231" on="1"/>
      </contour>
    </TTGlyph>
    <TTGlyph name="P.smcp" xMin="36" yMin="0" xMax="1161" yMax="1165">
      <contour>
        <pt x="398" y="365" on="1"/>
        <pt x="325" y="0" on="1"/>
        <pt x="36" y="0" on="1"/>
        <pt x="269" y="1165" on="1"/>
        <pt x="743" y="1165" on="1"/>
        <pt x="938" y="1165" on="0"/>
        <pt x="1161" y="936" on="0"/>
        <pt x="1127" y="765" on="1"/>
        <pt x="1089" y="578" on="0"/>
        <pt x="796" y="365" on="0"/>
        <pt x="583" y="365" on="1"/>
      </contour>
      <contour>
        <pt x="442" y="589" on="1"/>
        <pt x="628" y="589" on="1"/>
        <pt x="703" y="589" on="0"/>
        <pt x="826" y="693" on="0"/>
        <pt x="840" y="763" on="1"/>
        <pt x="855" y="840" on="0"/>
        <pt x="780" y="942" on="0"/>
        <pt x="698" y="942" on="1"/>
        <pt x="513" y="942" on="1"/>
      </contour>
    </TTGlyph>
    <TTGlyph name="Phi" xMin="82" yMin="0" xMax="1521" yMax="1456">
      <contour>
        <pt x="1059" y="1283" on="1"/>
        <pt x="1276" y="1274" on="0"/>
        <pt x="1521" y="962" on="0"/>
        <pt x="1473" y="720" on="1"/>
        <pt x="1421" y="462" on="0"/>
        <pt x="1075" y="174" on="0"/>
        <pt x="836" y="167" on="1"/>
        <pt x="803" y="0" on="1"/>
        <pt x="516" y="0" on="1"/>
        <pt x="549" y="167" on="1"/>
        <pt x="329" y="174" on="0"/>
        <pt x="82" y="480" on="0"/>
        <pt x="131" y="718" on="1"/>
        <pt x="183" y="982" on="0"/>
        <pt x="531" y="1276" on="0"/>
        <pt x="772" y="1283" on="1"/>
        <pt x="807" y="1456" on="1"/>
        <pt x="1094" y="1456" on="1"/>
      </contour>
      <contour>
        <pt x="414" y="718" on="1"/>
        <pt x="383" y="566" on="0"/>
        <pt x="480" y="413" on="0"/>
        <pt x="593" y="413" on="1"/>
        <pt x="599" y="414" on="1"/>
        <pt x="722" y="1033" on="1"/>
        <pt x="717" y="1036" on="1"/>
        <pt x="613" y="1033" on="0"/>
        <pt x="443" y="863" on="0"/>
      </contour>
      <contour>
        <pt x="1190" y="720" on="1"/>
        <pt x="1221" y="878" on="0"/>
        <pt x="1127" y="1036" on="0"/>
        <pt x="1016" y="1036" on="1"/>
        <pt x="1010" y="1035" on="1"/>
        <pt x="886" y="417" on="1"/>
        <pt x="891" y="415" on="1"/>
        <pt x="994" y="417" on="0"/>
        <pt x="1162" y="580" on="0"/>
      </contour>
    </TTGlyph>
    <TTGlyph name="Pi" xMin="42" yMin="0" xMax="1438" yMax="1456">
      <contour>
        <pt x="1147" y="0" on="1"/>
        <pt x="859" y="0" on="1"/>
        <pt x="1105" y="1231" on="1"/>
        <pt x="576" y="1231" on="1"/>
        <pt x="330" y="0" on="1"/>
        <pt x="42" y="0" on="1"/>
        <pt x="333" y="1456" on="1"/>
        <pt x="1438" y="1456" on="1"/>
      </contour>
    </TTGlyph>
    <TTGlyph name="Psi" xMin="101" yMin="0" xMax="1544" yMax="1456">
      <contour>
        <pt x="873" y="587" on="1"/>
        <pt x="878" y="584" on="1"/>
        <pt x="976" y="602" on="0"/>
        <pt x="1121" y="784" on="0"/>
        <pt x="1152" y="939" on="1"/>
        <pt x="1255" y="1456" on="1"/>
        <pt x="1544" y="1456" on="1"/>
        <pt x="1441" y="939" on="1"/>
        <pt x="1385" y="662" on="0"/>
        <pt x="1063" y="366" on="0"/>
        <pt x="824" y="343" on="1"/>
        <pt x="756" y="0" on="1"/>
        <pt x="469" y="0" on="1"/>
        <pt x="537" y="343" on="1"/>
        <pt x="321" y="368" on="0"/>
        <pt x="101" y="682" on="0"/>
        <pt x="153" y="939" on="1"/>
        <pt x="256" y="1456" on="1"/>
        <pt x="543" y="1456" on="1"/>
        <pt x="440" y="939" on="1"/>
        <pt x="407" y="773" on="0"/>
        <pt x="480" y="598" on="0"/>
        <pt x="579" y="583" on="1"/>
        <pt x="585" y="583" on="1"/>
        <pt x="760" y="1456" on="1"/>
        <pt x="1047" y="1456" on="1"/>
      </contour>
    </TTGlyph>
    <TTGlyph name="Q" xMin="76" yMin="-231" xMax="1368" yMax="1477">
      <contour>
        <pt x="1265" y="593" on="1"/>
        <pt x="1235" y="449" on="0"/>
        <pt x="1115" y="220" on="0"/>
        <pt x="1028" y="141" on="1"/>
        <pt x="1203" y="-79" on="1"/>
        <pt x="991" y="-231" on="1"/>
        <pt x="804" y="10" on="1"/>
        <pt x="755" y="-5" on="0"/>
        <pt x="651" y="-21" on="0"/>
        <pt x="597" y="-21" on="1"/>
        <pt x="360" y="-21" on="0"/>
        <pt x="76" y="340" on="0"/>
        <pt x="128" y="600" on="1"/>
        <pt x="180" y="862" on="1"/>
        <pt x="238" y="1150" on="0"/>
        <pt x="581" y="1477" on="0"/>
        <pt x="833" y="1477" on="1"/>
        <pt x="1073" y="1477" on="0"/>
        <pt x="1368" y="1113" on="0"/>
        <pt x="1317" y="855" on="1"/>
      </contour>
      <contour>
        <pt x="1029" y="857" on="1"/>
        <pt x="1064" y="1034" on="0"/>
        <pt x="927" y="1249" on="0"/>
        <pt x="788" y="1249" on="1"/>
        <pt x="668" y="1249" on="0"/>
        <pt x="502" y="1037" on="0"/>
        <pt x="468" y="864" on="1"/>
        <pt x="415" y="600" on="1"/>
        <pt x="379" y="421" on="0"/>
        <pt x="505" y="206" on="0"/>
        <pt x="642" y="206" on="1"/>
        <pt x="764" y="206" on="0"/>
        <pt x="942" y="421" on="0"/>
        <pt x="977" y="593" on="1"/>
      </contour>
    </TTGlyph>
    <TTGlyph name="Q.smcp" xMin="55" yMin="-139" xMax="1163" yMax="1181">
      <contour>
        <pt x="1073" y="461" on="1"/>
        <pt x="1053" y="361" on="0"/>
        <pt x="965" y="197" on="0"/>
        <pt x="902" y="136" on="1"/>
        <pt x="1002" y="1" on="1"/>
        <pt x="790" y="-139" on="1"/>
        <pt x="680" y="8" on="1"/>
        <pt x="633" y="-5" on="0"/>
        <pt x="538" y="-19" on="0"/>
        <pt x="490" y="-19" on="1"/>
        <pt x="288" y="-19" on="0"/>
        <pt x="55" y="252" on="0"/>
        <pt x="97" y="461" on="1"/>
        <pt x="146" y="704" on="1"/>
        <pt x="190" y="929" on="0"/>
        <pt x="508" y="1181" on="0"/>
        <pt x="729" y="1181" on="1"/>
        <pt x="931" y="1181" on="0"/>
        <pt x="1163" y="912" on="0"/>
        <pt x="1122" y="704" on="1"/>
      </contour>
      <contour>
        <pt x="835" y="705" on="1"/>
        <pt x="858" y="821" on="0"/>
        <pt x="779" y="958" on="0"/>
        <pt x="685" y="958" on="1"/>
        <pt x="596" y="958" on="0"/>
        <pt x="455" y="813" on="0"/>
        <pt x="434" y="705" on="1"/>
        <pt x="385" y="461" on="1"/>
        <pt x="361" y="342" on="0"/>
        <pt x="438" y="204" on="0"/>
        <pt x="535" y="204" on="1"/>
        <pt x="621" y="204" on="0"/>
        <pt x="764" y="352" on="0"/>
        <pt x="786" y="461" on="1"/>
      </contour>
    </TTGlyph>
    <TTGlyph name="R" xMin="42" yMin="0" xMax="1300" yMax="1456">
      <contour>
        <pt x="447" y="582" on="1"/>
        <pt x="331" y="0" on="1"/>
        <pt x="42" y="0" on="1"/>
        <pt x="333" y="1456" on="1"/>
        <pt x="850" y="1456" on="1"/>
        <pt x="1068" y="1456" on="0"/>
        <pt x="1300" y="1226" on="0"/>
        <pt x="1260" y="1026" on="1"/>
        <pt x="1235" y="904" on="0"/>
        <pt x="1095" y="745" on="0"/>
        <pt x="976" y="697" on="1"/>
        <pt x="1083" y="656" on="0"/>
        <pt x="1160" y="478" on="0"/>
        <pt x="1136" y="354" on="1"/>
        <pt x="1114" y="247" on="1"/>
        <pt x="1101" y="184" on="0"/>
        <pt x="1106" y="53" on="0"/>
        <pt x="1137" y="21" on="1"/>
        <pt x="1133" y="0" on="1"/>
        <pt x="836" y="0" on="1"/>
        <pt x="805" y="32" on="0"/>
        <pt x="812" y="179" on="0"/>
        <pt x="827" y="249" on="1"/>
        <pt x="847" y="352" on="1"/>
        <pt x="870" y="467" on="0"/>
        <pt x="791" y="582" on="0"/>
        <pt x="694" y="582" on="1"/>
      </contour>
      <contour>
        <pt x="492" y="807" on="1"/>
        <pt x="716" y="807" on="1"/>
        <pt x="816" y="807" on="0"/>
        <pt x="950" y="914" on="0"/>
        <pt x="971" y="1013" on="1"/>
        <pt x="992" y="1119" on="0"/>
        <pt x="910" y="1231" on="0"/>
        <pt x="805" y="1231" on="1"/>
        <pt x="577" y="1231" on="1"/>
      </contour>
    </TTGlyph>
    <TTGlyph name="R.smcp" xMin="36" yMin="0" xMax="1105" yMax="1165">
      <contour>
        <pt x="408" y="418" on="1"/>
        <pt x="325" y="0" on="1"/>
        <pt x="36" y="0" on="1"/>
        <pt x="269" y="1165" on="1"/>
        <pt x="701" y="1165" on="1"/>
        <pt x="891" y="1165" on="0"/>
        <pt x="1105" y="971" on="0"/>
        <pt x="1073" y="812" on="1"/>
        <pt x="1052" y="709" on="0"/>
        <pt x="930" y="574" on="0"/>
        <pt x="826" y="532" on="1"/>
        <pt x="923" y="499" on="0"/>
        <pt x="996" y="356" on="0"/>
        <pt x="976" y="255" on="1"/>
        <pt x="959" y="172" on="1"/>
        <pt x="951" y="130" on="0"/>
        <pt x="942" y="33" on="0"/>
        <pt x="953" y="14" on="1"/>
        <pt x="950" y="0" on="1"/>
        <pt x="653" y="0" on="1"/>
        <pt x="646" y="19" on="0"/>
        <pt x="662" y="129" on="0"/>
        <pt x="672" y="173" on="1"/>
        <pt x="688" y="254" on="1"/>
        <pt x="704" y="340" on="0"/>
        <pt x="640" y="418" on="0"/>
        <pt x="559" y="418" on="1"/>
      </contour>
      <contour>
        <pt x="453" y="642" on="1"/>
        <pt x="596" y="642" on="1"/>
        <pt x="664" y="642" on="0"/>
        <pt x="766" y="723" on="0"/>
        <pt x="780" y="791" on="1"/>
        <pt x="793" y="860" on="0"/>
        <pt x="729" y="942" on="0"/>
        <pt x="656" y="942" on="1"/>
        <pt x="513" y="942" on="1"/>
      </contour>
    </TTGlyph>
    <TTGlyph name="Racute" xMin="42" yMin="0" xMax="1300" yMax="1826">
      <component glyphName="R" x="0" y="0" flags="0x204"/>
      <component glyphName="acute" x="449" y="348" flags="0x4"/>
    </TTGlyph>
    <TTGlyph name="Racute.smcp" xMin="36" yMin="0" xMax="1105" yMax="1503">
      <component glyphName="R.smcp" x="0" y="0" flags="0x204"/>
      <component glyphName="acute" x="306" y="25" flags="0x4"/>
    </TTGlyph>
    <TTGlyph name="Rcaron" xMin="42" yMin="0" xMax="1300" yMax="1873">
      <component glyphName="R" x="0" y="0" flags="0x204"/>
      <component glyphName="caron" x="204" y="349" flags="0x4"/>
    </TTGlyph>
    <TTGlyph name="Rcaron.smcp" xMin="36" yMin="0" xMax="1105" yMax="1550">
      <component glyphName="R.smcp" x="0" y="0" flags="0x204"/>
      <component glyphName="caron" x="61" y="26" flags="0x4"/>
    </TTGlyph>
    <TTGlyph name="Rcommaaccent" xMin="42" yMin="-488" xMax="1300" yMax="1456">
      <component glyphName="R" x="0" y="0" flags="0x204"/>
      <component glyphName="commaaccent" x="308" y="-364" flags="0x4"/>
    </TTGlyph>
    <TTGlyph name="Rcommaaccent.smcp" xMin="36" yMin="-490" xMax="1105" yMax="1165">
      <component glyphName="R.smcp" x="0" y="0" flags="0x204"/>
      <component glyphName="commaaccent" x="229" y="-366" flags="0x4"/>
    </TTGlyph>
    <TTGlyph name="Rho" xMin="42" yMin="0" xMax="1335" yMax="1456">
      <component glyphName="P" x="0" y="0" flags="0x204"/>
    </TTGlyph>
    <TTGlyph name="S" xMin="54" yMin="-21" xMax="1231" yMax="1477">
      <contour>
        <pt x="834" y="353" on="1"/>
        <pt x="853" y="452" on="0"/>
        <pt x="758" y="553" on="0"/>
        <pt x="618" y="611" on="1"/>
        <pt x="389" y="690" on="0"/>
        <pt x="177" y="917" on="0"/>
        <pt x="214" y="1100" on="1"/>
        <pt x="250" y="1281" on="0"/>
        <pt x="548" y="1477" on="0"/>
        <pt x="757" y="1477" on="1"/>
        <pt x="980" y="1477" on="0"/>
        <pt x="1231" y="1237" on="0"/>
        <pt x="1186" y="1031" on="1"/>
        <pt x="1183" y="1025" on="1"/>
        <pt x="904" y="1025" on="1"/>
        <pt x="924" y="1128" on="0"/>
        <pt x="818" y="1252" on="0"/>
        <pt x="712" y="1252" on="1"/>
        <pt x="639" y="1252" on="0"/>
        <pt x="516" y="1165" on="0"/>
        <pt x="503" y="1102" on="1"/>
        <pt x="483" y="1005" on="0"/>
        <pt x="583" y="914" on="0"/>
        <pt x="753" y="848" on="1"/>
        <pt x="968" y="771" on="0"/>
        <pt x="1160" y="546" on="0"/>
        <pt x="1122" y="355" on="1"/>
        <pt x="1084" y="166" on="0"/>
        <pt x="789" y="-21" on="0"/>
        <pt x="574" y="-21" on="1"/>
        <pt x="355" y="-21" on="0"/>
        <pt x="54" y="197" on="0"/>
        <pt x="105" y="425" on="1"/>
        <pt x="107" y="431" on="1"/>
        <pt x="387" y="431" on="1"/>
        <pt x="361" y="302" on="0"/>
        <pt x="506" y="203" on="0"/>
        <pt x="619" y="203" on="1"/>
        <pt x="692" y="203" on="0"/>
        <pt x="820" y="288" on="0"/>
      </contour>
    </TTGlyph>
    <TTGlyph name="S.smcp" xMin="15" yMin="-19" xMax="1085" yMax="1181">
      <contour>
        <pt x="685" y="322" on="1"/>
        <pt x="696" y="380" on="0"/>
        <pt x="629" y="448" on="0"/>
        <pt x="522" y="476" on="1"/>
        <pt x="316" y="520" on="0"/>
        <pt x="155" y="678" on="0"/>
        <pt x="188" y="840" on="1"/>
        <pt x="218" y="996" on="0"/>
        <pt x="486" y="1181" on="0"/>
        <pt x="688" y="1181" on="1"/>
        <pt x="881" y="1181" on="0"/>
        <pt x="1085" y="980" on="0"/>
        <pt x="1048" y="815" on="1"/>
        <pt x="1045" y="809" on="1"/>
        <pt x="766" y="809" on="1"/>
        <pt x="781" y="886" on="0"/>
        <pt x="727" y="959" on="0"/>
        <pt x="644" y="959" on="1"/>
        <pt x="573" y="959" on="0"/>
        <pt x="484" y="892" on="0"/>
        <pt x="474" y="842" on="1"/>
        <pt x="462" y="780" on="0"/>
        <pt x="527" y="717" on="0"/>
        <pt x="649" y="687" on="1"/>
        <pt x="841" y="643" on="0"/>
        <pt x="1004" y="481" on="0"/>
        <pt x="973" y="326" on="1"/>
        <pt x="939" y="160" on="0"/>
        <pt x="659" y="-19" on="0"/>
        <pt x="449" y="-19" on="1"/>
        <pt x="240" y="-19" on="0"/>
        <pt x="15" y="182" on="0"/>
        <pt x="54" y="351" on="1"/>
        <pt x="56" y="357" on="1"/>
        <pt x="336" y="357" on="1"/>
        <pt x="321" y="273" on="0"/>
        <pt x="405" y="203" on="0"/>
        <pt x="494" y="203" on="1"/>
        <pt x="575" y="203" on="0"/>
        <pt x="674" y="270" on="0"/>
      </contour>
    </TTGlyph>
    <TTGlyph name="Sacute" xMin="54" yMin="-21" xMax="1231" yMax="1847">
      <component glyphName="S" x="0" y="0" flags="0x4"/>
      <component glyphName="acute" x="463" y="369" flags="0x4"/>
    </TTGlyph>
    <TTGlyph name="Sacute.smcp" xMin="15" yMin="-19" xMax="1085" yMax="1522">
      <component glyphName="S.smcp" x="0" y="0" flags="0x204"/>
      <component glyphName="acute" x="314" y="44" flags="0x4"/>
    </TTGlyph>
    <TTGlyph name="Scaron" xMin="54" yMin="-21" xMax="1258" yMax="1894">
      <component glyphName="S" x="0" y="0" flags="0x4"/>
      <component glyphName="caron" x="218" y="370" flags="0x4"/>
    </TTGlyph>
    <TTGlyph name="Scaron.smcp" xMin="15" yMin="-19" xMax="1109" yMax="1569">
      <component glyphName="S.smcp" x="0" y="0" flags="0x204"/>
      <component glyphName="caron" x="69" y="45" flags="0x4"/>
    </TTGlyph>
    <TTGlyph name="Scedilla" xMin="54" yMin="-465" xMax="1231" yMax="1477">
      <component glyphName="S" x="0" y="0" flags="0x4"/>
      <component glyphName="cedilla" x="391" y="-8" flags="0x4"/>
    </TTGlyph>
    <TTGlyph name="Scedilla.smcp" xMin="15" yMin="-462" xMax="1085" yMax="1181">
      <component glyphName="S.smcp" x="0" y="0" flags="0x204"/>
      <component glyphName="cedilla" x="291" y="-5" flags="0x4"/>
    </TTGlyph>
    <TTGlyph name="Scircumflex" xMin="54" yMin="-21" xMax="1231" yMax="1879">
      <component glyphName="S" x="0" y="0" flags="0x4"/>
      <component glyphName="circumflex" x="195" y="361" flags="0x4"/>
    </TTGlyph>
    <TTGlyph name="Scircumflex.smcp" xMin="15" yMin="-19" xMax="1085" yMax="1554">
      <component glyphName="S.smcp" x="0" y="0" flags="0x204"/>
      <component glyphName="circumflex" x="46" y="36" flags="0x4"/>
    </TTGlyph>
    <TTGlyph name="Sigma" xMin="-12" yMin="0" xMax="1220" yMax="1456">
      <contour>
        <pt x="843" y="724" on="1"/>
        <pt x="411" y="230" on="1"/>
        <pt x="413" y="225" on="1"/>
        <pt x="997" y="225" on="1"/>
        <pt x="952" y="0" on="1"/>
        <pt x="-12" y="0" on="1"/>
        <pt x="18" y="152" on="1"/>
        <pt x="540" y="733" on="1"/>
        <pt x="249" y="1305" on="1"/>
        <pt x="279" y="1456" on="1"/>
        <pt x="1220" y="1456" on="1"/>
        <pt x="1175" y="1231" on="1"/>
        <pt x="609" y="1231" on="1"/>
        <pt x="846" y="741" on="1"/>
      </contour>
    </TTGlyph>
    <TTGlyph name="T" xMin="190" yMin="0" xMax="1271" yMax="1456">
      <contour>
        <pt x="1226" y="1231" on="1"/>
        <pt x="851" y="1231" on="1"/>
        <pt x="605" y="0" on="1"/>
        <pt x="317" y="0" on="1"/>
        <pt x="563" y="1231" on="1"/>
        <pt x="190" y="1231" on="1"/>
        <pt x="235" y="1456" on="1"/>
        <pt x="1271" y="1456" on="1"/>
      </contour>
    </TTGlyph>
    <TTGlyph name="T.smcp" xMin="151" yMin="0" xMax="1114" yMax="1165">
      <contour>
        <pt x="1069" y="942" on="1"/>
        <pt x="753" y="942" on="1"/>
        <pt x="565" y="0" on="1"/>
        <pt x="276" y="0" on="1"/>
        <pt x="464" y="942" on="1"/>
        <pt x="151" y="942" on="1"/>
        <pt x="196" y="1165" on="1"/>
        <pt x="1114" y="1165" on="1"/>
      </contour>
    </TTGlyph>
    <TTGlyph name="Tau" xMin="190" yMin="0" xMax="1271" yMax="1456">
      <component glyphName="T" x="0" y="0" flags="0x204"/>
    </TTGlyph>
    <TTGlyph name="Tbar" xMin="190" yMin="0" xMax="1271" yMax="1456">
      <contour>
        <pt x="936" y="757" on="1"/>
        <pt x="756" y="757" on="1"/>
        <pt x="605" y="0" on="1"/>
        <pt x="317" y="0" on="1"/>
        <pt x="468" y="757" on="1"/>
        <pt x="306" y="757" on="1"/>
        <pt x="342" y="938" on="1"/>
        <pt x="504" y="938" on="1"/>
        <pt x="563" y="1231" on="1"/>
        <pt x="190" y="1231" on="1"/>
        <pt x="235" y="1456" on="1"/>
        <pt x="1271" y="1456" on="1"/>
        <pt x="1226" y="1231" on="1"/>
        <pt x="851" y="1231" on="1"/>
        <pt x="792" y="938" on="1"/>
        <pt x="972" y="938" on="1"/>
      </contour>
    </TTGlyph>
    <TTGlyph name="Tbar.smcp" xMin="151" yMin="0" xMax="1114" yMax="1165">
      <component glyphName="T.smcp" x="0" y="0" flags="0x204"/>
      <component glyphName="crossbar" x="28" y="-58" flags="0x4"/>
    </TTGlyph>
    <TTGlyph name="Tcaron" xMin="190" yMin="0" xMax="1271" yMax="1873">
      <component glyphName="T" x="0" y="0" flags="0x204"/>
      <component glyphName="caron" x="160" y="349" flags="0x4"/>
    </TTGlyph>
    <TTGlyph name="Tcaron.smcp" xMin="151" yMin="0" xMax="1114" yMax="1550">
      <component glyphName="T.smcp" x="0" y="0" flags="0x204"/>
      <component glyphName="caron" x="49" y="26" flags="0x4"/>
    </TTGlyph>
    <TTGlyph name="Tcommaaccent.smcp" xMin="151" yMin="-490" xMax="1114" yMax="1165">
      <component glyphName="T.smcp" x="0" y="0" flags="0x204"/>
      <component glyphName="commaaccent" x="217" y="-366" flags="0x4"/>
    </TTGlyph>
    <TTGlyph name="Theta" xMin="68" yMin="-21" xMax="1360" yMax="1477">
      <contour>
        <pt x="875" y="613" on="1"/>
        <pt x="536" y="613" on="1"/>
        <pt x="580" y="837" on="1"/>
        <pt x="919" y="837" on="1"/>
      </contour>
      <contour>
        <pt x="1257" y="593" on="1"/>
        <pt x="1199" y="305" on="0"/>
        <pt x="844" y="-21" on="0"/>
        <pt x="589" y="-21" on="1"/>
        <pt x="352" y="-21" on="0"/>
        <pt x="68" y="340" on="0"/>
        <pt x="120" y="600" on="1"/>
        <pt x="172" y="862" on="1"/>
        <pt x="230" y="1150" on="0"/>
        <pt x="573" y="1477" on="0"/>
        <pt x="825" y="1477" on="1"/>
        <pt x="1065" y="1477" on="0"/>
        <pt x="1360" y="1113" on="0"/>
        <pt x="1309" y="855" on="1"/>
      </contour>
      <contour>
        <pt x="1021" y="857" on="1"/>
        <pt x="1056" y="1034" on="0"/>
        <pt x="919" y="1249" on="0"/>
        <pt x="780" y="1249" on="1"/>
        <pt x="660" y="1249" on="0"/>
        <pt x="494" y="1037" on="0"/>
        <pt x="460" y="864" on="1"/>
        <pt x="407" y="600" on="1"/>
        <pt x="371" y="421" on="0"/>
        <pt x="497" y="206" on="0"/>
        <pt x="634" y="206" on="1"/>
        <pt x="756" y="206" on="0"/>
        <pt x="934" y="421" on="0"/>
        <pt x="969" y="593" on="1"/>
      </contour>
    </TTGlyph>
    <TTGlyph name="Thorn" xMin="38" yMin="0" xMax="1215" yMax="1456">
      <contour>
        <pt x="617" y="1456" on="1"/>
        <pt x="563" y="1186" on="1"/>
        <pt x="758" y="1186" on="1"/>
        <pt x="982" y="1186" on="0"/>
        <pt x="1215" y="933" on="0"/>
        <pt x="1176" y="738" on="1"/>
        <pt x="1132" y="524" on="0"/>
        <pt x="823" y="289" on="0"/>
        <pt x="579" y="289" on="1"/>
        <pt x="384" y="289" on="1"/>
        <pt x="326" y="0" on="1"/>
        <pt x="38" y="0" on="1"/>
        <pt x="329" y="1456" on="1"/>
      </contour>
      <contour>
        <pt x="518" y="963" on="1"/>
        <pt x="429" y="514" on="1"/>
        <pt x="624" y="514" on="1"/>
        <pt x="726" y="514" on="0"/>
        <pt x="868" y="643" on="0"/>
        <pt x="887" y="736" on="1"/>
        <pt x="907" y="837" on="0"/>
        <pt x="824" y="961" on="0"/>
        <pt x="713" y="961" on="1"/>
        <pt x="520" y="961" on="1"/>
      </contour>
    </TTGlyph>
    <TTGlyph name="U" xMin="77" yMin="-21" xMax="1416" yMax="1456">
      <contour>
        <pt x="1416" y="1456" on="1"/>
        <pt x="1223" y="490" on="1"/>
        <pt x="1170" y="228" on="0"/>
        <pt x="823" y="-21" on="0"/>
        <pt x="570" y="-21" on="1"/>
        <pt x="340" y="-21" on="0"/>
        <pt x="77" y="249" on="0"/>
        <pt x="125" y="490" on="1"/>
        <pt x="318" y="1456" on="1"/>
        <pt x="607" y="1456" on="1"/>
        <pt x="414" y="490" on="1"/>
        <pt x="383" y="336" on="0"/>
        <pt x="491" y="203" on="0"/>
        <pt x="615" y="203" on="1"/>
        <pt x="731" y="203" on="0"/>
        <pt x="905" y="348" on="0"/>
        <pt x="934" y="490" on="1"/>
        <pt x="1127" y="1456" on="1"/>
      </contour>
    </TTGlyph>
    <TTGlyph name="U.smcp" xMin="64" yMin="-19" xMax="1232" yMax="1165">
      <contour>
        <pt x="1232" y="1165" on="1"/>
        <pt x="1082" y="413" on="1"/>
        <pt x="1038" y="196" on="0"/>
        <pt x="733" y="-19" on="0"/>
        <pt x="506" y="-19" on="1"/>
        <pt x="298" y="-19" on="0"/>
        <pt x="64" y="213" on="0"/>
        <pt x="104" y="413" on="1"/>
        <pt x="254" y="1165" on="1"/>
        <pt x="542" y="1165" on="1"/>
        <pt x="392" y="413" on="1"/>
        <pt x="370" y="303" on="0"/>
        <pt x="450" y="204" on="0"/>
        <pt x="551" y="204" on="1"/>
        <pt x="644" y="204" on="0"/>
        <pt x="772" y="311" on="0"/>
        <pt x="793" y="413" on="1"/>
        <pt x="943" y="1165" on="1"/>
      </contour>
    </TTGlyph>
    <TTGlyph name="Uacute" xMin="77" yMin="-21" xMax="1416" yMax="1826">
      <component glyphName="U" x="0" y="0" flags="0x204"/>
      <component glyphName="acute" x="516" y="348" flags="0x4"/>
    </TTGlyph>
    <TTGlyph name="Uacute.smcp" xMin="64" yMin="-19" xMax="1232" yMax="1506">
      <component glyphName="U.smcp" x="0" y="0" flags="0x204"/>
      <component glyphName="acute" x="373" y="28" flags="0x4"/>
    </TTGlyph>
    <TTGlyph name="Ubreve" xMin="77" yMin="-21" xMax="1416" yMax="1896">
      <component glyphName="U" x="0" y="0" flags="0x204"/>
      <component glyphName="breve" x="352" y="440" flags="0x4"/>
    </TTGlyph>
    <TTGlyph name="Ubreve.smcp" xMin="64" yMin="-19" xMax="1232" yMax="1576">
      <component glyphName="U.smcp" x="0" y="0" flags="0x204"/>
      <component glyphName="breve" x="209" y="120" flags="0x4"/>
    </TTGlyph>
    <TTGlyph name="Ucircumflex" xMin="77" yMin="-21" xMax="1416" yMax="1858">
      <component glyphName="U" x="0" y="0" flags="0x204"/>
      <component glyphName="circumflex" x="248" y="340" flags="0x4"/>
    </TTGlyph>
    <TTGlyph name="Ucircumflex.smcp" xMin="64" yMin="-19" xMax="1232" yMax="1538">
      <component glyphName="U.smcp" x="0" y="0" flags="0x204"/>
      <component glyphName="circumflex" x="105" y="20" flags="0x4"/>
    </TTGlyph>
    <TTGlyph name="Udieresis" xMin="77" yMin="-21" xMax="1416" yMax="1805">
      <component glyphName="U" x="0" y="0" flags="0x204"/>
      <component glyphName="dieresis" x="252" y="349" flags="0x4"/>
    </TTGlyph>
    <TTGlyph name="Udieresis.smcp" xMin="64" yMin="-19" xMax="1232" yMax="1485">
      <component glyphName="U.smcp" x="0" y="0" flags="0x204"/>
      <component glyphName="dieresis" x="109" y="29" flags="0x4"/>
    </TTGlyph>
    <TTGlyph name="Ugrave" xMin="77" yMin="-21" xMax="1416" yMax="1826">
      <component glyphName="U" x="0" y="0" flags="0x204"/>
      <component glyphName="grave" x="348" y="348" flags="0x4"/>
    </TTGlyph>
    <TTGlyph name="Ugrave.smcp" xMin="64" yMin="-19" xMax="1232" yMax="1506">
      <component glyphName="U.smcp" x="0" y="0" flags="0x204"/>
      <component glyphName="grave" x="205" y="28" flags="0x4"/>
    </TTGlyph>
    <TTGlyph name="Uhorn" xMin="77" yMin="-21" xMax="1791" yMax="1607">
      <contour>
        <pt x="1416" y="1456" on="1"/>
        <pt x="1381" y="1283" on="1"/>
        <pt x="1387" y="1281" on="1"/>
        <pt x="1459" y="1304" on="0"/>
        <pt x="1557" y="1471" on="0"/>
        <pt x="1585" y="1607" on="1"/>
        <pt x="1789" y="1607" on="1"/>
        <pt x="1791" y="1602" on="1"/>
        <pt x="1746" y="1360" on="0"/>
        <pt x="1530" y="1107" on="0"/>
        <pt x="1341" y="1081" on="1"/>
        <pt x="1223" y="490" on="1"/>
        <pt x="1170" y="228" on="0"/>
        <pt x="823" y="-21" on="0"/>
        <pt x="570" y="-21" on="1"/>
        <pt x="340" y="-21" on="0"/>
        <pt x="77" y="249" on="0"/>
        <pt x="125" y="490" on="1"/>
        <pt x="318" y="1456" on="1"/>
        <pt x="607" y="1456" on="1"/>
        <pt x="414" y="490" on="1"/>
        <pt x="383" y="336" on="0"/>
        <pt x="491" y="203" on="0"/>
        <pt x="615" y="203" on="1"/>
        <pt x="731" y="203" on="0"/>
        <pt x="905" y="348" on="0"/>
        <pt x="934" y="490" on="1"/>
        <pt x="1127" y="1456" on="1"/>
      </contour>
    </TTGlyph>
    <TTGlyph name="Uhungarumlaut" xMin="77" yMin="-21" xMax="1476" yMax="1867">
      <component glyphName="U" x="0" y="0" flags="0x204"/>
      <component glyphName="hungarumlaut" x="298" y="349" flags="0x4"/>
    </TTGlyph>
    <TTGlyph name="Uhungarumlaut.smcp" xMin="64" yMin="-19" xMax="1333" yMax="1547">
      <component glyphName="U.smcp" x="0" y="0" flags="0x204"/>
      <component glyphName="hungarumlaut" x="155" y="29" flags="0x4"/>
    </TTGlyph>
    <TTGlyph name="Umacron" xMin="77" yMin="-21" xMax="1416" yMax="1778">
      <component glyphName="U" x="0" y="0" flags="0x204"/>
      <component glyphName="macron" x="272" y="321" flags="0x4"/>
    </TTGlyph>
    <TTGlyph name="Umacron.smcp" xMin="64" yMin="-19" xMax="1232" yMax="1458">
      <component glyphName="U.smcp" x="0" y="0" flags="0x204"/>
      <component glyphName="macron" x="129" y="1" flags="0x4"/>
    </TTGlyph>
    <TTGlyph name="Uogonek" xMin="77" yMin="-424" xMax="1416" yMax="1456">
      <component glyphName="U" x="0" y="0" flags="0x204"/>
      <component glyphName="ogonek" x="531" y="0" flags="0x4"/>
    </TTGlyph>
    <TTGlyph name="Uogonek.smcp" xMin="64" yMin="-424" xMax="1232" yMax="1165">
      <component glyphName="U.smcp" x="0" y="0" flags="0x204"/>
      <component glyphName="ogonek" x="469" y="0" flags="0x4"/>
    </TTGlyph>
    <TTGlyph name="Upsilon" xMin="215" yMin="0" xMax="1417" yMax="1456">
      <component glyphName="Y" x="0" y="0" flags="0x204"/>
    </TTGlyph>
    <TTGlyph name="Upsilondieresis" xMin="215" yMin="0" xMax="1417" yMax="1805">
      <component glyphName="Y" x="0" y="0" flags="0x204"/>
      <component glyphName="dieresis" x="208" y="349" flags="0x4"/>
    </TTGlyph>
    <TTGlyph name="Upsilontonos" xMin="-3" yMin="0" xMax="1517" yMax="1634">
      <component glyphName="Y" x="100" y="0" flags="0x4"/>
      <component glyphName="tonos" x="-402" y="0" flags="0x4"/>
    </TTGlyph>
    <TTGlyph name="Uring" xMin="77" yMin="-21" xMax="1416" yMax="1935">
      <component glyphName="U" x="0" y="0" flags="0x204"/>
      <component glyphName="ring" x="426" y="441" flags="0x4"/>
    </TTGlyph>
    <TTGlyph name="Uring.smcp" xMin="64" yMin="-19" xMax="1232" yMax="1615">
      <component glyphName="U.smcp" x="0" y="0" flags="0x204"/>
      <component glyphName="ring" x="283" y="121" flags="0x4"/>
    </TTGlyph>
    <TTGlyph name="Utilde" xMin="77" yMin="-21" xMax="1416" yMax="1901">
      <component glyphName="U" x="0" y="0" flags="0x204"/>
      <component glyphName="tilde" x="299" y="372" flags="0x4"/>
    </TTGlyph>
    <TTGlyph name="Utilde.smcp" xMin="64" yMin="-19" xMax="1232" yMax="1581">
      <component glyphName="U.smcp" x="0" y="0" flags="0x204"/>
      <component glyphName="tilde" x="156" y="52" flags="0x4"/>
    </TTGlyph>
    <TTGlyph name="V" xMin="175" yMin="0" xMax="1383" yMax="1456">
      <contour>
        <pt x="588" y="387" on="1"/>
        <pt x="592" y="314" on="1"/>
        <pt x="598" y="314" on="1"/>
        <pt x="625" y="385" on="1"/>
        <pt x="1079" y="1456" on="1"/>
        <pt x="1383" y="1456" on="1"/>
        <pt x="693" y="0" on="1"/>
        <pt x="397" y="0" on="1"/>
        <pt x="175" y="1456" on="1"/>
        <pt x="478" y="1456" on="1"/>
      </contour>
    </TTGlyph>
    <TTGlyph name="V.smcp" xMin="163" yMin="0" xMax="1247" yMax="1165">
      <contour>
        <pt x="524" y="312" on="1"/>
        <pt x="524" y="281" on="1"/>
        <pt x="530" y="280" on="1"/>
        <pt x="541" y="307" on="1"/>
        <pt x="946" y="1165" on="1"/>
        <pt x="1247" y="1165" on="1"/>
        <pt x="628" y="0" on="1"/>
        <pt x="317" y="0" on="1"/>
        <pt x="163" y="1165" on="1"/>
        <pt x="466" y="1165" on="1"/>
      </contour>
    </TTGlyph>
    <TTGlyph name="W" xMin="188" yMin="0" xMax="1829" yMax="1456">
      <contour>
        <pt x="1206" y="493" on="1"/>
        <pt x="1212" y="492" on="1"/>
        <pt x="1549" y="1456" on="1"/>
        <pt x="1829" y="1456" on="1"/>
        <pt x="1284" y="0" on="1"/>
        <pt x="1017" y="0" on="1"/>
        <pt x="927" y="927" on="1"/>
        <pt x="921" y="928" on="1"/>
        <pt x="535" y="0" on="1"/>
        <pt x="268" y="0" on="1"/>
        <pt x="188" y="1456" on="1"/>
        <pt x="470" y="1456" on="1"/>
        <pt x="500" y="494" on="1"/>
        <pt x="505" y="493" on="1"/>
        <pt x="903" y="1456" on="1"/>
        <pt x="1114" y="1456" on="1"/>
      </contour>
    </TTGlyph>
    <TTGlyph name="W.smcp" xMin="187" yMin="0" xMax="1571" yMax="1165">
      <contour>
        <pt x="1018" y="492" on="1"/>
        <pt x="1023" y="491" on="1"/>
        <pt x="1270" y="1165" on="1"/>
        <pt x="1571" y="1165" on="1"/>
        <pt x="1087" y="0" on="1"/>
        <pt x="806" y="0" on="1"/>
        <pt x="775" y="643" on="1"/>
        <pt x="769" y="644" on="1"/>
        <pt x="485" y="0" on="1"/>
        <pt x="205" y="0" on="1"/>
        <pt x="187" y="1165" on="1"/>
        <pt x="488" y="1165" on="1"/>
        <pt x="463" y="492" on="1"/>
        <pt x="468" y="491" on="1"/>
        <pt x="761" y="1165" on="1"/>
        <pt x="997" y="1165" on="1"/>
      </contour>
    </TTGlyph>
    <TTGlyph name="Wacute" xMin="188" yMin="0" xMax="1829" yMax="1826">
      <component glyphName="W" x="0" y="0" flags="0x204"/>
      <component glyphName="acute" x="653" y="348" flags="0x4"/>
    </TTGlyph>
    <TTGlyph name="Wcircumflex" xMin="188" yMin="0" xMax="1829" yMax="1858">
      <component glyphName="W" x="0" y="0" flags="0x204"/>
      <component glyphName="circumflex" x="385" y="340" flags="0x4"/>
    </TTGlyph>
    <TTGlyph name="Wcircumflex.smcp" xMin="187" yMin="0" xMax="1571" yMax="1535">
      <component glyphName="W.smcp" x="0" y="0" flags="0x204"/>
      <component glyphName="circumflex" x="252" y="17" flags="0x4"/>
    </TTGlyph>
    <TTGlyph name="Wdieresis" xMin="188" yMin="0" xMax="1829" yMax="1805">
      <component glyphName="W" x="0" y="0" flags="0x204"/>
      <component glyphName="dieresis" x="389" y="349" flags="0x4"/>
    </TTGlyph>
    <TTGlyph name="Wgrave" xMin="188" yMin="0" xMax="1829" yMax="1826">
      <component glyphName="W" x="0" y="0" flags="0x204"/>
      <component glyphName="grave" x="485" y="348" flags="0x4"/>
    </TTGlyph>
    <TTGlyph name="X" xMin="-38" yMin="0" xMax="1350" yMax="1456">
      <contour>
        <pt x="689" y="947" on="1"/>
        <pt x="695" y="946" on="1"/>
        <pt x="1014" y="1456" on="1"/>
        <pt x="1350" y="1456" on="1"/>
        <pt x="837" y="734" on="1"/>
        <pt x="1140" y="0" on="1"/>
        <pt x="792" y="0" on="1"/>
        <pt x="631" y="518" on="1"/>
        <pt x="625" y="519" on="1"/>
        <pt x="299" y="0" on="1"/>
        <pt x="-38" y="0" on="1"/>
        <pt x="486" y="734" on="1"/>
        <pt x="205" y="1456" on="1"/>
        <pt x="538" y="1456" on="1"/>
      </contour>
    </TTGlyph>
    <TTGlyph name="X.smcp" xMin="-54" yMin="0" xMax="1194" yMax="1165">
      <contour>
        <pt x="609" y="787" on="1"/>
        <pt x="615" y="786" on="1"/>
        <pt x="862" y="1165" on="1"/>
        <pt x="1194" y="1165" on="1"/>
        <pt x="755" y="588" on="1"/>
        <pt x="968" y="0" on="1"/>
        <pt x="638" y="0" on="1"/>
        <pt x="539" y="386" on="1"/>
        <pt x="533" y="387" on="1"/>
        <pt x="279" y="0" on="1"/>
        <pt x="-54" y="0" on="1"/>
        <pt x="398" y="588" on="1"/>
        <pt x="187" y="1165" on="1"/>
        <pt x="518" y="1165" on="1"/>
      </contour>
    </TTGlyph>
    <TTGlyph name="Xi" xMin="10" yMin="0" xMax="1181" yMax="1456">
      <contour>
        <pt x="55" y="224" on="1"/>
        <pt x="973" y="224" on="1"/>
        <pt x="928" y="0" on="1"/>
        <pt x="10" y="0" on="1"/>
      </contour>
      <contour>
        <pt x="285" y="849" on="1"/>
        <pt x="993" y="849" on="1"/>
        <pt x="949" y="632" on="1"/>
        <pt x="241" y="632" on="1"/>
      </contour>
      <contour>
        <pt x="322" y="1456" on="1"/>
        <pt x="1181" y="1456" on="1"/>
        <pt x="1136" y="1231" on="1"/>
        <pt x="277" y="1231" on="1"/>
      </contour>
    </TTGlyph>
    <TTGlyph name="Y" xMin="215" yMin="0" xMax="1417" yMax="1456">
      <contour>
        <pt x="682" y="806" on="1"/>
        <pt x="688" y="805" on="1"/>
        <pt x="1102" y="1456" on="1"/>
        <pt x="1417" y="1456" on="1"/>
        <pt x="767" y="513" on="1"/>
        <pt x="665" y="0" on="1"/>
        <pt x="378" y="0" on="1"/>
        <pt x="484" y="532" on="1"/>
        <pt x="215" y="1456" on="1"/>
        <pt x="531" y="1456" on="1"/>
      </contour>
    </TTGlyph>
    <TTGlyph name="Y.smcp" xMin="156" yMin="0" xMax="1174" yMax="1165">
      <contour>
        <pt x="565" y="683" on="1"/>
        <pt x="571" y="682" on="1"/>
        <pt x="862" y="1165" on="1"/>
        <pt x="1174" y="1165" on="1"/>
        <pt x="655" y="413" on="1"/>
        <pt x="573" y="0" on="1"/>
        <pt x="285" y="0" on="1"/>
        <pt x="370" y="424" on="1"/>
        <pt x="156" y="1165" on="1"/>
        <pt x="467" y="1165" on="1"/>
      </contour>
    </TTGlyph>
    <TTGlyph name="Yacute" xMin="215" yMin="0" xMax="1417" yMax="1826">
      <component glyphName="Y" x="0" y="0" flags="0x204"/>
      <component glyphName="acute" x="472" y="348" flags="0x4"/>
    </TTGlyph>
    <TTGlyph name="Yacute.smcp" xMin="156" yMin="0" xMax="1174" yMax="1503">
      <component glyphName="Y.smcp" x="0" y="0" flags="0x204"/>
      <component glyphName="acute" x="313" y="25" flags="0x4"/>
    </TTGlyph>
    <TTGlyph name="Ycircumflex" xMin="215" yMin="0" xMax="1417" yMax="1858">
      <component glyphName="Y" x="0" y="0" flags="0x204"/>
      <component glyphName="circumflex" x="204" y="340" flags="0x4"/>
    </TTGlyph>
    <TTGlyph name="Ycircumflex.smcp" xMin="156" yMin="0" xMax="1174" yMax="1535">
      <component glyphName="Y.smcp" x="0" y="0" flags="0x204"/>
      <component glyphName="circumflex" x="45" y="17" flags="0x4"/>
    </TTGlyph>
    <TTGlyph name="Ydieresis" xMin="215" yMin="0" xMax="1417" yMax="1805">
      <component glyphName="Y" x="0" y="0" flags="0x204"/>
      <component glyphName="dieresis" x="208" y="349" flags="0x4"/>
    </TTGlyph>
    <TTGlyph name="Ydieresis.smcp" xMin="156" yMin="0" xMax="1174" yMax="1482">
      <component glyphName="Y.smcp" x="0" y="0" flags="0x204"/>
      <component glyphName="dieresis" x="49" y="26" flags="0x4"/>
    </TTGlyph>
    <TTGlyph name="Ygrave" xMin="215" yMin="0" xMax="1417" yMax="1826">
      <component glyphName="Y" x="0" y="0" flags="0x204"/>
      <component glyphName="grave" x="304" y="348" flags="0x4"/>
    </TTGlyph>
    <TTGlyph name="Z" xMin="12" yMin="0" xMax="1165" yMax="1456">
      <contour>
        <pt x="380" y="224" on="1"/>
        <pt x="991" y="224" on="1"/>
        <pt x="946" y="0" on="1"/>
        <pt x="18" y="0" on="1"/>
        <pt x="12" y="152" on="1"/>
        <pt x="765" y="1231" on="1"/>
        <pt x="237" y="1231" on="1"/>
        <pt x="282" y="1456" on="1"/>
        <pt x="1165" y="1456" on="1"/>
        <pt x="1136" y="1310" on="1"/>
      </contour>
    </TTGlyph>
    <TTGlyph name="Z.smcp" xMin="-17" yMin="0" xMax="1104" yMax="1165">
      <contour>
        <pt x="392" y="227" on="1"/>
        <pt x="394" y="222" on="1"/>
        <pt x="920" y="222" on="1"/>
        <pt x="876" y="0" on="1"/>
        <pt x="-17" y="0" on="1"/>
        <pt x="7" y="122" on="1"/>
        <pt x="691" y="937" on="1"/>
        <pt x="689" y="942" on="1"/>
        <pt x="202" y="942" on="1"/>
        <pt x="247" y="1165" on="1"/>
        <pt x="1104" y="1165" on="1"/>
        <pt x="1081" y="1048" on="1"/>
      </contour>
    </TTGlyph>
    <TTGlyph name="Zacute" xMin="12" yMin="0" xMax="1179" yMax="1827">
      <component glyphName="Z" x="0" y="0" flags="0x4"/>
      <component glyphName="acute" x="420" y="349" flags="0x4"/>
    </TTGlyph>
    <TTGlyph name="Zacute.smcp" xMin="-17" yMin="0" xMax="1104" yMax="1504">
      <component glyphName="Z.smcp" x="0" y="0" flags="0x204"/>
      <component glyphName="acute" x="320" y="26" flags="0x4"/>
    </TTGlyph>
    <TTGlyph name="Zcaron" xMin="12" yMin="0" xMax="1215" yMax="1874">
      <component glyphName="Z" x="0" y="0" flags="0x4"/>
      <component glyphName="caron" x="175" y="350" flags="0x4"/>
    </TTGlyph>
    <TTGlyph name="Zcaron.smcp" xMin="-17" yMin="0" xMax="1115" yMax="1551">
      <component glyphName="Z.smcp" x="0" y="0" flags="0x204"/>
      <component glyphName="caron" x="75" y="27" flags="0x4"/>
    </TTGlyph>
    <TTGlyph name="Zdotaccent" xMin="12" yMin="0" xMax="1165" yMax="1843">
      <component glyphName="Z" x="0" y="0" flags="0x4"/>
      <component glyphName="dotaccent" x="346" y="375" flags="0x4"/>
    </TTGlyph>
    <TTGlyph name="Zdotaccent.smcp" xMin="-17" yMin="0" xMax="1104" yMax="1520">
      <component glyphName="Z.smcp" x="0" y="0" flags="0x204"/>
      <component glyphName="dotaccent" x="246" y="52" flags="0x4"/>
    </TTGlyph>
    <TTGlyph name="Zeta" xMin="12" yMin="0" xMax="1165" yMax="1456">
      <component glyphName="Z" x="0" y="0" flags="0x4"/>
    </TTGlyph>
    <TTGlyph name="a" xMin="14" yMin="-21" xMax="1028" yMax="1102">
      <contour>
        <pt x="606" y="0" on="1"/>
        <pt x="600" y="30" on="0"/>
        <pt x="594" y="94" on="0"/>
        <pt x="594" y="127" on="1"/>
        <pt x="535" y="61" on="0"/>
        <pt x="387" y="-21" on="0"/>
        <pt x="302" y="-21" on="1"/>
        <pt x="164" y="-21" on="0"/>
        <pt x="14" y="159" on="0"/>
        <pt x="44" y="305" on="1"/>
        <pt x="78" y="474" on="0"/>
        <pt x="332" y="639" on="0"/>
        <pt x="556" y="639" on="1"/>
        <pt x="686" y="639" on="1"/>
        <pt x="703" y="725" on="1"/>
        <pt x="719" y="808" on="0"/>
        <pt x="667" y="889" on="0"/>
        <pt x="597" y="889" on="1"/>
        <pt x="539" y="889" on="0"/>
        <pt x="455" y="819" on="0"/>
        <pt x="444" y="759" on="1"/>
        <pt x="167" y="760" on="1"/>
        <pt x="165" y="766" on="1"/>
        <pt x="189" y="913" on="0"/>
        <pt x="461" y="1102" on="0"/>
        <pt x="658" y="1102" on="1"/>
        <pt x="829" y="1102" on="0"/>
        <pt x="1028" y="902" on="0"/>
        <pt x="993" y="723" on="1"/>
        <pt x="903" y="276" on="1"/>
        <pt x="886" y="194" on="0"/>
        <pt x="883" y="66" on="0"/>
        <pt x="894" y="0" on="1"/>
      </contour>
      <contour>
        <pt x="424" y="195" on="1"/>
        <pt x="476" y="195" on="0"/>
        <pt x="581" y="250" on="0"/>
        <pt x="616" y="291" on="1"/>
        <pt x="653" y="474" on="1"/>
        <pt x="523" y="474" on="1"/>
        <pt x="449" y="474" on="0"/>
        <pt x="345" y="380" on="0"/>
        <pt x="333" y="315" on="1"/>
        <pt x="321" y="257" on="0"/>
        <pt x="369" y="195" on="0"/>
      </contour>
    </TTGlyph>
    <TTGlyph name="aacute" xMin="14" yMin="-21" xMax="1063" yMax="1504">
      <component glyphName="a" x="0" y="0" flags="0x204"/>
      <component glyphName="acute" x="304" y="26" flags="0x4"/>
    </TTGlyph>
    <TTGlyph name="abreve" xMin="14" yMin="-21" xMax="1052" yMax="1574">
      <component glyphName="a" x="0" y="0" flags="0x204"/>
      <component glyphName="breve" x="140" y="118" flags="0x4"/>
    </TTGlyph>
    <TTGlyph name="acircumflex" xMin="14" yMin="-21" xMax="1040" yMax="1536">
      <component glyphName="a" x="0" y="0" flags="0x204"/>
      <component glyphName="circumflex" x="36" y="18" flags="0x4"/>
    </TTGlyph>
    <TTGlyph name="acute" xMin="235" yMin="1212" xMax="759" yMax="1478">
      <contour>
        <pt x="455" y="1478" on="1"/>
        <pt x="757" y="1478" on="1"/>
        <pt x="759" y="1472" on="1"/>
        <pt x="458" y="1212" on="1"/>
        <pt x="237" y="1212" on="1"/>
        <pt x="235" y="1217" on="1"/>
      </contour>
    </TTGlyph>
    <TTGlyph name="acutecomb" xMin="-577" yMin="1202" xMax="-165" yMax="1516">
      <contour>
        <pt x="-390" y="1516" on="1"/>
        <pt x="-165" y="1516" on="1"/>
        <pt x="-408" y="1202" on="1"/>
        <pt x="-577" y="1202" on="1"/>
      </contour>
    </TTGlyph>
    <TTGlyph name="adieresis" xMin="14" yMin="-21" xMax="1077" yMax="1483">
      <component glyphName="a" x="0" y="0" flags="0x204"/>
      <component glyphName="dieresis" x="40" y="27" flags="0x4"/>
    </TTGlyph>
    <TTGlyph name="ae" xMin="-8" yMin="-21" xMax="1648" yMax="1102">
      <contour>
        <pt x="1073" y="-21" on="1"/>
        <pt x="961" y="-21" on="0"/>
        <pt x="791" y="61" on="0"/>
        <pt x="740" y="138" on="1"/>
        <pt x="671" y="69" on="0"/>
        <pt x="462" y="-21" on="0"/>
        <pt x="332" y="-21" on="1"/>
        <pt x="164" y="-21" on="0"/>
        <pt x="-8" y="164" on="0"/>
        <pt x="22" y="317" on="1"/>
        <pt x="56" y="486" on="0"/>
        <pt x="323" y="648" on="0"/>
        <pt x="556" y="648" on="1"/>
        <pt x="716" y="648" on="1"/>
        <pt x="728" y="707" on="1"/>
        <pt x="745" y="791" on="0"/>
        <pt x="692" y="877" on="0"/>
        <pt x="627" y="877" on="1"/>
        <pt x="562" y="877" on="0"/>
        <pt x="463" y="801" on="0"/>
        <pt x="452" y="746" on="1"/>
        <pt x="177" y="764" on="1"/>
        <pt x="176" y="770" on="1"/>
        <pt x="201" y="924" on="0"/>
        <pt x="472" y="1102" on="0"/>
        <pt x="675" y="1102" on="1"/>
        <pt x="761" y="1102" on="0"/>
        <pt x="903" y="1051" on="0"/>
        <pt x="950" y="1003" on="1"/>
        <pt x="1017" y="1052" on="0"/>
        <pt x="1181" y="1102" on="0"/>
        <pt x="1275" y="1102" on="1"/>
        <pt x="1461" y="1102" on="0"/>
        <pt x="1648" y="834" on="0"/>
        <pt x="1603" y="612" on="1"/>
        <pt x="1572" y="454" on="1"/>
        <pt x="969" y="454" on="1"/>
        <pt x="952" y="332" on="0"/>
        <pt x="1035" y="203" on="0"/>
        <pt x="1149" y="203" on="1"/>
        <pt x="1228" y="203" on="0"/>
        <pt x="1358" y="245" on="0"/>
        <pt x="1436" y="284" on="1"/>
        <pt x="1474" y="100" on="1"/>
        <pt x="1407" y="52" on="0"/>
        <pt x="1190" y="-21" on="0"/>
      </contour>
      <contour>
        <pt x="429" y="185" on="1"/>
        <pt x="475" y="185" on="0"/>
        <pt x="602" y="246" on="0"/>
        <pt x="645" y="287" on="1"/>
        <pt x="680" y="464" on="1"/>
        <pt x="521" y="464" on="1"/>
        <pt x="442" y="464" on="0"/>
        <pt x="322" y="374" on="0"/>
        <pt x="311" y="313" on="1"/>
        <pt x="297" y="250" on="0"/>
        <pt x="355" y="185" on="0"/>
      </contour>
      <contour>
        <pt x="1230" y="877" on="1"/>
        <pt x="1153" y="877" on="0"/>
        <pt x="1042" y="752" on="0"/>
        <pt x="1014" y="650" on="1"/>
        <pt x="1017" y="644" on="1"/>
        <pt x="1328" y="644" on="1"/>
        <pt x="1333" y="672" on="1"/>
        <pt x="1352" y="771" on="0"/>
        <pt x="1303" y="877" on="0"/>
      </contour>
    </TTGlyph>
    <TTGlyph name="aeacute" xMin="-8" yMin="-21" xMax="1648" yMax="1505">
      <component glyphName="ae" x="0" y="0" flags="0x204"/>
      <component glyphName="acute" x="599" y="27" flags="0x4"/>
    </TTGlyph>
    <TTGlyph name="agrave" xMin="14" yMin="-21" xMax="1028" yMax="1504">
      <component glyphName="a" x="0" y="0" flags="0x204"/>
      <component glyphName="grave" x="136" y="26" flags="0x4"/>
    </TTGlyph>
    <TTGlyph name="alpha" xMin="39" yMin="-21" xMax="1101" yMax="1102">
      <contour>
        <pt x="1101" y="1081" on="1"/>
        <pt x="954" y="345" on="1"/>
        <pt x="937" y="265" on="0"/>
        <pt x="957" y="210" on="0"/>
        <pt x="990" y="210" on="1"/>
        <pt x="994" y="210" on="0"/>
        <pt x="1003" y="212" on="0"/>
        <pt x="1007" y="214" on="1"/>
        <pt x="990" y="5" on="1"/>
        <pt x="957" y="-10" on="0"/>
        <pt x="899" y="-21" on="0"/>
        <pt x="864" y="-21" on="1"/>
        <pt x="783" y="-21" on="0"/>
        <pt x="677" y="59" on="0"/>
        <pt x="660" y="140" on="1"/>
        <pt x="601" y="61" on="0"/>
        <pt x="458" y="-21" on="0"/>
        <pt x="373" y="-21" on="1"/>
        <pt x="199" y="-21" on="0"/>
        <pt x="39" y="277" on="0"/>
        <pt x="86" y="511" on="1"/>
        <pt x="90" y="532" on="1"/>
        <pt x="145" y="804" on="0"/>
        <pt x="408" y="1102" on="0"/>
        <pt x="599" y="1102" on="1"/>
        <pt x="671" y="1102" on="0"/>
        <pt x="773" y="1024" on="0"/>
        <pt x="804" y="953" on="1"/>
        <pt x="851" y="1081" on="1"/>
      </contour>
      <contour>
        <pt x="375" y="511" on="1"/>
        <pt x="344" y="360" on="0"/>
        <pt x="395" y="203" on="0"/>
        <pt x="492" y="203" on="1"/>
        <pt x="540" y="203" on="0"/>
        <pt x="624" y="253" on="0"/>
        <pt x="658" y="300" on="1"/>
        <pt x="659" y="309" on="0"/>
        <pt x="666" y="345" on="1"/>
        <pt x="753" y="782" on="1"/>
        <pt x="739" y="827" on="0"/>
        <pt x="676" y="877" on="0"/>
        <pt x="628" y="877" on="1"/>
        <pt x="540" y="877" on="0"/>
        <pt x="409" y="682" on="0"/>
        <pt x="379" y="532" on="1"/>
      </contour>
    </TTGlyph>
    <TTGlyph name="alpha.alt" xMin="39" yMin="-21" xMax="1174" yMax="1102">
      <contour>
        <pt x="719" y="151" on="1"/>
        <pt x="653" y="67" on="0"/>
        <pt x="489" y="-21" on="0"/>
        <pt x="388" y="-21" on="1"/>
        <pt x="207" y="-21" on="0"/>
        <pt x="39" y="276" on="0"/>
        <pt x="86" y="511" on="1"/>
        <pt x="90" y="532" on="1"/>
        <pt x="145" y="804" on="0"/>
        <pt x="415" y="1102" on="0"/>
        <pt x="614" y="1102" on="1"/>
        <pt x="707" y="1102" on="0"/>
        <pt x="832" y="1007" on="0"/>
        <pt x="867" y="920" on="1"/>
        <pt x="921" y="1082" on="1"/>
        <pt x="1174" y="1082" on="1"/>
        <pt x="964" y="540" on="1"/>
        <pt x="964" y="0" on="1"/>
        <pt x="711" y="0" on="1"/>
      </contour>
      <contour>
        <pt x="375" y="511" on="1"/>
        <pt x="344" y="360" on="0"/>
        <pt x="395" y="203" on="0"/>
        <pt x="492" y="203" on="1"/>
        <pt x="575" y="203" on="0"/>
        <pt x="700" y="371" on="0"/>
        <pt x="733" y="498" on="1"/>
        <pt x="745" y="559" on="1"/>
        <pt x="768" y="696" on="0"/>
        <pt x="715" y="877" on="0"/>
        <pt x="628" y="877" on="1"/>
        <pt x="540" y="877" on="0"/>
        <pt x="409" y="682" on="0"/>
        <pt x="379" y="532" on="1"/>
      </contour>
    </TTGlyph>
    <TTGlyph name="alphatonos" xMin="39" yMin="-21" xMax="1101" yMax="1588">
      <component glyphName="alpha" x="0" y="0" flags="0x204"/>
      <component glyphName="tonos" x="232" y="-46" flags="0x4"/>
    </TTGlyph>
    <TTGlyph name="amacron" xMin="14" yMin="-21" xMax="1057" yMax="1457">
      <component glyphName="a" x="0" y="0" flags="0x204"/>
      <component glyphName="macron" x="60" y="0" flags="0x4"/>
    </TTGlyph>
    <TTGlyph name="ampersand" xMin="21" yMin="-21" xMax="1206" yMax="1477">
      <contour>
        <pt x="51" y="392" on="1"/>
        <pt x="70" y="515" on="0"/>
        <pt x="215" y="678" on="0"/>
        <pt x="357" y="773" on="1"/>
        <pt x="307" y="865" on="0"/>
        <pt x="269" y="1018" on="0"/>
        <pt x="282" y="1097" on="1"/>
        <pt x="310" y="1277" on="0"/>
        <pt x="543" y="1477" on="0"/>
        <pt x="717" y="1477" on="1"/>
        <pt x="861" y="1477" on="0"/>
        <pt x="1024" y="1278" on="0"/>
        <pt x="1002" y="1140" on="1"/>
        <pt x="986" y="1038" on="0"/>
        <pt x="871" y="881" on="0"/>
        <pt x="778" y="819" on="1"/>
        <pt x="686" y="756" on="1"/>
        <pt x="883" y="444" on="1"/>
        <pt x="924" y="502" on="0"/>
        <pt x="980" y="635" on="0"/>
        <pt x="992" y="709" on="1"/>
        <pt x="1206" y="709" on="1"/>
        <pt x="1183" y="566" on="0"/>
        <pt x="1086" y="340" on="0"/>
        <pt x="1005" y="252" on="1"/>
        <pt x="1164" y="0" on="1"/>
        <pt x="838" y="0" on="1"/>
        <pt x="784" y="85" on="1"/>
        <pt x="697" y="31" on="0"/>
        <pt x="525" y="-21" on="0"/>
        <pt x="431" y="-21" on="1"/>
        <pt x="234" y="-21" on="0"/>
        <pt x="21" y="211" on="0"/>
      </contour>
      <contour>
        <pt x="481" y="203" on="1"/>
        <pt x="527" y="203" on="0"/>
        <pt x="626" y="230" on="0"/>
        <pt x="675" y="256" on="1"/>
        <pt x="457" y="602" on="1"/>
        <pt x="443" y="592" on="1"/>
        <pt x="394" y="544" on="0"/>
        <pt x="348" y="452" on="0"/>
        <pt x="341" y="407" on="1"/>
        <pt x="326" y="315" on="0"/>
        <pt x="404" y="203" on="0"/>
      </contour>
      <contour>
        <pt x="539" y="1100" on="1"/>
        <pt x="531" y="1057" on="0"/>
        <pt x="556" y="971" on="0"/>
        <pt x="586" y="918" on="1"/>
        <pt x="665" y="967" on="1"/>
        <pt x="722" y="1003" on="0"/>
        <pt x="769" y="1078" on="0"/>
        <pt x="777" y="1124" on="1"/>
        <pt x="784" y="1176" on="0"/>
        <pt x="733" y="1252" on="0"/>
        <pt x="680" y="1252" on="1"/>
        <pt x="626" y="1252" on="0"/>
        <pt x="549" y="1164" on="0"/>
      </contour>
    </TTGlyph>
    <TTGlyph name="anoteleia" xMin="181" yMin="568" xMax="517" yMax="828">
      <component glyphName="periodcentered" x="0" y="0" flags="0x204"/>
    </TTGlyph>
    <TTGlyph name="aogonek" xMin="14" yMin="-424" xMax="1028" yMax="1102">
      <component glyphName="a" x="0" y="0" flags="0x204"/>
      <component glyphName="ogonek" x="507" y="0" flags="0x4"/>
    </TTGlyph>
    <TTGlyph name="approxequal" xMin="72" yMin="238" xMax="1117" yMax="1024">
      <contour>
        <pt x="198" y="877" on="1"/>
        <pt x="257" y="945" on="0"/>
        <pt x="387" y="1023" on="0"/>
        <pt x="448" y="1023" on="1"/>
        <pt x="513" y="1024" on="0"/>
        <pt x="594" y="992" on="0"/>
        <pt x="665" y="950" on="1"/>
        <pt x="727" y="912" on="0"/>
        <pt x="806" y="881" on="0"/>
        <pt x="869" y="881" on="1"/>
        <pt x="925" y="881" on="0"/>
        <pt x="1059" y="958" on="0"/>
        <pt x="1112" y="1023" on="1"/>
        <pt x="1117" y="1020" on="1"/>
        <pt x="1085" y="814" on="1"/>
        <pt x="1026" y="745" on="0"/>
        <pt x="896" y="668" on="0"/>
        <pt x="837" y="668" on="1"/>
        <pt x="779" y="668" on="0"/>
        <pt x="689" y="701" on="0"/>
        <pt x="632" y="737" on="1"/>
        <pt x="562" y="779" on="0"/>
        <pt x="480" y="811" on="0"/>
        <pt x="415" y="810" on="1"/>
        <pt x="358" y="810" on="0"/>
        <pt x="223" y="732" on="0"/>
        <pt x="172" y="668" on="1"/>
        <pt x="167" y="671" on="1"/>
      </contour>
      <contour>
        <pt x="103" y="447" on="1"/>
        <pt x="162" y="515" on="0"/>
        <pt x="292" y="593" on="0"/>
        <pt x="352" y="593" on="1"/>
        <pt x="417" y="594" on="0"/>
        <pt x="499" y="562" on="0"/>
        <pt x="570" y="520" on="1"/>
        <pt x="632" y="481" on="0"/>
        <pt x="711" y="451" on="0"/>
        <pt x="773" y="451" on="1"/>
        <pt x="829" y="451" on="0"/>
        <pt x="964" y="528" on="0"/>
        <pt x="1016" y="593" on="1"/>
        <pt x="1021" y="590" on="1"/>
        <pt x="990" y="384" on="1"/>
        <pt x="931" y="315" on="0"/>
        <pt x="801" y="238" on="0"/>
        <pt x="741" y="238" on="1"/>
        <pt x="683" y="238" on="0"/>
        <pt x="594" y="271" on="0"/>
        <pt x="537" y="307" on="1"/>
        <pt x="465" y="349" on="0"/>
        <pt x="385" y="381" on="0"/>
        <pt x="319" y="380" on="1"/>
        <pt x="262" y="380" on="0"/>
        <pt x="128" y="302" on="0"/>
        <pt x="77" y="238" on="1"/>
        <pt x="72" y="241" on="1"/>
      </contour>
    </TTGlyph>
    <TTGlyph name="aring" xMin="14" yMin="-21" xMax="1028" yMax="1613">
      <component glyphName="a" x="0" y="0" flags="0x204"/>
      <component glyphName="ring" x="214" y="119" flags="0x4"/>
    </TTGlyph>
    <TTGlyph name="aringacute" xMin="14" yMin="-21" xMax="1134" yMax="1818">
      <component glyphName="a" x="0" y="0" flags="0x204"/>
      <component glyphName="ringacute" x="201" y="84" flags="0x4"/>
    </TTGlyph>
    <TTGlyph name="asciicircum" xMin="104" yMin="729" xMax="868" yMax="1456">
      <contour>
        <pt x="331" y="729" on="1"/>
        <pt x="104" y="729" on="1"/>
        <pt x="527" y="1456" on="1"/>
        <pt x="735" y="1456" on="1"/>
        <pt x="868" y="729" on="1"/>
        <pt x="641" y="729" on="1"/>
        <pt x="574" y="1142" on="1"/>
        <pt x="574" y="1163" on="1"/>
        <pt x="568" y="1164" on="1"/>
        <pt x="559" y="1142" on="1"/>
      </contour>
    </TTGlyph>
    <TTGlyph name="asciitilde" xMin="101" yMin="378" xMax="1188" yMax="825">
      <contour>
        <pt x="1188" y="758" on="1"/>
        <pt x="1161" y="590" on="0"/>
        <pt x="963" y="378" on="0"/>
        <pt x="834" y="378" on="1"/>
        <pt x="758" y="378" on="0"/>
        <pt x="632" y="442" on="0"/>
        <pt x="571" y="511" on="1"/>
        <pt x="531" y="555" on="0"/>
        <pt x="471" y="595" on="0"/>
        <pt x="431" y="595" on="1"/>
        <pt x="387" y="595" on="0"/>
        <pt x="306" y="493" on="0"/>
        <pt x="295" y="422" on="1"/>
        <pt x="101" y="448" on="1"/>
        <pt x="127" y="616" on="0"/>
        <pt x="323" y="825" on="0"/>
        <pt x="453" y="825" on="1"/>
        <pt x="527" y="825" on="0"/>
        <pt x="660" y="757" on="0"/>
        <pt x="719" y="692" on="1"/>
        <pt x="756" y="647" on="0"/>
        <pt x="817" y="608" on="0"/>
        <pt x="856" y="608" on="1"/>
        <pt x="899" y="608" on="0"/>
        <pt x="983" y="713" on="0"/>
        <pt x="995" y="785" on="1"/>
      </contour>
    </TTGlyph>
    <TTGlyph name="asterisk" xMin="156" yMin="579" xMax="949" yMax="1456">
      <contour>
        <pt x="414" y="966" on="1"/>
        <pt x="156" y="1055" on="1"/>
        <pt x="247" y="1232" on="1"/>
        <pt x="494" y="1109" on="1"/>
        <pt x="545" y="1456" on="1"/>
        <pt x="728" y="1456" on="1"/>
        <pt x="640" y="1103" on="1"/>
        <pt x="930" y="1223" on="1"/>
        <pt x="949" y="1043" on="1"/>
        <pt x="650" y="954" on="1"/>
        <pt x="780" y="689" on="1"/>
        <pt x="609" y="579" on="1"/>
        <pt x="510" y="869" on="1"/>
        <pt x="297" y="588" on="1"/>
        <pt x="168" y="694" on="1"/>
      </contour>
    </TTGlyph>
    <TTGlyph name="at" xMin="-26" yMin="-453" xMax="1726" yMax="1418">
      <contour>
        <pt x="1629" y="513" on="1"/>
        <pt x="1576" y="295" on="0"/>
        <pt x="1291" y="-21" on="0"/>
        <pt x="1067" y="-21" on="1"/>
        <pt x="998" y="-21" on="0"/>
        <pt x="908" y="69" on="0"/>
        <pt x="900" y="149" on="1"/>
        <pt x="842" y="65" on="0"/>
        <pt x="705" y="-18" on="0"/>
        <pt x="625" y="-18" on="1"/>
        <pt x="502" y="-18" on="0"/>
        <pt x="401" y="224" on="0"/>
        <pt x="458" y="416" on="1"/>
        <pt x="531" y="670" on="0"/>
        <pt x="813" y="976" on="0"/>
        <pt x="970" y="976" on="1"/>
        <pt x="1072" y="976" on="0"/>
        <pt x="1208" y="921" on="0"/>
        <pt x="1272" y="870" on="1"/>
        <pt x="1268" y="866" on="1"/>
        <pt x="1273" y="866" on="1"/>
        <pt x="1112" y="293" on="1"/>
        <pt x="1087" y="198" on="0"/>
        <pt x="1108" y="128" on="0"/>
        <pt x="1139" y="135" on="1"/>
        <pt x="1145" y="134" on="1"/>
        <pt x="1238" y="129" on="0"/>
        <pt x="1414" y="350" on="0"/>
        <pt x="1454" y="513" on="1"/>
        <pt x="1540" y="866" on="0"/>
        <pt x="1337" y="1262" on="0"/>
        <pt x="1045" y="1262" on="1"/>
        <pt x="784" y="1262" on="0"/>
        <pt x="350" y="829" on="0"/>
        <pt x="266" y="478" on="1"/>
        <pt x="180" y="123" on="0"/>
        <pt x="397" y="-287" on="0"/>
        <pt x="677" y="-287" on="1"/>
        <pt x="751" y="-287" on="0"/>
        <pt x="934" y="-247" on="0"/>
        <pt x="999" y="-217" on="1"/>
        <pt x="1006" y="-364" on="1"/>
        <pt x="934" y="-406" on="0"/>
        <pt x="732" y="-453" on="0"/>
        <pt x="640" y="-453" on="1"/>
        <pt x="295" y="-453" on="0"/>
        <pt x="-26" y="54" on="0"/>
        <pt x="73" y="478" on="1"/>
        <pt x="175" y="905" on="0"/>
        <pt x="719" y="1418" on="0"/>
        <pt x="1081" y="1418" on="1"/>
        <pt x="1416" y="1418" on="0"/>
        <pt x="1726" y="923" on="0"/>
      </contour>
      <contour>
        <pt x="679" y="416" on="1"/>
        <pt x="645" y="289" on="0"/>
        <pt x="669" y="158" on="0"/>
        <pt x="725" y="158" on="1"/>
        <pt x="771" y="158" on="0"/>
        <pt x="863" y="210" on="0"/>
        <pt x="909" y="278" on="1"/>
        <pt x="910" y="283" on="0"/>
        <pt x="911" y="289" on="0"/>
        <pt x="913" y="293" on="1"/>
        <pt x="1053" y="791" on="1"/>
        <pt x="1035" y="797" on="0"/>
        <pt x="996" y="804" on="0"/>
        <pt x="975" y="804" on="1"/>
        <pt x="880" y="804" on="0"/>
        <pt x="733" y="608" on="0"/>
      </contour>
    </TTGlyph>
    <TTGlyph name="atilde" xMin="14" yMin="-21" xMax="1077" yMax="1579">
      <component glyphName="a" x="0" y="0" flags="0x204"/>
      <component glyphName="tilde" x="87" y="50" flags="0x4"/>
    </TTGlyph>
    <TTGlyph name="b" xMin="20" yMin="-21" xMax="1090" yMax="1560">
      <contour>
        <pt x="1036" y="491" on="1"/>
        <pt x="984" y="233" on="0"/>
        <pt x="755" y="-21" on="0"/>
        <pt x="561" y="-21" on="1"/>
        <pt x="480" y="-21" on="0"/>
        <pt x="353" y="54" on="0"/>
        <pt x="313" y="124" on="1"/>
        <pt x="269" y="0" on="1"/>
        <pt x="20" y="0" on="1"/>
        <pt x="332" y="1560" on="1"/>
        <pt x="619" y="1560" on="1"/>
        <pt x="506" y="997" on="1"/>
        <pt x="559" y="1047" on="0"/>
        <pt x="679" y="1102" on="0"/>
        <pt x="746" y="1102" on="1"/>
        <pt x="926" y="1102" on="0"/>
        <pt x="1090" y="764" on="0"/>
        <pt x="1040" y="512" on="1"/>
      </contour>
      <contour>
        <pt x="753" y="512" on="1"/>
        <pt x="787" y="682" on="0"/>
        <pt x="742" y="875" on="0"/>
        <pt x="642" y="875" on="1"/>
        <pt x="588" y="875" on="0"/>
        <pt x="494" y="808" on="0"/>
        <pt x="457" y="749" on="1"/>
        <pt x="363" y="283" on="1"/>
        <pt x="380" y="244" on="0"/>
        <pt x="456" y="206" on="0"/>
        <pt x="517" y="206" on="1"/>
        <pt x="612" y="206" on="0"/>
        <pt x="720" y="350" on="0"/>
        <pt x="749" y="491" on="1"/>
      </contour>
    </TTGlyph>
    <TTGlyph name="backslash" xMin="209" yMin="-125" xMax="743" yMax="1456">
      <contour>
        <pt x="209" y="1456" on="1"/>
        <pt x="494" y="1456" on="1"/>
        <pt x="743" y="-125" on="1"/>
        <pt x="458" y="-125" on="1"/>
      </contour>
    </TTGlyph>
    <TTGlyph name="bar" xMin="52" yMin="-270" xMax="501" yMax="1456">
      <contour>
        <pt x="225" y="-270" on="1"/>
        <pt x="52" y="-270" on="1"/>
        <pt x="328" y="1456" on="1"/>
        <pt x="501" y="1456" on="1"/>
      </contour>
    </TTGlyph>
    <TTGlyph name="beta" xMin="-33" yMin="-403" xMax="1201" yMax="1477">
      <contour>
        <pt x="801" y="1477" on="1"/>
        <pt x="991" y="1477" on="0"/>
        <pt x="1201" y="1263" on="0"/>
        <pt x="1165" y="1082" on="1"/>
        <pt x="1144" y="977" on="0"/>
        <pt x="1016" y="815" on="0"/>
        <pt x="922" y="769" on="1"/>
        <pt x="1022" y="723" on="0"/>
        <pt x="1111" y="539" on="0"/>
        <pt x="1087" y="415" on="1"/>
        <pt x="1043" y="194" on="0"/>
        <pt x="783" y="-21" on="0"/>
        <pt x="586" y="-21" on="1"/>
        <pt x="523" y="-21" on="0"/>
        <pt x="396" y="17" on="0"/>
        <pt x="346" y="54" on="1"/>
        <pt x="255" y="-403" on="1"/>
        <pt x="-33" y="-403" on="1"/>
        <pt x="255" y="1037" on="1"/>
        <pt x="296" y="1243" on="0"/>
        <pt x="604" y="1477" on="0"/>
      </contour>
      <contour>
        <pt x="617" y="859" on="1"/>
        <pt x="674" y="859" on="1"/>
        <pt x="751" y="859" on="0"/>
        <pt x="854" y="966" on="0"/>
        <pt x="874" y="1063" on="1"/>
        <pt x="890" y="1146" on="0"/>
        <pt x="831" y="1252" on="0"/>
        <pt x="756" y="1252" on="1"/>
        <pt x="685" y="1252" on="0"/>
        <pt x="562" y="1132" on="0"/>
        <pt x="543" y="1037" on="1"/>
        <pt x="387" y="255" on="1"/>
        <pt x="416" y="229" on="0"/>
        <pt x="506" y="203" on="0"/>
        <pt x="565" y="203" on="1"/>
        <pt x="647" y="203" on="0"/>
        <pt x="781" y="326" on="0"/>
        <pt x="800" y="418" on="1"/>
        <pt x="822" y="533" on="0"/>
        <pt x="752" y="653" on="0"/>
        <pt x="662" y="653" on="1"/>
        <pt x="576" y="653" on="1"/>
        <pt x="588" y="716" on="1"/>
        <pt x="606" y="806" on="1"/>
      </contour>
    </TTGlyph>
    <TTGlyph name="braceleft" xMin="61" yMin="-360" xMax="760" yMax="1597">
      <contour>
        <pt x="417" y="-360" on="1"/>
        <pt x="243" y="-305" on="0"/>
        <pt x="126" y="-65" on="0"/>
        <pt x="154" y="106" on="1"/>
        <pt x="186" y="309" on="1"/>
        <pt x="202" y="411" on="0"/>
        <pt x="143" y="518" on="0"/>
        <pt x="61" y="518" on="1"/>
        <pt x="69" y="566" on="1"/>
        <pt x="93" y="719" on="1"/>
        <pt x="171" y="719" on="0"/>
        <pt x="269" y="829" on="0"/>
        <pt x="286" y="929" on="1"/>
        <pt x="318" y="1132" on="1"/>
        <pt x="346" y="1309" on="0"/>
        <pt x="537" y="1542" on="0"/>
        <pt x="731" y="1597" on="1"/>
        <pt x="760" y="1440" on="1"/>
        <pt x="680" y="1409" on="0"/>
        <pt x="595" y="1251" on="0"/>
        <pt x="576" y="1132" on="1"/>
        <pt x="544" y="929" on="1"/>
        <pt x="526" y="820" on="0"/>
        <pt x="416" y="660" on="0"/>
        <pt x="322" y="616" on="1"/>
        <pt x="399" y="569" on="0"/>
        <pt x="460" y="408" on="0"/>
        <pt x="444" y="309" on="1"/>
        <pt x="412" y="106" on="1"/>
        <pt x="392" y="-17" on="0"/>
        <pt x="427" y="-170" on="0"/>
        <pt x="498" y="-202" on="1"/>
      </contour>
    </TTGlyph>
    <TTGlyph name="braceright" xMin="-63" yMin="-360" xMax="637" yMax="1597">
      <contour>
        <pt x="-63" y="-202" on="1"/>
        <pt x="16" y="-171" on="0"/>
        <pt x="101" y="-13" on="0"/>
        <pt x="121" y="106" on="1"/>
        <pt x="153" y="309" on="1"/>
        <pt x="170" y="418" on="0"/>
        <pt x="283" y="577" on="0"/>
        <pt x="381" y="621" on="1"/>
        <pt x="300" y="666" on="0"/>
        <pt x="236" y="827" on="0"/>
        <pt x="253" y="929" on="1"/>
        <pt x="285" y="1132" on="1"/>
        <pt x="304" y="1255" on="0"/>
        <pt x="269" y="1408" on="0"/>
        <pt x="199" y="1440" on="1"/>
        <pt x="280" y="1597" on="1"/>
        <pt x="453" y="1542" on="0"/>
        <pt x="569" y="1303" on="0"/>
        <pt x="542" y="1132" on="1"/>
        <pt x="510" y="929" on="1"/>
        <pt x="493" y="825" on="0"/>
        <pt x="553" y="719" on="0"/>
        <pt x="637" y="719" on="1"/>
        <pt x="628" y="667" on="1"/>
        <pt x="629" y="667" on="1"/>
        <pt x="605" y="518" on="1"/>
        <pt x="525" y="518" on="0"/>
        <pt x="426" y="406" on="0"/>
        <pt x="410" y="309" on="1"/>
        <pt x="378" y="106" on="1"/>
        <pt x="349" y="-71" on="0"/>
        <pt x="159" y="-305" on="0"/>
        <pt x="-34" y="-360" on="1"/>
      </contour>
    </TTGlyph>
    <TTGlyph name="bracketleft" xMin="-13" yMin="-336" xMax="727" yMax="1691">
      <contour>
        <pt x="692" y="1475" on="1"/>
        <pt x="567" y="1475" on="1"/>
        <pt x="312" y="-120" on="1"/>
        <pt x="437" y="-120" on="1"/>
        <pt x="402" y="-336" on="1"/>
        <pt x="-13" y="-336" on="1"/>
        <pt x="312" y="1691" on="1"/>
        <pt x="727" y="1691" on="1"/>
      </contour>
    </TTGlyph>
    <TTGlyph name="bracketright" xMin="-105" yMin="-336" xMax="634" yMax="1691">
      <contour>
        <pt x="220" y="1691" on="1"/>
        <pt x="634" y="1691" on="1"/>
        <pt x="309" y="-336" on="1"/>
        <pt x="-105" y="-336" on="1"/>
        <pt x="-70" y="-120" on="1"/>
        <pt x="56" y="-120" on="1"/>
        <pt x="311" y="1475" on="1"/>
        <pt x="185" y="1475" on="1"/>
      </contour>
    </TTGlyph>
    <TTGlyph name="breve" xMin="243" yMin="1162" xMax="912" yMax="1456">
      <contour>
        <pt x="910" y="1456" on="1"/>
        <pt x="912" y="1450" on="1"/>
        <pt x="895" y="1318" on="0"/>
        <pt x="695" y="1162" on="0"/>
        <pt x="544" y="1162" on="1"/>
        <pt x="399" y="1162" on="0"/>
        <pt x="243" y="1324" on="0"/>
        <pt x="268" y="1450" on="1"/>
        <pt x="271" y="1456" on="1"/>
        <pt x="481" y="1456" on="1"/>
        <pt x="472" y="1401" on="0"/>
        <pt x="515" y="1335" on="0"/>
        <pt x="572" y="1335" on="1"/>
        <pt x="625" y="1335" on="0"/>
        <pt x="691" y="1404" on="0"/>
        <pt x="700" y="1456" on="1"/>
      </contour>
    </TTGlyph>
    <TTGlyph name="breveacutecomb" xMin="287" yMin="1222" xMax="950" yMax="1682">
      <contour>
        <pt x="715" y="1682" on="1"/>
        <pt x="914" y="1682" on="1"/>
        <pt x="916" y="1676" on="1"/>
        <pt x="723" y="1493" on="1"/>
        <pt x="566" y="1493" on="1"/>
      </contour>
      <contour>
        <pt x="948" y="1456" on="1"/>
        <pt x="950" y="1450" on="1"/>
        <pt x="934" y="1343" on="0"/>
        <pt x="737" y="1222" on="0"/>
        <pt x="585" y="1222" on="1"/>
        <pt x="446" y="1222" on="0"/>
        <pt x="287" y="1352" on="0"/>
        <pt x="313" y="1450" on="1"/>
        <pt x="315" y="1456" on="1"/>
        <pt x="524" y="1456" on="1"/>
        <pt x="515" y="1411" on="0"/>
        <pt x="556" y="1360" on="0"/>
        <pt x="613" y="1360" on="1"/>
        <pt x="665" y="1360" on="0"/>
        <pt x="731" y="1415" on="0"/>
        <pt x="740" y="1456" on="1"/>
      </contour>
    </TTGlyph>
    <TTGlyph name="brevegravecomb" xMin="287" yMin="1222" xMax="950" yMax="1733">
      <contour>
        <pt x="774" y="1516" on="1"/>
        <pt x="552" y="1516" on="1"/>
        <pt x="403" y="1733" on="1"/>
        <pt x="672" y="1733" on="1"/>
      </contour>
      <contour>
        <pt x="948" y="1456" on="1"/>
        <pt x="950" y="1450" on="1"/>
        <pt x="934" y="1343" on="0"/>
        <pt x="737" y="1222" on="0"/>
        <pt x="585" y="1222" on="1"/>
        <pt x="446" y="1222" on="0"/>
        <pt x="287" y="1352" on="0"/>
        <pt x="313" y="1450" on="1"/>
        <pt x="315" y="1456" on="1"/>
        <pt x="524" y="1456" on="1"/>
        <pt x="515" y="1411" on="0"/>
        <pt x="556" y="1360" on="0"/>
        <pt x="613" y="1360" on="1"/>
        <pt x="665" y="1360" on="0"/>
        <pt x="731" y="1415" on="0"/>
        <pt x="740" y="1456" on="1"/>
      </contour>
    </TTGlyph>
    <TTGlyph name="brevehookcomb" xMin="287" yMin="1222" xMax="950" yMax="1822">
      <contour>
        <pt x="541" y="1506" on="1"/>
        <pt x="547" y="1615" on="1"/>
        <pt x="614" y="1617" on="0"/>
        <pt x="672" y="1637" on="0"/>
        <pt x="672" y="1662" on="1"/>
        <pt x="672" y="1668" on="1"/>
        <pt x="682" y="1694" on="0"/>
        <pt x="622" y="1718" on="0"/>
        <pt x="566" y="1718" on="1"/>
        <pt x="593" y="1822" on="1"/>
        <pt x="769" y="1822" on="0"/>
        <pt x="931" y="1747" on="0"/>
        <pt x="916" y="1671" on="1"/>
        <pt x="906" y="1621" on="0"/>
        <pt x="819" y="1566" on="0"/>
        <pt x="761" y="1559" on="1"/>
        <pt x="750" y="1506" on="1"/>
      </contour>
      <contour>
        <pt x="948" y="1456" on="1"/>
        <pt x="950" y="1450" on="1"/>
        <pt x="934" y="1343" on="0"/>
        <pt x="737" y="1222" on="0"/>
        <pt x="585" y="1222" on="1"/>
        <pt x="446" y="1222" on="0"/>
        <pt x="287" y="1352" on="0"/>
        <pt x="313" y="1450" on="1"/>
        <pt x="315" y="1456" on="1"/>
        <pt x="524" y="1456" on="1"/>
        <pt x="515" y="1411" on="0"/>
        <pt x="556" y="1360" on="0"/>
        <pt x="613" y="1360" on="1"/>
        <pt x="665" y="1360" on="0"/>
        <pt x="731" y="1415" on="0"/>
        <pt x="740" y="1456" on="1"/>
      </contour>
    </TTGlyph>
    <TTGlyph name="brevetildecomb" xMin="287" yMin="1222" xMax="959" yMax="1762">
      <contour>
        <pt x="948" y="1456" on="1"/>
        <pt x="950" y="1450" on="1"/>
        <pt x="934" y="1343" on="0"/>
        <pt x="737" y="1222" on="0"/>
        <pt x="585" y="1222" on="1"/>
        <pt x="446" y="1222" on="0"/>
        <pt x="287" y="1352" on="0"/>
        <pt x="313" y="1450" on="1"/>
        <pt x="315" y="1456" on="1"/>
        <pt x="524" y="1456" on="1"/>
        <pt x="515" y="1411" on="0"/>
        <pt x="556" y="1360" on="0"/>
        <pt x="613" y="1360" on="1"/>
        <pt x="665" y="1360" on="0"/>
        <pt x="731" y="1415" on="0"/>
        <pt x="740" y="1456" on="1"/>
      </contour>
      <contour>
        <pt x="959" y="1728" on="1"/>
        <pt x="943" y="1649" on="0"/>
        <pt x="835" y="1547" on="0"/>
        <pt x="769" y="1547" on="1"/>
        <pt x="723" y="1547" on="0"/>
        <pt x="604" y="1615" on="0"/>
        <pt x="567" y="1615" on="1"/>
        <pt x="543" y="1615" on="0"/>
        <pt x="497" y="1565" on="0"/>
        <pt x="490" y="1529" on="1"/>
        <pt x="379" y="1562" on="1"/>
        <pt x="394" y="1640" on="0"/>
        <pt x="501" y="1744" on="0"/>
        <pt x="569" y="1744" on="1"/>
        <pt x="603" y="1744" on="0"/>
        <pt x="732" y="1677" on="0"/>
        <pt x="771" y="1677" on="1"/>
        <pt x="793" y="1677" on="0"/>
        <pt x="840" y="1727" on="0"/>
        <pt x="847" y="1762" on="1"/>
      </contour>
    </TTGlyph>
    <TTGlyph name="brokenbar" xMin="-19" yMin="-270" xMax="584" yMax="1456">
      <contour>
        <pt x="-19" y="-270" on="1"/>
        <pt x="140" y="525" on="1"/>
        <pt x="398" y="525" on="1"/>
        <pt x="239" y="-270" on="1"/>
      </contour>
      <contour>
        <pt x="433" y="698" on="1"/>
        <pt x="175" y="698" on="1"/>
        <pt x="326" y="1456" on="1"/>
        <pt x="584" y="1456" on="1"/>
      </contour>
    </TTGlyph>
    <TTGlyph name="bullet" xMin="167" yMin="491" xMax="679" yMax="1034">
      <contour>
        <pt x="205" y="806" on="1"/>
        <pt x="226" y="912" on="0"/>
        <pt x="373" y="1034" on="0"/>
        <pt x="477" y="1034" on="1"/>
        <pt x="575" y="1034" on="0"/>
        <pt x="679" y="905" on="0"/>
        <pt x="659" y="806" on="1"/>
        <pt x="641" y="716" on="1"/>
        <pt x="620" y="609" on="0"/>
        <pt x="475" y="491" on="0"/>
        <pt x="369" y="491" on="1"/>
        <pt x="273" y="491" on="0"/>
        <pt x="167" y="618" on="0"/>
        <pt x="187" y="716" on="1"/>
      </contour>
    </TTGlyph>
    <TTGlyph name="c" xMin="36" yMin="-21" xMax="1018" yMax="1102">
      <contour>
        <pt x="495" y="203" on="1"/>
        <pt x="562" y="203" on="0"/>
        <pt x="657" y="294" on="0"/>
        <pt x="670" y="370" on="1"/>
        <pt x="931" y="370" on="1"/>
        <pt x="933" y="364" on="1"/>
        <pt x="910" y="193" on="0"/>
        <pt x="640" y="-21" on="0"/>
        <pt x="460" y="-21" on="1"/>
        <pt x="241" y="-21" on="0"/>
        <pt x="36" y="289" on="0"/>
        <pt x="74" y="525" on="1"/>
        <pt x="79" y="555" on="1"/>
        <pt x="118" y="802" on="0"/>
        <pt x="409" y="1102" on="0"/>
        <pt x="638" y="1102" on="1"/>
        <pt x="820" y="1102" on="0"/>
        <pt x="1018" y="872" on="0"/>
        <pt x="985" y="687" on="1"/>
        <pt x="983" y="682" on="1"/>
        <pt x="720" y="682" on="1"/>
        <pt x="734" y="769" on="0"/>
        <pt x="675" y="877" on="0"/>
        <pt x="602" y="877" on="1"/>
        <pt x="504" y="877" on="0"/>
        <pt x="389" y="695" on="0"/>
        <pt x="367" y="555" on="1"/>
        <pt x="362" y="525" on="1"/>
        <pt x="338" y="374" on="0"/>
        <pt x="390" y="203" on="0"/>
      </contour>
    </TTGlyph>
    <TTGlyph name="cacute" xMin="36" yMin="-21" xMax="1018" yMax="1504">
      <component glyphName="c" x="0" y="0" flags="0x204"/>
      <component glyphName="acute" x="253" y="26" flags="0x4"/>
    </TTGlyph>
    <TTGlyph name="caron" xMin="312" yMin="1252" xMax="1040" yMax="1524">
      <contour>
        <pt x="651" y="1397" on="1"/>
        <pt x="781" y="1524" on="1"/>
        <pt x="1040" y="1524" on="1"/>
        <pt x="1036" y="1507" on="1"/>
        <pt x="719" y="1252" on="1"/>
        <pt x="526" y="1252" on="1"/>
        <pt x="312" y="1508" on="1"/>
        <pt x="315" y="1524" on="1"/>
        <pt x="574" y="1524" on="1"/>
      </contour>
    </TTGlyph>
    <TTGlyph name="ccaron" xMin="36" yMin="-21" xMax="1048" yMax="1551">
      <component glyphName="c" x="0" y="0" flags="0x204"/>
      <component glyphName="caron" x="8" y="27" flags="0x4"/>
    </TTGlyph>
    <TTGlyph name="ccedilla" xMin="36" yMin="-458" xMax="1018" yMax="1102">
      <component glyphName="c" x="0" y="0" flags="0x204"/>
      <component glyphName="cedilla" x="308" y="-1" flags="0x4"/>
    </TTGlyph>
    <TTGlyph name="ccircumflex" xMin="36" yMin="-21" xMax="1018" yMax="1536">
      <component glyphName="c" x="0" y="0" flags="0x204"/>
      <component glyphName="circumflex" x="-13" y="18" flags="0x4"/>
    </TTGlyph>
    <TTGlyph name="cedilla" xMin="-42" yMin="-457" xMax="348" yMax="6">
      <contour>
        <pt x="254" y="6" on="1"/>
        <pt x="232" y="-51" on="1"/>
        <pt x="287" y="-62" on="0"/>
        <pt x="348" y="-144" on="0"/>
        <pt x="333" y="-224" on="1"/>
        <pt x="310" y="-338" on="0"/>
        <pt x="119" y="-457" on="0"/>
        <pt x="-37" y="-455" on="1"/>
        <pt x="-42" y="-452" on="1"/>
        <pt x="-18" y="-298" on="1"/>
        <pt x="23" y="-298" on="0"/>
        <pt x="83" y="-257" on="0"/>
        <pt x="92" y="-215" on="1"/>
        <pt x="100" y="-171" on="0"/>
        <pt x="51" y="-141" on="0"/>
        <pt x="-19" y="-136" on="1"/>
        <pt x="38" y="6" on="1"/>
      </contour>
    </TTGlyph>
    <TTGlyph name="cent" xMin="77" yMin="-245" xMax="1050" yMax="1318">
      <contour>
        <pt x="531" y="203" on="1"/>
        <pt x="598" y="203" on="0"/>
        <pt x="693" y="294" on="0"/>
        <pt x="706" y="370" on="1"/>
        <pt x="968" y="370" on="1"/>
        <pt x="970" y="364" on="1"/>
        <pt x="949" y="213" on="0"/>
        <pt x="730" y="7" on="0"/>
        <pt x="575" y="-15" on="1"/>
        <pt x="529" y="-245" on="1"/>
        <pt x="333" y="-245" on="1"/>
        <pt x="380" y="-7" on="1"/>
        <pt x="219" y="32" on="0"/>
        <pt x="77" y="324" on="0"/>
        <pt x="110" y="525" on="1"/>
        <pt x="115" y="555" on="1"/>
        <pt x="151" y="781" on="0"/>
        <pt x="403" y="1073" on="0"/>
        <pt x="601" y="1097" on="1"/>
        <pt x="646" y="1318" on="1"/>
        <pt x="842" y="1318" on="1"/>
        <pt x="795" y="1086" on="1"/>
        <pt x="922" y="1049" on="0"/>
        <pt x="1050" y="835" on="0"/>
        <pt x="1026" y="682" on="1"/>
        <pt x="756" y="682" on="1"/>
        <pt x="770" y="769" on="0"/>
        <pt x="711" y="877" on="0"/>
        <pt x="638" y="877" on="1"/>
        <pt x="540" y="877" on="0"/>
        <pt x="425" y="695" on="0"/>
        <pt x="403" y="555" on="1"/>
        <pt x="398" y="525" on="1"/>
        <pt x="374" y="374" on="0"/>
        <pt x="426" y="203" on="0"/>
      </contour>
    </TTGlyph>
    <TTGlyph name="chi" xMin="-106" yMin="-434" xMax="1155" yMax="1098">
      <contour>
        <pt x="313" y="1098" on="1"/>
        <pt x="447" y="1098" on="0"/>
        <pt x="573" y="932" on="0"/>
        <pt x="588" y="825" on="1"/>
        <pt x="611" y="703" on="1"/>
        <pt x="617" y="702" on="1"/>
        <pt x="864" y="1082" on="1"/>
        <pt x="1155" y="1082" on="1"/>
        <pt x="680" y="353" on="1"/>
        <pt x="763" y="-73" on="1"/>
        <pt x="769" y="-124" on="0"/>
        <pt x="808" y="-190" on="0"/>
        <pt x="843" y="-198" on="1"/>
        <pt x="854" y="-200" on="0"/>
        <pt x="876" y="-201" on="0"/>
        <pt x="890" y="-201" on="1"/>
        <pt x="834" y="-423" on="1"/>
        <pt x="803" y="-429" on="0"/>
        <pt x="730" y="-434" on="0"/>
        <pt x="698" y="-431" on="1"/>
        <pt x="594" y="-421" on="0"/>
        <pt x="500" y="-237" on="0"/>
        <pt x="483" y="-107" on="1"/>
        <pt x="461" y="6" on="1"/>
        <pt x="455" y="7" on="1"/>
        <pt x="179" y="-416" on="1"/>
        <pt x="-106" y="-416" on="1"/>
        <pt x="393" y="355" on="1"/>
        <pt x="317" y="748" on="1"/>
        <pt x="308" y="804" on="0"/>
        <pt x="234" y="870" on="0"/>
        <pt x="181" y="870" on="1"/>
        <pt x="170" y="870" on="0"/>
        <pt x="129" y="866" on="0"/>
        <pt x="119" y="864" on="1"/>
        <pt x="155" y="1076" on="1"/>
        <pt x="201" y="1087" on="0"/>
        <pt x="272" y="1098" on="0"/>
      </contour>
    </TTGlyph>
    <TTGlyph name="circumflex" xMin="296" yMin="1252" xMax="1004" yMax="1518">
      <contour>
        <pt x="1004" y="1275" on="1"/>
        <pt x="999" y="1252" on="1"/>
        <pt x="772" y="1252" on="1"/>
        <pt x="672" y="1385" on="1"/>
        <pt x="519" y="1252" on="1"/>
        <pt x="296" y="1252" on="1"/>
        <pt x="302" y="1278" on="1"/>
        <pt x="618" y="1518" on="1"/>
        <pt x="781" y="1518" on="1"/>
      </contour>
    </TTGlyph>
    <TTGlyph name="circumflexacutecomb" xMin="252" yMin="1259" xMax="1448" yMax="1695">
      <contour>
        <pt x="1188" y="1695" on="1"/>
        <pt x="1445" y="1695" on="1"/>
        <pt x="1448" y="1689" on="1"/>
        <pt x="1197" y="1424" on="1"/>
        <pt x="997" y="1424" on="1"/>
      </contour>
      <contour>
        <pt x="1036" y="1265" on="1"/>
        <pt x="1034" y="1259" on="1"/>
        <pt x="788" y="1259" on="1"/>
        <pt x="671" y="1396" on="1"/>
        <pt x="499" y="1259" on="1"/>
        <pt x="254" y="1259" on="1"/>
        <pt x="252" y="1265" on="1"/>
        <pt x="574" y="1493" on="1"/>
        <pt x="808" y="1493" on="1"/>
      </contour>
    </TTGlyph>
    <TTGlyph name="circumflexgravecomb" xMin="23" yMin="1259" xMax="1036" yMax="1695">
      <contour>
        <pt x="370" y="1424" on="1"/>
        <pt x="171" y="1424" on="1"/>
        <pt x="23" y="1695" on="1"/>
        <pt x="286" y="1695" on="1"/>
      </contour>
      <contour>
        <pt x="1036" y="1265" on="1"/>
        <pt x="1034" y="1259" on="1"/>
        <pt x="788" y="1259" on="1"/>
        <pt x="671" y="1396" on="1"/>
        <pt x="499" y="1259" on="1"/>
        <pt x="254" y="1259" on="1"/>
        <pt x="252" y="1265" on="1"/>
        <pt x="574" y="1493" on="1"/>
        <pt x="808" y="1493" on="1"/>
      </contour>
    </TTGlyph>
    <TTGlyph name="circumflexhookcomb" xMin="252" yMin="1259" xMax="1344" yMax="1730">
      <contour>
        <pt x="997" y="1388" on="1"/>
        <pt x="1007" y="1504" on="1"/>
        <pt x="1065" y="1507" on="0"/>
        <pt x="1119" y="1530" on="0"/>
        <pt x="1125" y="1559" on="1"/>
        <pt x="1131" y="1591" on="0"/>
        <pt x="1077" y="1619" on="0"/>
        <pt x="1029" y="1619" on="1"/>
        <pt x="1057" y="1730" on="1"/>
        <pt x="1208" y="1730" on="0"/>
        <pt x="1344" y="1648" on="0"/>
        <pt x="1328" y="1566" on="1"/>
        <pt x="1316" y="1511" on="0"/>
        <pt x="1239" y="1450" on="0"/>
        <pt x="1190" y="1443" on="1"/>
        <pt x="1179" y="1388" on="1"/>
      </contour>
      <contour>
        <pt x="1036" y="1265" on="1"/>
        <pt x="1034" y="1259" on="1"/>
        <pt x="788" y="1259" on="1"/>
        <pt x="671" y="1396" on="1"/>
        <pt x="499" y="1259" on="1"/>
        <pt x="254" y="1259" on="1"/>
        <pt x="252" y="1265" on="1"/>
        <pt x="574" y="1493" on="1"/>
        <pt x="808" y="1493" on="1"/>
      </contour>
    </TTGlyph>
    <TTGlyph name="circumflextildecomb" xMin="252" yMin="1259" xMax="1036" yMax="1779">
      <contour>
        <pt x="1036" y="1265" on="1"/>
        <pt x="1034" y="1259" on="1"/>
        <pt x="788" y="1259" on="1"/>
        <pt x="671" y="1396" on="1"/>
        <pt x="499" y="1259" on="1"/>
        <pt x="254" y="1259" on="1"/>
        <pt x="252" y="1265" on="1"/>
        <pt x="574" y="1493" on="1"/>
        <pt x="808" y="1493" on="1"/>
      </contour>
      <contour>
        <pt x="1004" y="1740" on="1"/>
        <pt x="989" y="1666" on="0"/>
        <pt x="892" y="1564" on="0"/>
        <pt x="830" y="1564" on="1"/>
        <pt x="788" y="1564" on="0"/>
        <pt x="663" y="1634" on="0"/>
        <pt x="627" y="1634" on="1"/>
        <pt x="606" y="1634" on="0"/>
        <pt x="565" y="1583" on="0"/>
        <pt x="559" y="1550" on="1"/>
        <pt x="457" y="1580" on="1"/>
        <pt x="471" y="1653" on="0"/>
        <pt x="568" y="1758" on="0"/>
        <pt x="629" y="1758" on="1"/>
        <pt x="662" y="1758" on="0"/>
        <pt x="797" y="1690" on="0"/>
        <pt x="833" y="1690" on="1"/>
        <pt x="852" y="1690" on="0"/>
        <pt x="895" y="1745" on="0"/>
        <pt x="902" y="1779" on="1"/>
      </contour>
    </TTGlyph>
    <TTGlyph name="colon" xMin="54" yMin="0" xMax="556" yMax="1081">
      <component glyphName="period" x="2" y="0" flags="0x4"/>
      <component glyphName="period" x="167" y="825" flags="0x4"/>
    </TTGlyph>
    <TTGlyph name="comma" xMin="-95" yMin="-302" xMax="337" yMax="243">
      <contour>
        <pt x="291" y="13" on="1"/>
        <pt x="73" y="-302" on="1"/>
        <pt x="-95" y="-302" on="1"/>
        <pt x="34" y="22" on="1"/>
        <pt x="79" y="243" on="1"/>
        <pt x="337" y="243" on="1"/>
      </contour>
    </TTGlyph>
    <TTGlyph name="commaaccent" xMin="-56" yMin="-124" xMax="267" yMax="272">
      <contour>
        <pt x="235" y="111" on="1"/>
        <pt x="62" y="-124" on="1"/>
        <pt x="-56" y="-124" on="1"/>
        <pt x="51" y="121" on="1"/>
        <pt x="81" y="272" on="1"/>
        <pt x="267" y="272" on="1"/>
      </contour>
    </TTGlyph>
    <TTGlyph name="commaaccentrotate" xMin="256" yMin="1104" xMax="609" yMax="1539">
      <contour>
        <pt x="291" y="1279" on="1"/>
        <pt x="454" y="1539" on="1"/>
        <pt x="609" y="1539" on="1"/>
        <pt x="524" y="1269" on="1"/>
        <pt x="491" y="1104" on="1"/>
        <pt x="256" y="1104" on="1"/>
      </contour>
    </TTGlyph>
    <TTGlyph name="copyright" xMin="78" yMin="-21" xMax="1499" yMax="1476">
      <contour>
        <pt x="1059" y="596" on="1"/>
        <pt x="1061" y="590" on="1"/>
        <pt x="1040" y="434" on="0"/>
        <pt x="854" y="282" on="0"/>
        <pt x="704" y="282" on="1"/>
        <pt x="560" y="282" on="0"/>
        <pt x="412" y="497" on="0"/>
        <pt x="440" y="669" on="1"/>
        <pt x="459" y="788" on="1"/>
        <pt x="487" y="967" on="0"/>
        <pt x="695" y="1175" on="0"/>
        <pt x="847" y="1175" on="1"/>
        <pt x="989" y="1175" on="0"/>
        <pt x="1134" y="1014" on="0"/>
        <pt x="1107" y="866" on="1"/>
        <pt x="1105" y="861" on="1"/>
        <pt x="960" y="861" on="1"/>
        <pt x="975" y="958" on="0"/>
        <pt x="908" y="1040" on="0"/>
        <pt x="825" y="1040" on="1"/>
        <pt x="743" y="1040" on="0"/>
        <pt x="628" y="901" on="0"/>
        <pt x="610" y="789" on="1"/>
        <pt x="591" y="669" on="1"/>
        <pt x="571" y="550" on="0"/>
        <pt x="640" y="417" on="0"/>
        <pt x="726" y="417" on="1"/>
        <pt x="805" y="417" on="0"/>
        <pt x="901" y="501" on="0"/>
        <pt x="916" y="596" on="1"/>
      </contour>
      <contour>
        <pt x="247" y="729" on="1"/>
        <pt x="202" y="455" on="0"/>
        <pt x="460" y="104" on="0"/>
        <pt x="690" y="104" on="1"/>
        <pt x="906" y="104" on="0"/>
        <pt x="1288" y="468" on="0"/>
        <pt x="1331" y="729" on="1"/>
        <pt x="1374" y="1002" on="0"/>
        <pt x="1117" y="1351" on="0"/>
        <pt x="889" y="1351" on="1"/>
        <pt x="671" y="1351" on="0"/>
        <pt x="288" y="989" on="0"/>
      </contour>
      <contour>
        <pt x="129" y="729" on="1"/>
        <pt x="181" y="1056" on="0"/>
        <pt x="630" y="1476" on="0"/>
        <pt x="909" y="1476" on="1"/>
        <pt x="1172" y="1476" on="0"/>
        <pt x="1499" y="1040" on="0"/>
        <pt x="1450" y="729" on="1"/>
        <pt x="1397" y="401" on="0"/>
        <pt x="947" y="-21" on="0"/>
        <pt x="670" y="-21" on="1"/>
        <pt x="405" y="-21" on="0"/>
        <pt x="78" y="416" on="0"/>
      </contour>
    </TTGlyph>
    <TTGlyph name="crossbar" xMin="198" yMin="648" xMax="864" yMax="829">
      <contour>
        <pt x="828" y="648" on="1"/>
        <pt x="198" y="648" on="1"/>
        <pt x="234" y="829" on="1"/>
        <pt x="864" y="829" on="1"/>
      </contour>
    </TTGlyph>
    <TTGlyph name="currency" xMin="16" yMin="-27" xMax="1393" yMax="1265">
      <contour>
        <pt x="935" y="99" on="1"/>
        <pt x="853" y="41" on="0"/>
        <pt x="669" y="-20" on="0"/>
        <pt x="575" y="-20" on="1"/>
        <pt x="488" y="-20" on="0"/>
        <pt x="333" y="46" on="0"/>
        <pt x="274" y="108" on="1"/>
        <pt x="125" y="-26" on="1"/>
        <pt x="16" y="118" on="1"/>
        <pt x="175" y="260" on="1"/>
        <pt x="143" y="336" on="0"/>
        <pt x="127" y="512" on="0"/>
        <pt x="147" y="608" on="1"/>
        <pt x="168" y="715" on="0"/>
        <pt x="255" y="902" on="0"/>
        <pt x="317" y="978" on="1"/>
        <pt x="216" y="1120" on="1"/>
        <pt x="383" y="1264" on="1"/>
        <pt x="481" y="1127" on="1"/>
        <pt x="560" y="1179" on="0"/>
        <pt x="735" y="1234" on="0"/>
        <pt x="826" y="1234" on="1"/>
        <pt x="908" y="1234" on="0"/>
        <pt x="1058" y="1172" on="0"/>
        <pt x="1118" y="1115" on="1"/>
        <pt x="1283" y="1265" on="1"/>
        <pt x="1393" y="1120" on="1"/>
        <pt x="1221" y="965" on="1"/>
        <pt x="1254" y="887" on="0"/>
        <pt x="1272" y="706" on="0"/>
        <pt x="1253" y="608" on="1"/>
        <pt x="1232" y="506" on="0"/>
        <pt x="1152" y="327" on="0"/>
        <pt x="1096" y="254" on="1"/>
        <pt x="1193" y="118" on="1"/>
        <pt x="1025" y="-27" on="1"/>
      </contour>
      <contour>
        <pt x="329" y="608" on="1"/>
        <pt x="289" y="411" on="0"/>
        <pt x="454" y="169" on="0"/>
        <pt x="613" y="169" on="1"/>
        <pt x="757" y="169" on="0"/>
        <pt x="1035" y="427" on="0"/>
        <pt x="1072" y="608" on="1"/>
        <pt x="1110" y="803" on="0"/>
        <pt x="945" y="1045" on="0"/>
        <pt x="788" y="1045" on="1"/>
        <pt x="642" y="1045" on="0"/>
        <pt x="364" y="788" on="0"/>
      </contour>
    </TTGlyph>
    <TTGlyph name="cyrillicbreve" xMin="243" yMin="1162" xMax="912" yMax="1456">
      <component glyphName="breve" x="0" y="0" flags="0x204"/>
    </TTGlyph>
    <TTGlyph name="cyrillichook" xMin="-251" yMin="-437" xMax="379" yMax="247">
      <contour>
        <pt x="379" y="247" on="1"/>
        <pt x="322" y="-40" on="1"/>
        <pt x="281" y="-243" on="0"/>
        <pt x="55" y="-437" on="0"/>
        <pt x="-119" y="-437" on="1"/>
        <pt x="-154" y="-437" on="0"/>
        <pt x="-219" y="-429" on="0"/>
        <pt x="-251" y="-420" on="1"/>
        <pt x="-193" y="-196" on="1"/>
        <pt x="-173" y="-201" on="0"/>
        <pt x="-129" y="-208" on="0"/>
        <pt x="-105" y="-208" on="1"/>
        <pt x="-57" y="-208" on="0"/>
        <pt x="16" y="-120" on="0"/>
        <pt x="33" y="-40" on="1"/>
        <pt x="90" y="247" on="1"/>
      </contour>
    </TTGlyph>
    <TTGlyph name="cyrillichookleft" xMin="-130" yMin="-417" xMax="344" yMax="63">
      <contour>
        <pt x="212" y="63" on="1"/>
        <pt x="289" y="11" on="0"/>
        <pt x="344" y="-127" on="0"/>
        <pt x="329" y="-203" on="1"/>
        <pt x="307" y="-311" on="0"/>
        <pt x="151" y="-417" on="0"/>
        <pt x="43" y="-417" on="1"/>
        <pt x="-12" y="-417" on="0"/>
        <pt x="-101" y="-391" on="0"/>
        <pt x="-130" y="-373" on="1"/>
        <pt x="-65" y="-219" on="1"/>
        <pt x="-44" y="-228" on="0"/>
        <pt x="-5" y="-239" on="0"/>
        <pt x="22" y="-239" on="1"/>
        <pt x="68" y="-239" on="0"/>
        <pt x="115" y="-194" on="0"/>
        <pt x="121" y="-169" on="1"/>
        <pt x="130" y="-118" on="0"/>
        <pt x="102" y="-53" on="0"/>
        <pt x="65" y="0" on="1"/>
      </contour>
    </TTGlyph>
    <TTGlyph name="cyrillictic" xMin="-74" yMin="-357" xMax="325" yMax="201">
      <contour>
        <pt x="214" y="-357" on="1"/>
        <pt x="-74" y="-357" on="1"/>
        <pt x="37" y="201" on="1"/>
        <pt x="325" y="201" on="1"/>
      </contour>
    </TTGlyph>
    <TTGlyph name="d" xMin="37" yMin="-21" xMax="1207" yMax="1560">
      <contour>
        <pt x="88" y="552" on="1"/>
        <pt x="143" y="825" on="0"/>
        <pt x="383" y="1102" on="0"/>
        <pt x="573" y="1102" on="1"/>
        <pt x="643" y="1102" on="0"/>
        <pt x="762" y="1039" on="0"/>
        <pt x="803" y="982" on="1"/>
        <pt x="918" y="1560" on="1"/>
        <pt x="1207" y="1560" on="1"/>
        <pt x="895" y="0" on="1"/>
        <pt x="645" y="0" on="1"/>
        <pt x="648" y="107" on="1"/>
        <pt x="590" y="45" on="0"/>
        <pt x="458" y="-21" on="0"/>
        <pt x="385" y="-21" on="1"/>
        <pt x="211" y="-21" on="0"/>
        <pt x="37" y="297" on="0"/>
        <pt x="84" y="531" on="1"/>
      </contour>
      <contour>
        <pt x="372" y="531" on="1"/>
        <pt x="341" y="378" on="0"/>
        <pt x="393" y="206" on="0"/>
        <pt x="490" y="206" on="1"/>
        <pt x="540" y="206" on="0"/>
        <pt x="632" y="266" on="0"/>
        <pt x="670" y="320" on="1"/>
        <pt x="764" y="790" on="1"/>
        <pt x="746" y="831" on="0"/>
        <pt x="672" y="875" on="0"/>
        <pt x="618" y="875" on="1"/>
        <pt x="529" y="875" on="0"/>
        <pt x="405" y="700" on="0"/>
        <pt x="376" y="552" on="1"/>
      </contour>
    </TTGlyph>
    <TTGlyph name="dagger" xMin="123" yMin="0" xMax="1080" yMax="1456">
      <contour>
        <pt x="1043" y="850" on="1"/>
        <pt x="724" y="850" on="1"/>
        <pt x="588" y="0" on="1"/>
        <pt x="300" y="0" on="1"/>
        <pt x="436" y="850" on="1"/>
        <pt x="123" y="850" on="1"/>
        <pt x="160" y="1082" on="1"/>
        <pt x="473" y="1082" on="1"/>
        <pt x="533" y="1456" on="1"/>
        <pt x="821" y="1456" on="1"/>
        <pt x="761" y="1082" on="1"/>
        <pt x="1080" y="1082" on="1"/>
      </contour>
    </TTGlyph>
    <TTGlyph name="daggerdbl" xMin="27" yMin="-416" xMax="1120" yMax="1456">
      <contour>
        <pt x="947" y="0" on="1"/>
        <pt x="629" y="0" on="1"/>
        <pt x="563" y="-416" on="1"/>
        <pt x="274" y="-416" on="1"/>
        <pt x="340" y="0" on="1"/>
        <pt x="27" y="0" on="1"/>
        <pt x="63" y="224" on="1"/>
        <pt x="376" y="224" on="1"/>
        <pt x="478" y="856" on="1"/>
        <pt x="164" y="856" on="1"/>
        <pt x="200" y="1082" on="1"/>
        <pt x="514" y="1082" on="1"/>
        <pt x="574" y="1456" on="1"/>
        <pt x="863" y="1456" on="1"/>
        <pt x="803" y="1082" on="1"/>
        <pt x="1120" y="1082" on="1"/>
        <pt x="1084" y="856" on="1"/>
        <pt x="767" y="856" on="1"/>
        <pt x="665" y="224" on="1"/>
        <pt x="983" y="224" on="1"/>
      </contour>
    </TTGlyph>
    <TTGlyph name="dasiaoxia" xMin="251" yMin="1135" xMax="888" yMax="1477">
      <contour>
        <pt x="529" y="1164" on="1"/>
        <pt x="686" y="1477" on="1"/>
        <pt x="888" y="1477" on="1"/>
        <pt x="884" y="1456" on="1"/>
        <pt x="603" y="1137" on="1"/>
        <pt x="523" y="1137" on="1"/>
      </contour>
      <contour>
        <pt x="282" y="1290" on="1"/>
        <pt x="460" y="1476" on="1"/>
        <pt x="562" y="1476" on="1"/>
        <pt x="446" y="1272" on="1"/>
        <pt x="419" y="1135" on="1"/>
        <pt x="251" y="1135" on="1"/>
      </contour>
    </TTGlyph>
    <TTGlyph name="dcaron" xMin="37" yMin="-21" xMax="1515" yMax="1560">
      <component glyphName="d" x="0" y="0" flags="0x4"/>
      <component glyphName="commaaccent" x="1248" y="1287" flags="0x4"/>
    </TTGlyph>
    <TTGlyph name="dcroat" xMin="37" yMin="-21" xMax="1307" yMax="1560">
      <contour>
        <pt x="1271" y="1220" on="1"/>
        <pt x="1139" y="1220" on="1"/>
        <pt x="895" y="0" on="1"/>
        <pt x="645" y="0" on="1"/>
        <pt x="648" y="107" on="1"/>
        <pt x="590" y="45" on="0"/>
        <pt x="458" y="-21" on="0"/>
        <pt x="385" y="-21" on="1"/>
        <pt x="211" y="-21" on="0"/>
        <pt x="37" y="297" on="0"/>
        <pt x="84" y="531" on="1"/>
        <pt x="88" y="552" on="1"/>
        <pt x="143" y="825" on="0"/>
        <pt x="383" y="1102" on="0"/>
        <pt x="573" y="1102" on="1"/>
        <pt x="643" y="1102" on="0"/>
        <pt x="762" y="1039" on="0"/>
        <pt x="803" y="982" on="1"/>
        <pt x="850" y="1220" on="1"/>
        <pt x="641" y="1220" on="1"/>
        <pt x="677" y="1401" on="1"/>
        <pt x="886" y="1401" on="1"/>
        <pt x="918" y="1560" on="1"/>
        <pt x="1207" y="1560" on="1"/>
        <pt x="1175" y="1401" on="1"/>
        <pt x="1307" y="1401" on="1"/>
      </contour>
      <contour>
        <pt x="372" y="531" on="1"/>
        <pt x="341" y="378" on="0"/>
        <pt x="393" y="206" on="0"/>
        <pt x="490" y="206" on="1"/>
        <pt x="540" y="206" on="0"/>
        <pt x="632" y="266" on="0"/>
        <pt x="670" y="320" on="1"/>
        <pt x="764" y="790" on="1"/>
        <pt x="746" y="831" on="0"/>
        <pt x="672" y="875" on="0"/>
        <pt x="618" y="875" on="1"/>
        <pt x="529" y="875" on="0"/>
        <pt x="405" y="700" on="0"/>
        <pt x="376" y="552" on="1"/>
      </contour>
    </TTGlyph>
    <TTGlyph name="degree" xMin="253" yMin="932" xMax="806" yMax="1477">
      <contour>
        <pt x="276" y="1203" on="1"/>
        <pt x="299" y="1322" on="0"/>
        <pt x="479" y="1477" on="0"/>
        <pt x="587" y="1477" on="1"/>
        <pt x="683" y="1477" on="0"/>
        <pt x="806" y="1313" on="0"/>
        <pt x="784" y="1203" on="1"/>
        <pt x="759" y="1082" on="0"/>
        <pt x="584" y="932" on="0"/>
        <pt x="478" y="932" on="1"/>
        <pt x="379" y="932" on="0"/>
        <pt x="253" y="1092" on="0"/>
      </contour>
      <contour>
        <pt x="419" y="1203" on="1"/>
        <pt x="407" y="1147" on="0"/>
        <pt x="460" y="1079" on="0"/>
        <pt x="508" y="1079" on="1"/>
        <pt x="550" y="1079" on="0"/>
        <pt x="630" y="1150" on="0"/>
        <pt x="641" y="1203" on="1"/>
        <pt x="652" y="1260" on="0"/>
        <pt x="604" y="1331" on="0"/>
        <pt x="558" y="1331" on="1"/>
        <pt x="514" y="1331" on="0"/>
        <pt x="429" y="1256" on="0"/>
      </contour>
    </TTGlyph>
    <TTGlyph name="delta" xMin="36" yMin="-21" xMax="1126" yMax="1456">
      <contour>
        <pt x="1126" y="1456" on="1"/>
        <pt x="1081" y="1232" on="1"/>
        <pt x="725" y="1232" on="1"/>
        <pt x="877" y="1108" on="0"/>
        <pt x="1085" y="749" on="0"/>
        <pt x="1046" y="551" on="1"/>
        <pt x="1042" y="530" on="1"/>
        <pt x="990" y="271" on="0"/>
        <pt x="683" y="-21" on="0"/>
        <pt x="455" y="-21" on="1"/>
        <pt x="244" y="-21" on="0"/>
        <pt x="36" y="276" on="0"/>
        <pt x="82" y="504" on="1"/>
        <pt x="86" y="525" on="1"/>
        <pt x="128" y="734" on="0"/>
        <pt x="379" y="995" on="0"/>
        <pt x="548" y="1025" on="1"/>
        <pt x="550" y="1025" on="0"/>
        <pt x="552" y="1026" on="0"/>
        <pt x="553" y="1026" on="1"/>
        <pt x="508" y="1092" on="0"/>
        <pt x="401" y="1218" on="0"/>
        <pt x="344" y="1272" on="1"/>
        <pt x="381" y="1456" on="1"/>
      </contour>
      <contour>
        <pt x="374" y="530" on="1"/>
        <pt x="342" y="373" on="0"/>
        <pt x="396" y="203" on="0"/>
        <pt x="500" y="203" on="1"/>
        <pt x="592" y="203" on="0"/>
        <pt x="724" y="386" on="0"/>
        <pt x="753" y="530" on="1"/>
        <pt x="757" y="551" on="1"/>
        <pt x="780" y="666" on="0"/>
        <pt x="729" y="825" on="0"/>
        <pt x="671" y="869" on="1"/>
        <pt x="662" y="872" on="0"/>
        <pt x="643" y="877" on="0"/>
        <pt x="632" y="877" on="1"/>
        <pt x="539" y="877" on="0"/>
        <pt x="406" y="691" on="0"/>
        <pt x="378" y="551" on="1"/>
      </contour>
    </TTGlyph>
    <TTGlyph name="dieresis" xMin="280" yMin="1252" xMax="1037" yMax="1456">
      <contour>
        <pt x="1004" y="1252" on="1"/>
        <pt x="747" y="1252" on="1"/>
        <pt x="780" y="1456" on="1"/>
        <pt x="1037" y="1456" on="1"/>
      </contour>
      <contour>
        <pt x="537" y="1252" on="1"/>
        <pt x="280" y="1252" on="1"/>
        <pt x="313" y="1456" on="1"/>
        <pt x="570" y="1456" on="1"/>
      </contour>
    </TTGlyph>
    <TTGlyph name="dieresistonos" xMin="311" yMin="1252" xMax="1112" yMax="1757">
      <contour>
        <pt x="1071" y="1252" on="1"/>
        <pt x="826" y="1252" on="1"/>
        <pt x="867" y="1456" on="1"/>
        <pt x="1112" y="1456" on="1"/>
      </contour>
      <contour>
        <pt x="556" y="1252" on="1"/>
        <pt x="311" y="1252" on="1"/>
        <pt x="352" y="1456" on="1"/>
        <pt x="597" y="1456" on="1"/>
      </contour>
      <contour>
        <pt x="758" y="1757" on="1"/>
        <pt x="1024" y="1757" on="1"/>
        <pt x="1027" y="1752" on="1"/>
        <pt x="808" y="1478" on="1"/>
        <pt x="663" y="1478" on="1"/>
      </contour>
    </TTGlyph>
    <TTGlyph name="divide" xMin="93" yMin="164" xMax="1097" yMax="1206">
      <contour>
        <pt x="1052" y="573" on="1"/>
        <pt x="93" y="573" on="1"/>
        <pt x="138" y="800" on="1"/>
        <pt x="1097" y="800" on="1"/>
      </contour>
      <contour>
        <pt x="796" y="973" on="1"/>
        <pt x="510" y="973" on="1"/>
        <pt x="556" y="1206" on="1"/>
        <pt x="842" y="1206" on="1"/>
      </contour>
      <contour>
        <pt x="634" y="164" on="1"/>
        <pt x="348" y="164" on="1"/>
        <pt x="394" y="397" on="1"/>
        <pt x="680" y="397" on="1"/>
      </contour>
    </TTGlyph>
    <TTGlyph name="dollar" xMin="55" yMin="-214" xMax="1137" yMax="1688">
      <contour>
        <pt x="719" y="383" on="1"/>
        <pt x="732" y="467" on="0"/>
        <pt x="668" y="565" on="0"/>
        <pt x="576" y="610" on="1"/>
        <pt x="381" y="691" on="0"/>
        <pt x="211" y="890" on="0"/>
        <pt x="240" y="1071" on="1"/>
        <pt x="267" y="1245" on="0"/>
        <pt x="501" y="1455" on="0"/>
        <pt x="674" y="1473" on="1"/>
        <pt x="709" y="1688" on="1"/>
        <pt x="864" y="1688" on="1"/>
        <pt x="829" y="1469" on="1"/>
        <pt x="983" y="1441" on="0"/>
        <pt x="1137" y="1197" on="0"/>
        <pt x="1107" y="1005" on="1"/>
        <pt x="819" y="1005" on="1"/>
        <pt x="838" y="1127" on="0"/>
        <pt x="775" y="1251" on="0"/>
        <pt x="702" y="1251" on="1"/>
        <pt x="632" y="1251" on="0"/>
        <pt x="541" y="1151" on="0"/>
        <pt x="528" y="1070" on="1"/>
        <pt x="515" y="990" on="0"/>
        <pt x="578" y="896" on="0"/>
        <pt x="675" y="848" on="1"/>
        <pt x="867" y="761" on="0"/>
        <pt x="1035" y="563" on="0"/>
        <pt x="1007" y="385" on="1"/>
        <pt x="977" y="205" on="0"/>
        <pt x="747" y="1" on="0"/>
        <pt x="571" y="-17" on="1"/>
        <pt x="540" y="-214" on="1"/>
        <pt x="384" y="-214" on="1"/>
        <pt x="415" y="-16" on="1"/>
        <pt x="249" y="5" on="0"/>
        <pt x="55" y="234" on="0"/>
        <pt x="91" y="454" on="1"/>
        <pt x="379" y="454" on="1"/>
        <pt x="356" y="314" on="0"/>
        <pt x="443" y="204" on="0"/>
        <pt x="528" y="204" on="1"/>
        <pt x="604" y="204" on="0"/>
        <pt x="705" y="302" on="0"/>
      </contour>
    </TTGlyph>
    <TTGlyph name="dotaccent" xMin="300" yMin="1227" xMax="647" yMax="1468">
      <contour>
        <pt x="598" y="1227" on="1"/>
        <pt x="300" y="1227" on="1"/>
        <pt x="349" y="1468" on="1"/>
        <pt x="647" y="1468" on="1"/>
      </contour>
    </TTGlyph>
    <TTGlyph name="dotbelow" xMin="-869" yMin="-354" xMax="-501" yMax="-113">
      <contour>
        <pt x="-549" y="-354" on="1"/>
        <pt x="-869" y="-354" on="1"/>
        <pt x="-821" y="-113" on="1"/>
        <pt x="-501" y="-113" on="1"/>
      </contour>
    </TTGlyph>
    <TTGlyph name="dotlessi" xMin="40" yMin="0" xMax="545" yMax="1082">
      <contour>
        <pt x="329" y="0" on="1"/>
        <pt x="40" y="0" on="1"/>
        <pt x="256" y="1082" on="1"/>
        <pt x="545" y="1082" on="1"/>
      </contour>
    </TTGlyph>
    <TTGlyph name="e" xMin="50" yMin="-21" xMax="1027" yMax="1103">
      <contour>
        <pt x="485" y="-21" on="1"/>
        <pt x="272" y="-21" on="0"/>
        <pt x="50" y="281" on="0"/>
        <pt x="88" y="510" on="1"/>
        <pt x="94" y="550" on="1"/>
        <pt x="134" y="801" on="0"/>
        <pt x="427" y="1103" on="0"/>
        <pt x="638" y="1102" on="1"/>
        <pt x="837" y="1102" on="0"/>
        <pt x="1027" y="835" on="0"/>
        <pt x="992" y="613" on="1"/>
        <pt x="967" y="454" on="1"/>
        <pt x="369" y="454" on="1"/>
        <pt x="361" y="339" on="0"/>
        <pt x="451" y="203" on="0"/>
        <pt x="551" y="203" on="1"/>
        <pt x="635" y="203" on="0"/>
        <pt x="765" y="243" on="0"/>
        <pt x="841" y="284" on="1"/>
        <pt x="890" y="104" on="1"/>
        <pt x="821" y="51" on="0"/>
        <pt x="608" y="-21" on="0"/>
      </contour>
      <contour>
        <pt x="602" y="877" on="1"/>
        <pt x="534" y="877" on="0"/>
        <pt x="433" y="752" on="0"/>
        <pt x="408" y="652" on="1"/>
        <pt x="410" y="647" on="1"/>
        <pt x="716" y="647" on="1"/>
        <pt x="720" y="673" on="1"/>
        <pt x="735" y="770" on="0"/>
        <pt x="680" y="877" on="0"/>
      </contour>
    </TTGlyph>
    <TTGlyph name="eacute" xMin="50" yMin="-21" xMax="1027" yMax="1505">
      <component glyphName="e" x="0" y="0" flags="0x204"/>
      <component glyphName="acute" x="267" y="27" flags="0x4"/>
    </TTGlyph>
    <TTGlyph name="ebreve" xMin="50" yMin="-21" xMax="1027" yMax="1575">
      <component glyphName="e" x="0" y="0" flags="0x204"/>
      <component glyphName="breve" x="103" y="119" flags="0x4"/>
    </TTGlyph>
    <TTGlyph name="ecaron" xMin="50" yMin="-21" xMax="1062" yMax="1552">
      <component glyphName="e" x="0" y="0" flags="0x204"/>
      <component glyphName="caron" x="22" y="28" flags="0x4"/>
    </TTGlyph>
    <TTGlyph name="ecircumflex" xMin="50" yMin="-21" xMax="1027" yMax="1537">
      <component glyphName="e" x="0" y="0" flags="0x204"/>
      <component glyphName="circumflex" x="0" y="19" flags="0x4"/>
    </TTGlyph>
    <TTGlyph name="edieresis" xMin="50" yMin="-21" xMax="1040" yMax="1484">
      <component glyphName="e" x="0" y="0" flags="0x204"/>
      <component glyphName="dieresis" x="3" y="28" flags="0x4"/>
    </TTGlyph>
    <TTGlyph name="edotaccent" xMin="50" yMin="-21" xMax="1027" yMax="1521">
      <component glyphName="e" x="0" y="0" flags="0x204"/>
      <component glyphName="dotaccent" x="193" y="53" flags="0x4"/>
    </TTGlyph>
    <TTGlyph name="egrave" xMin="50" yMin="-21" xMax="1027" yMax="1505">
      <component glyphName="e" x="0" y="0" flags="0x204"/>
      <component glyphName="grave" x="99" y="27" flags="0x4"/>
    </TTGlyph>
    <TTGlyph name="eight" xMin="44" yMin="-21" xMax="1153" yMax="1477">
      <contour>
        <pt x="1115" y="1070" on="1"/>
        <pt x="1091" y="952" on="0"/>
        <pt x="951" y="785" on="0"/>
        <pt x="847" y="742" on="1"/>
        <pt x="942" y="691" on="0"/>
        <pt x="1034" y="511" on="0"/>
        <pt x="1012" y="398" on="1"/>
        <pt x="968" y="182" on="0"/>
        <pt x="678" y="-21" on="0"/>
        <pt x="466" y="-21" on="1"/>
        <pt x="270" y="-21" on="0"/>
        <pt x="44" y="199" on="0"/>
        <pt x="84" y="398" on="1"/>
        <pt x="108" y="525" on="0"/>
        <pt x="268" y="705" on="0"/>
        <pt x="388" y="751" on="1"/>
        <pt x="304" y="799" on="0"/>
        <pt x="227" y="965" on="0"/>
        <pt x="249" y="1070" on="1"/>
        <pt x="290" y="1277" on="0"/>
        <pt x="563" y="1477" on="0"/>
        <pt x="763" y="1477" on="1"/>
        <pt x="945" y="1477" on="0"/>
        <pt x="1153" y="1261" on="0"/>
      </contour>
      <contour>
        <pt x="728" y="418" on="1"/>
        <pt x="748" y="522" on="0"/>
        <pt x="675" y="634" on="0"/>
        <pt x="595" y="634" on="1"/>
        <pt x="520" y="634" on="0"/>
        <pt x="396" y="514" on="0"/>
        <pt x="377" y="418" on="1"/>
        <pt x="355" y="312" on="0"/>
        <pt x="428" y="203" on="0"/>
        <pt x="511" y="203" on="1"/>
        <pt x="585" y="203" on="0"/>
        <pt x="708" y="320" on="0"/>
      </contour>
      <contour>
        <pt x="825" y="1057" on="1"/>
        <pt x="844" y="1150" on="0"/>
        <pt x="788" y="1252" on="0"/>
        <pt x="718" y="1252" on="1"/>
        <pt x="653" y="1252" on="0"/>
        <pt x="551" y="1145" on="0"/>
        <pt x="534" y="1057" on="1"/>
        <pt x="515" y="960" on="0"/>
        <pt x="571" y="859" on="0"/>
        <pt x="642" y="859" on="1"/>
        <pt x="706" y="859" on="0"/>
        <pt x="807" y="968" on="0"/>
      </contour>
    </TTGlyph>
    <TTGlyph name="eight.lnum" xMin="42" yMin="-21" xMax="1191" yMax="1477">
      <contour>
        <pt x="1153" y="1070" on="1"/>
        <pt x="1129" y="952" on="0"/>
        <pt x="984" y="785" on="0"/>
        <pt x="874" y="741" on="1"/>
        <pt x="974" y="690" on="0"/>
        <pt x="1071" y="511" on="0"/>
        <pt x="1049" y="398" on="1"/>
        <pt x="1005" y="182" on="0"/>
        <pt x="704" y="-21" on="0"/>
        <pt x="482" y="-21" on="1"/>
        <pt x="279" y="-21" on="0"/>
        <pt x="42" y="199" on="0"/>
        <pt x="82" y="398" on="1"/>
        <pt x="106" y="524" on="0"/>
        <pt x="271" y="705" on="0"/>
        <pt x="395" y="751" on="1"/>
        <pt x="306" y="799" on="0"/>
        <pt x="224" y="965" on="0"/>
        <pt x="246" y="1070" on="1"/>
        <pt x="287" y="1277" on="0"/>
        <pt x="570" y="1477" on="0"/>
        <pt x="779" y="1477" on="1"/>
        <pt x="971" y="1477" on="0"/>
        <pt x="1191" y="1261" on="0"/>
      </contour>
      <contour>
        <pt x="765" y="418" on="1"/>
        <pt x="785" y="522" on="0"/>
        <pt x="701" y="634" on="0"/>
        <pt x="611" y="634" on="1"/>
        <pt x="529" y="634" on="0"/>
        <pt x="393" y="514" on="0"/>
        <pt x="374" y="418" on="1"/>
        <pt x="352" y="312" on="0"/>
        <pt x="435" y="203" on="0"/>
        <pt x="527" y="203" on="1"/>
        <pt x="609" y="203" on="0"/>
        <pt x="745" y="320" on="0"/>
      </contour>
      <contour>
        <pt x="861" y="1057" on="1"/>
        <pt x="880" y="1151" on="0"/>
        <pt x="814" y="1252" on="0"/>
        <pt x="734" y="1252" on="1"/>
        <pt x="661" y="1252" on="0"/>
        <pt x="549" y="1145" on="0"/>
        <pt x="532" y="1057" on="1"/>
        <pt x="513" y="960" on="0"/>
        <pt x="578" y="859" on="0"/>
        <pt x="658" y="859" on="1"/>
        <pt x="731" y="859" on="0"/>
        <pt x="843" y="967" on="0"/>
      </contour>
    </TTGlyph>
    <TTGlyph name="eight.smcp" xMin="20" yMin="-17" xMax="1058" yMax="1181">
      <contour>
        <pt x="1028" y="860" on="1"/>
        <pt x="1009" y="768" on="0"/>
        <pt x="885" y="636" on="0"/>
        <pt x="792" y="600" on="1"/>
        <pt x="881" y="559" on="0"/>
        <pt x="971" y="417" on="0"/>
        <pt x="954" y="328" on="1"/>
        <pt x="919" y="155" on="0"/>
        <pt x="638" y="-17" on="0"/>
        <pt x="442" y="-17" on="1"/>
        <pt x="257" y="-17" on="0"/>
        <pt x="20" y="169" on="0"/>
        <pt x="53" y="328" on="1"/>
        <pt x="72" y="427" on="0"/>
        <pt x="221" y="570" on="0"/>
        <pt x="333" y="608" on="1"/>
        <pt x="252" y="648" on="0"/>
        <pt x="174" y="778" on="0"/>
        <pt x="191" y="860" on="1"/>
        <pt x="223" y="1023" on="0"/>
        <pt x="491" y="1181" on="0"/>
        <pt x="681" y="1181" on="1"/>
        <pt x="848" y="1181" on="0"/>
        <pt x="1058" y="1011" on="0"/>
      </contour>
      <contour>
        <pt x="668" y="347" on="1"/>
        <pt x="681" y="414" on="0"/>
        <pt x="608" y="491" on="0"/>
        <pt x="543" y="491" on="1"/>
        <pt x="477" y="491" on="0"/>
        <pt x="358" y="409" on="0"/>
        <pt x="345" y="347" on="1"/>
        <pt x="331" y="280" on="0"/>
        <pt x="413" y="205" on="0"/>
        <pt x="486" y="205" on="1"/>
        <pt x="547" y="205" on="0"/>
        <pt x="655" y="285" on="0"/>
      </contour>
      <contour>
        <pt x="736" y="840" on="1"/>
        <pt x="747" y="897" on="0"/>
        <pt x="689" y="958" on="0"/>
        <pt x="637" y="958" on="1"/>
        <pt x="583" y="958" on="0"/>
        <pt x="486" y="892" on="0"/>
        <pt x="476" y="840" on="1"/>
        <pt x="464" y="782" on="0"/>
        <pt x="530" y="715" on="0"/>
        <pt x="588" y="715" on="1"/>
        <pt x="636" y="715" on="0"/>
        <pt x="725" y="786" on="0"/>
      </contour>
    </TTGlyph>
    <TTGlyph name="eight.sup" xMin="27" yMin="-11" xMax="774" yMax="812">
      <contour>
        <pt x="753" y="592" on="1"/>
        <pt x="740" y="529" on="0"/>
        <pt x="652" y="438" on="0"/>
        <pt x="586" y="413" on="1"/>
        <pt x="650" y="383" on="0"/>
        <pt x="715" y="286" on="0"/>
        <pt x="703" y="226" on="1"/>
        <pt x="679" y="106" on="0"/>
        <pt x="478" y="-11" on="0"/>
        <pt x="336" y="-11" on="1"/>
        <pt x="201" y="-11" on="0"/>
        <pt x="27" y="116" on="0"/>
        <pt x="50" y="226" on="1"/>
        <pt x="63" y="294" on="0"/>
        <pt x="169" y="392" on="0"/>
        <pt x="250" y="418" on="1"/>
        <pt x="191" y="446" on="0"/>
        <pt x="133" y="536" on="0"/>
        <pt x="145" y="592" on="1"/>
        <pt x="167" y="703" on="0"/>
        <pt x="362" y="812" on="0"/>
        <pt x="499" y="812" on="1"/>
        <pt x="620" y="812" on="0"/>
        <pt x="774" y="695" on="0"/>
      </contour>
      <contour>
        <pt x="500" y="238" on="1"/>
        <pt x="509" y="284" on="0"/>
        <pt x="453" y="337" on="0"/>
        <pt x="404" y="337" on="1"/>
        <pt x="355" y="337" on="0"/>
        <pt x="267" y="281" on="0"/>
        <pt x="259" y="238" on="1"/>
        <pt x="249" y="192" on="0"/>
        <pt x="311" y="144" on="0"/>
        <pt x="367" y="144" on="1"/>
        <pt x="412" y="144" on="0"/>
        <pt x="491" y="195" on="0"/>
      </contour>
      <contour>
        <pt x="544" y="577" on="1"/>
        <pt x="552" y="616" on="0"/>
        <pt x="507" y="657" on="0"/>
        <pt x="468" y="657" on="1"/>
        <pt x="427" y="657" on="0"/>
        <pt x="358" y="614" on="0"/>
        <pt x="351" y="577" on="1"/>
        <pt x="343" y="536" on="0"/>
        <pt x="392" y="492" on="0"/>
        <pt x="436" y="492" on="1"/>
        <pt x="471" y="492" on="0"/>
        <pt x="536" y="539" on="0"/>
      </contour>
    </TTGlyph>
    <TTGlyph name="ellipsis" xMin="57" yMin="0" xMax="1280" yMax="256">
      <component glyphName="period" x="5" y="0" flags="0x4"/>
      <component glyphName="period" x="451" y="0" flags="0x4"/>
      <component glyphName="period" x="891" y="0" flags="0x4"/>
    </TTGlyph>
    <TTGlyph name="emacron" xMin="50" yMin="-21" xMax="1027" yMax="1457">
      <component glyphName="e" x="0" y="0" flags="0x204"/>
      <component glyphName="macron" x="23" y="0" flags="0x4"/>
    </TTGlyph>
    <TTGlyph name="emdash" xMin="222" yMin="601" xMax="1536" yMax="829">
      <component glyphName="minus" x="-58" y="0" scalex="1.59997558594" scaley="1.0" flags="0x4"/>
    </TTGlyph>
    <TTGlyph name="endash" xMin="208" yMin="601" xMax="1276" yMax="829">
      <component glyphName="minus" x="-19" y="0" scalex="1.29998779297" scaley="1.0" flags="0x4"/>
    </TTGlyph>
    <TTGlyph name="eng" xMin="15" yMin="-437" xMax="1078" yMax="1102">
      <contour>
        <pt x="484" y="943" on="1"/>
        <pt x="548" y="1020" on="0"/>
        <pt x="709" y="1102" on="0"/>
        <pt x="798" y="1102" on="1"/>
        <pt x="941" y="1102" on="0"/>
        <pt x="1078" y="887" on="0"/>
        <pt x="1034" y="663" on="1"/>
        <pt x="893" y="-40" on="1"/>
        <pt x="852" y="-243" on="0"/>
        <pt x="626" y="-437" on="0"/>
        <pt x="452" y="-437" on="1"/>
        <pt x="417" y="-437" on="0"/>
        <pt x="351" y="-429" on="0"/>
        <pt x="320" y="-420" on="1"/>
        <pt x="379" y="-196" on="1"/>
        <pt x="398" y="-202" on="0"/>
        <pt x="441" y="-208" on="0"/>
        <pt x="466" y="-208" on="1"/>
        <pt x="513" y="-208" on="0"/>
        <pt x="587" y="-120" on="0"/>
        <pt x="604" y="-40" on="1"/>
        <pt x="744" y="662" on="1"/>
        <pt x="768" y="786" on="0"/>
        <pt x="719" y="875" on="0"/>
        <pt x="646" y="875" on="1"/>
        <pt x="594" y="875" on="0"/>
        <pt x="499" y="827" on="0"/>
        <pt x="460" y="785" on="1"/>
        <pt x="303" y="0" on="1"/>
        <pt x="15" y="0" on="1"/>
        <pt x="231" y="1082" on="1"/>
        <pt x="500" y="1082" on="1"/>
      </contour>
    </TTGlyph>
    <TTGlyph name="eogonek" xMin="50" yMin="-381" xMax="1027" yMax="1103">
      <component glyphName="e" x="0" y="0" flags="0x204"/>
      <component glyphName="ogonek" x="459" y="43" flags="0x4"/>
    </TTGlyph>
    <TTGlyph name="epsilon" xMin="38" yMin="-20" xMax="1088" yMax="1101">
      <contour>
        <pt x="68" y="306" on="1"/>
        <pt x="87" y="403" on="0"/>
        <pt x="211" y="530" on="0"/>
        <pt x="311" y="560" on="1"/>
        <pt x="238" y="597" on="0"/>
        <pt x="168" y="717" on="0"/>
        <pt x="182" y="786" on="1"/>
        <pt x="214" y="946" on="0"/>
        <pt x="488" y="1101" on="0"/>
        <pt x="700" y="1101" on="1"/>
        <pt x="869" y="1101" on="0"/>
        <pt x="1088" y="920" on="0"/>
        <pt x="1055" y="777" on="1"/>
        <pt x="1053" y="771" on="1"/>
        <pt x="773" y="771" on="1"/>
        <pt x="784" y="828" on="0"/>
        <pt x="712" y="889" on="0"/>
        <pt x="643" y="889" on="1"/>
        <pt x="572" y="889" on="0"/>
        <pt x="474" y="814" on="0"/>
        <pt x="465" y="765" on="1"/>
        <pt x="453" y="707" on="0"/>
        <pt x="519" y="647" on="0"/>
        <pt x="594" y="647" on="1"/>
        <pt x="770" y="647" on="1"/>
        <pt x="758" y="588" on="1"/>
        <pt x="759" y="588" on="1"/>
        <pt x="733" y="458" on="1"/>
        <pt x="557" y="458" on="1"/>
        <pt x="480" y="458" on="0"/>
        <pt x="372" y="393" on="0"/>
        <pt x="359" y="325" on="1"/>
        <pt x="347" y="266" on="0"/>
        <pt x="420" y="191" on="0"/>
        <pt x="502" y="191" on="1"/>
        <pt x="577" y="191" on="0"/>
        <pt x="689" y="266" on="0"/>
        <pt x="700" y="320" on="1"/>
        <pt x="977" y="320" on="1"/>
        <pt x="978" y="314" on="1"/>
        <pt x="948" y="140" on="0"/>
        <pt x="662" y="-20" on="0"/>
        <pt x="476" y="-20" on="1"/>
        <pt x="282" y="-20" on="0"/>
        <pt x="38" y="158" on="0"/>
      </contour>
    </TTGlyph>
    <TTGlyph name="epsilontonos" xMin="38" yMin="-20" xMax="1088" yMax="1587">
      <component glyphName="epsilon" x="0" y="0" flags="0x204"/>
      <component glyphName="tonos" x="203" y="-47" flags="0x4"/>
    </TTGlyph>
    <TTGlyph name="equal" xMin="112" yMin="332" xMax="1081" yMax="992">
      <contour>
        <pt x="1036" y="763" on="1"/>
        <pt x="199" y="763" on="1"/>
        <pt x="244" y="992" on="1"/>
        <pt x="1081" y="992" on="1"/>
      </contour>
      <contour>
        <pt x="949" y="332" on="1"/>
        <pt x="112" y="332" on="1"/>
        <pt x="158" y="561" on="1"/>
        <pt x="995" y="561" on="1"/>
      </contour>
    </TTGlyph>
    <TTGlyph name="estimated" xMin="121" yMin="-20" xMax="1162" yMax="1102">
      <contour>
        <pt x="908" y="94" on="1"/>
        <pt x="816" y="39" on="0"/>
        <pt x="629" y="-20" on="0"/>
        <pt x="541" y="-20" on="1"/>
        <pt x="352" y="-20" on="0"/>
        <pt x="121" y="313" on="0"/>
        <pt x="166" y="541" on="1"/>
        <pt x="214" y="782" on="0"/>
        <pt x="573" y="1102" on="0"/>
        <pt x="765" y="1102" on="1"/>
        <pt x="945" y="1102" on="0"/>
        <pt x="1162" y="788" on="0"/>
        <pt x="1117" y="561" on="1"/>
        <pt x="1108" y="514" on="1"/>
        <pt x="394" y="514" on="1"/>
        <pt x="328" y="186" on="1"/>
        <pt x="370" y="133" on="0"/>
        <pt x="488" y="76" on="0"/>
        <pt x="560" y="76" on="1"/>
        <pt x="642" y="76" on="0"/>
        <pt x="836" y="137" on="0"/>
        <pt x="927" y="198" on="1"/>
      </contour>
      <contour>
        <pt x="747" y="1008" on="1"/>
        <pt x="683" y="1008" on="0"/>
        <pt x="532" y="942" on="0"/>
        <pt x="468" y="886" on="1"/>
        <pt x="413" y="609" on="1"/>
        <pt x="915" y="609" on="1"/>
        <pt x="972" y="895" on="1"/>
        <pt x="932" y="948" on="0"/>
        <pt x="816" y="1008" on="0"/>
      </contour>
    </TTGlyph>
    <TTGlyph name="eta" xMin="15" yMin="-415" xMax="1079" yMax="1102">
      <contour>
        <pt x="484" y="943" on="1"/>
        <pt x="548" y="1020" on="0"/>
        <pt x="709" y="1102" on="0"/>
        <pt x="798" y="1102" on="1"/>
        <pt x="942" y="1102" on="0"/>
        <pt x="1079" y="890" on="0"/>
        <pt x="1034" y="663" on="1"/>
        <pt x="818" y="-415" on="1"/>
        <pt x="529" y="-415" on="1"/>
        <pt x="744" y="662" on="1"/>
        <pt x="768" y="786" on="0"/>
        <pt x="719" y="877" on="0"/>
        <pt x="646" y="877" on="1"/>
        <pt x="594" y="877" on="0"/>
        <pt x="499" y="829" on="0"/>
        <pt x="460" y="786" on="1"/>
        <pt x="303" y="0" on="1"/>
        <pt x="15" y="0" on="1"/>
        <pt x="231" y="1082" on="1"/>
        <pt x="500" y="1082" on="1"/>
      </contour>
    </TTGlyph>
    <TTGlyph name="etatonos" xMin="15" yMin="-415" xMax="1079" yMax="1588">
      <component glyphName="eta" x="0" y="0" flags="0x204"/>
      <component glyphName="tonos" x="194" y="-46" flags="0x4"/>
    </TTGlyph>
    <TTGlyph name="eth" xMin="11" yMin="-21" xMax="1204" yMax="1517">
      <contour>
        <pt x="1022" y="1283" on="1"/>
        <pt x="1102" y="1166" on="0"/>
        <pt x="1152" y="850" on="0"/>
        <pt x="1115" y="661" on="1"/>
        <pt x="1100" y="585" on="1"/>
        <pt x="1043" y="300" on="0"/>
        <pt x="688" y="-21" on="0"/>
        <pt x="462" y="-21" on="1"/>
        <pt x="253" y="-21" on="0"/>
        <pt x="11" y="264" on="0"/>
        <pt x="53" y="468" on="1"/>
        <pt x="101" y="709" on="0"/>
        <pt x="399" y="967" on="0"/>
        <pt x="620" y="967" on="1"/>
        <pt x="686" y="967" on="0"/>
        <pt x="802" y="919" on="0"/>
        <pt x="843" y="878" on="1"/>
        <pt x="847" y="882" on="1"/>
        <pt x="846" y="963" on="0"/>
        <pt x="804" y="1095" on="0"/>
        <pt x="766" y="1146" on="1"/>
        <pt x="525" y="1018" on="1"/>
        <pt x="471" y="1131" on="1"/>
        <pt x="670" y="1237" on="1"/>
        <pt x="642" y="1255" on="0"/>
        <pt x="579" y="1286" on="0"/>
        <pt x="545" y="1299" on="1"/>
        <pt x="678" y="1517" on="1"/>
        <pt x="753" y="1497" on="0"/>
        <pt x="884" y="1427" on="0"/>
        <pt x="938" y="1379" on="1"/>
        <pt x="1152" y="1493" on="1"/>
        <pt x="1204" y="1380" on="1"/>
      </contour>
      <contour>
        <pt x="828" y="663" on="1"/>
        <pt x="828" y="667" on="1"/>
        <pt x="805" y="705" on="0"/>
        <pt x="701" y="755" on="0"/>
        <pt x="624" y="755" on="1"/>
        <pt x="523" y="755" on="0"/>
        <pt x="366" y="594" on="0"/>
        <pt x="342" y="468" on="1"/>
        <pt x="318" y="350" on="0"/>
        <pt x="407" y="203" on="0"/>
        <pt x="511" y="203" on="1"/>
        <pt x="608" y="203" on="0"/>
        <pt x="779" y="422" on="0"/>
        <pt x="812" y="585" on="1"/>
      </contour>
    </TTGlyph>
    <TTGlyph name="exclam" xMin="44" yMin="0" xMax="622" yMax="1456">
      <contour>
        <pt x="431" y="502" on="1"/>
        <pt x="142" y="502" on="1"/>
        <pt x="333" y="1456" on="1"/>
        <pt x="622" y="1456" on="1"/>
      </contour>
      <contour>
        <pt x="329" y="0" on="1"/>
        <pt x="44" y="0" on="1"/>
        <pt x="95" y="256" on="1"/>
        <pt x="380" y="256" on="1"/>
      </contour>
    </TTGlyph>
    <TTGlyph name="exclamdbl" xMin="44" yMin="0" xMax="1161" yMax="1456">
      <component glyphName="exclam" x="0" y="0" flags="0x4"/>
      <component glyphName="exclam" x="539" y="0" flags="0x4"/>
    </TTGlyph>
    <TTGlyph name="exclamdown" xMin="-25" yMin="-374" xMax="553" yMax="1082">
      <contour>
        <pt x="264" y="-374" on="1"/>
        <pt x="-25" y="-374" on="1"/>
        <pt x="166" y="579" on="1"/>
        <pt x="455" y="579" on="1"/>
      </contour>
      <contour>
        <pt x="502" y="825" on="1"/>
        <pt x="217" y="825" on="1"/>
        <pt x="268" y="1082" on="1"/>
        <pt x="553" y="1082" on="1"/>
      </contour>
    </TTGlyph>
    <TTGlyph name="f" xMin="92" yMin="0" xMax="936" yMax="1581">
      <contour>
        <pt x="92" y="0" on="1"/>
        <pt x="267" y="877" on="1"/>
        <pt x="120" y="877" on="1"/>
        <pt x="161" y="1082" on="1"/>
        <pt x="308" y="1082" on="1"/>
        <pt x="332" y="1202" on="1"/>
        <pt x="371" y="1396" on="0"/>
        <pt x="604" y="1581" on="0"/>
        <pt x="789" y="1581" on="1"/>
        <pt x="822" y="1581" on="0"/>
        <pt x="894" y="1570" on="0"/>
        <pt x="936" y="1560" on="1"/>
        <pt x="869" y="1343" on="1"/>
        <pt x="849" y="1347" on="0"/>
        <pt x="807" y="1353" on="0"/>
        <pt x="780" y="1353" on="1"/>
        <pt x="721" y="1353" on="0"/>
        <pt x="635" y="1273" on="0"/>
        <pt x="621" y="1202" on="1"/>
        <pt x="597" y="1082" on="1"/>
        <pt x="792" y="1082" on="1"/>
        <pt x="751" y="877" on="1"/>
        <pt x="556" y="877" on="1"/>
        <pt x="381" y="0" on="1"/>
      </contour>
    </TTGlyph>
    <TTGlyph name="fi" xMin="83" yMin="0" xMax="1195" yMax="1581">
      <contour>
        <pt x="83" y="0" on="1"/>
        <pt x="258" y="877" on="1"/>
        <pt x="110" y="877" on="1"/>
        <pt x="151" y="1082" on="1"/>
        <pt x="299" y="1082" on="1"/>
        <pt x="314" y="1156" on="1"/>
        <pt x="357" y="1373" on="0"/>
        <pt x="632" y="1581" on="0"/>
        <pt x="852" y="1581" on="1"/>
        <pt x="920" y="1581" on="0"/>
        <pt x="1065" y="1549" on="0"/>
        <pt x="1151" y="1521" on="1"/>
        <pt x="1063" y="1291" on="1"/>
        <pt x="1002" y="1312" on="0"/>
        <pt x="894" y="1337" on="0"/>
        <pt x="822" y="1337" on="1"/>
        <pt x="735" y="1337" on="0"/>
        <pt x="619" y="1243" on="0"/>
        <pt x="602" y="1156" on="1"/>
        <pt x="587" y="1082" on="1"/>
        <pt x="780" y="1082" on="1"/>
        <pt x="739" y="877" on="1"/>
        <pt x="546" y="877" on="1"/>
        <pt x="371" y="0" on="1"/>
      </contour>
      <contour>
        <pt x="979" y="0" on="1"/>
        <pt x="691" y="0" on="1"/>
        <pt x="907" y="1082" on="1"/>
        <pt x="1195" y="1082" on="1"/>
      </contour>
    </TTGlyph>
    <TTGlyph name="five" xMin="60" yMin="-21" xMax="1132" yMax="1456">
      <contour>
        <pt x="160" y="645" on="1"/>
        <pt x="368" y="1456" on="1"/>
        <pt x="1132" y="1456" on="1"/>
        <pt x="1095" y="1222" on="1"/>
        <pt x="567" y="1222" on="1"/>
        <pt x="477" y="886" on="1"/>
        <pt x="517" y="915" on="0"/>
        <pt x="627" y="955" on="0"/>
        <pt x="686" y="956" on="1"/>
        <pt x="884" y="959" on="0"/>
        <pt x="1058" y="699" on="0"/>
        <pt x="1021" y="467" on="1"/>
        <pt x="986" y="250" on="0"/>
        <pt x="707" y="-21" on="0"/>
        <pt x="482" y="-21" on="1"/>
        <pt x="300" y="-21" on="0"/>
        <pt x="60" y="200" on="0"/>
        <pt x="94" y="390" on="1"/>
        <pt x="96" y="395" on="1"/>
        <pt x="376" y="409" on="1"/>
        <pt x="360" y="308" on="0"/>
        <pt x="438" y="203" on="0"/>
        <pt x="517" y="203" on="1"/>
        <pt x="603" y="203" on="0"/>
        <pt x="714" y="350" on="0"/>
        <pt x="732" y="465" on="1"/>
        <pt x="753" y="596" on="0"/>
        <pt x="687" y="743" on="0"/>
        <pt x="595" y="743" on="1"/>
        <pt x="525" y="743" on="0"/>
        <pt x="435" y="680" on="0"/>
        <pt x="411" y="628" on="1"/>
      </contour>
    </TTGlyph>
    <TTGlyph name="five.lnum" xMin="56" yMin="-21" xMax="1179" yMax="1456">
      <contour>
        <pt x="174" y="645" on="1"/>
        <pt x="415" y="1456" on="1"/>
        <pt x="1179" y="1456" on="1"/>
        <pt x="1132" y="1222" on="1"/>
        <pt x="603" y="1222" on="1"/>
        <pt x="501" y="886" on="1"/>
        <pt x="544" y="916" on="0"/>
        <pt x="655" y="955" on="0"/>
        <pt x="713" y="956" on="1"/>
        <pt x="912" y="959" on="0"/>
        <pt x="1075" y="699" on="0"/>
        <pt x="1028" y="467" on="1"/>
        <pt x="984" y="245" on="0"/>
        <pt x="696" y="-21" on="0"/>
        <pt x="470" y="-21" on="1"/>
        <pt x="293" y="-21" on="0"/>
        <pt x="56" y="201" on="0"/>
        <pt x="99" y="390" on="1"/>
        <pt x="101" y="395" on="1"/>
        <pt x="382" y="409" on="1"/>
        <pt x="361" y="306" on="0"/>
        <pt x="435" y="203" on="0"/>
        <pt x="515" y="203" on="1"/>
        <pt x="597" y="203" on="0"/>
        <pt x="717" y="352" on="0"/>
        <pt x="740" y="465" on="1"/>
        <pt x="766" y="599" on="0"/>
        <pt x="706" y="743" on="0"/>
        <pt x="614" y="743" on="1"/>
        <pt x="546" y="743" on="0"/>
        <pt x="452" y="680" on="0"/>
        <pt x="425" y="628" on="1"/>
      </contour>
    </TTGlyph>
</ttFont>
